<?xml version="1.0" standalone="no"?>
<!DOCTYPE svg PUBLIC "-//W3C//DTD SVG 1.1//EN" "http://www.w3.org/Graphics/SVG/1.1/DTD/svg11.dtd" >
<svg xmlns="http://www.w3.org/2000/svg" xmlns:xlink="http://www.w3.org/1999/xlink" version="1.1">
<metadata></metadata>
<defs>
<font id="quicksandlightitalic" horiz-adv-x="1255" >
<font-face units-per-em="2048" ascent="1638" descent="-410" />
<missing-glyph horiz-adv-x="614" />
<glyph horiz-adv-x="0" />
<glyph unicode="&#xd;" horiz-adv-x="681" />
<glyph unicode=" "  horiz-adv-x="614" />
<glyph unicode="&#x09;" horiz-adv-x="614" />
<glyph unicode="&#xa0;" horiz-adv-x="614" />
<glyph unicode="!" horiz-adv-x="516" d="M193 35l10 49q3 26 28 22q27 -8 23 -30l-10 -49q-4 -23 -25 -23q-4 0 -4 2q-27 4 -22 29zM250 352l186 1065q6 25 23 21q35 -4 28 -29l-186 -1067q-4 -20 -27 -20h-4q-10 2 -16 11t-4 19z" />
<glyph unicode="&#x22;" horiz-adv-x="839" d="M139 1298v21q0 92 78 113h6q12 0 13 -13q6 -10 -11 -18q-35 -10 -49 -43q4 2 19.5 2t31 -14.5t15.5 -35t-16.5 -37t-45 -16.5t-39.5 37q-2 0 -2 4zM291 1298v21q0 92 78 113h6q12 0 12 -13q6 -10 -10 -18q-35 -10 -49 -43q4 2 19 2t30.5 -14.5t15.5 -35t-16.5 -37 t-45 -16.5t-38.5 37q-2 0 -2 4z" />
<glyph unicode="&#x26;" horiz-adv-x="1425" d="M100 392.5q0 164.5 109 305.5q80 104 197 166q-72 78 -72 189q0 20 4 57q27 137 138.5 232.5t241.5 95.5t210 -80q80 -76 80 -199q0 -27 -5.5 -54.5t-31 -23.5t-21.5 25.5t4 52.5q0 98 -63.5 162.5t-173 64.5t-209.5 -83q-123 -104 -123 -250q0 -109 80 -176 q23 -14 4 -37h-2l-8 -9q-115 -49 -197 -149q-111 -133 -109.5 -285.5t94.5 -246t252.5 -94.5t303.5 120q178 152 178 365q0 27 -2 39h-10q-23 2 -68 2q-215 0 -299 -101q-51 -61 -51 -141v-16q4 -25 -23 -29h-4q-27 0 -26 45q0 98 63 174q106 121 340 121q23 0 72 -4h12 q72 2 120 42t50 132v16q0 25 16 27q35 4 35 -23v-20q2 -113 -71 -176q-43 -35 -105 -45q4 -29 4 -49.5t-8 -73.5q-33 -190 -189.5 -322.5t-334.5 -133.5t-293 110q-109 113 -109 277.5z" />
<glyph unicode="'" horiz-adv-x="471" d="M139 1383.5q0 21.5 16.5 37t45 15.5t39.5 -37q0 -4 2 -4v-21q0 -92 -78 -112h-6q-13 0 -13 12q-6 10 11 18q37 8 47 41h-10q-23 0 -38.5 14.5t-15.5 36z" />
<glyph unicode="(" horiz-adv-x="880" d="M145 411q0 169 27 316q57 313 174 498q135 213 334 213q25 0 25 -26t-25 -26q-168 0 -287 -186t-170 -483q-26 -160 -26 -275q0 -385 239 -385q27 0 27 -26.5t-27 -26.5h-2q-150 0 -223 129q-66 109 -66 278z" />
<glyph unicode=")" horiz-adv-x="880" d="M123 30.5q0 26.5 27 26.5q166 0 283.5 183.5t170.5 486.5q29 154 29 305.5t-60.5 252.5t-179.5 101q-27 0 -26.5 26t26.5 26q151 2 225 -127q66 -109 66 -310q0 -129 -29 -284q-53 -309 -172 -498q-139 -215 -333 -215q-27 0 -27 26.5z" />
<glyph unicode="*" horiz-adv-x="880" d="M162 391q0 29 33 29h229l-137 162q-20 20 8 41q20 18 39 0l135 -162l37 227q4 29 33.5 29t25.5 -29l-37 -227l191 162q20 16 41 0q8 -23 -8 -41l-191 -162h230q27 0 26 -29q-12 -31 -37 -31h-227l137 -159q16 -23 -4 -39q-16 -10 -28.5 -10t-12.5 10l-139 160l-37 -230 q-4 -31 -33.5 -31t-25.5 31l36 232l-186 -162q-16 -10 -27.5 -10t-11.5 10q-23 16 4 39l185 159h-226q-14 0 -20 9.5t-2 21.5z" />
<glyph unicode="+" horiz-adv-x="1269" d="M135 707q6 35 43 34h432l84 435q6 35 45 34q12 0 20.5 -10t6.5 -24l-84 -435h434q12 0 21.5 -10t7.5 -24.5t-16.5 -25.5t-26.5 -11h-434l-84 -432q-8 -37 -41 -37q-16 0 -25.5 10.5t-5.5 26.5l84 432h-432q-37 0 -29 37z" />
<glyph unicode="," horiz-adv-x="471" d="M111 57.5q0 20.5 16 37t45 16.5t39 -37q0 -4 2 -4v-21q0 -92 -78 -112h-6q-12 0 -12 12q-6 10 10 18q37 10 47 41h-10q-23 0 -38 14.5t-15 35z" />
<glyph unicode="-" horiz-adv-x="835" d="M135.5 716.5q-0.5 20.5 20.5 20.5h467q18 0 18 -20.5t-18 -20.5h-467q-20 0 -20.5 20.5z" />
<glyph unicode="." horiz-adv-x="471" d="M168 57.5q0 20.5 15.5 36t37 15.5t35.5 -15.5t14 -36t-14 -36t-34.5 -15.5t-37 15.5t-16.5 36z" />
<glyph unicode="/" horiz-adv-x="1024" d="M-6 37l579 1376q4 10 14.5 14.5t18.5 -0.5q25 -8 17 -32l-584 -1379q-4 -16 -17.5 -16t-15.5 2q-23 10 -12 35z" />
<glyph unicode="0" horiz-adv-x="1454" d="M133 541q0 96 17 180q53 295 228 503t382 210q174 0 278.5 -156t104.5 -385q0 -80 -17 -182q-53 -295 -229 -502t-381 -209h-2q-174 0 -278 158q-102 150 -103 383zM184 541q0 -217 94.5 -353.5t237.5 -136.5q178 -2 344 194.5t215 475.5q14 84 15 172q0 213 -93 352 q-94 135 -237 135h-4q-178 0 -343 -196.5t-212 -472.5q-16 -94 -17 -170z" />
<glyph unicode="1" horiz-adv-x="686" d="M65.5 1229.5q-8.5 17.5 12.5 32.5l319 170q2 2 4 2t5 2h8l2 -2q6 0 16 -11v-2l2 -2q0 -4 2 -6v-8l-243 -1382q-4 -20 -27 -21h-4q-10 2 -16.5 11.5t-4.5 19.5l234 1329l-273 -148q-4 -2 -16 -2t-20.5 17.5z" />
<glyph unicode="2" horiz-adv-x="1208" d="M94.5 16.5q-12.5 14.5 7.5 30.5l805 629q94 72 144.5 172t50.5 208.5t-62 194.5q-96 131 -266 131t-303 -106l-86 -66q-18 -14 -37 4q-14 23 6 37l84 66q150 119 326 119q207 0 317 -154q74 -102 74 -224t-57.5 -232.5t-159.5 -190.5l-743 -582h759q27 0 27 -25.5 t-27 -25.5h-835q-12 0 -24.5 14.5z" />
<glyph unicode="3" horiz-adv-x="1249" d="M154 139q-14 18 6 37t39 0q100 -123 277 -123t323.5 125t175.5 301q33 172 -70 299q-102 123 -276 123q-16 0 -23 12q-20 20 4 41l490 426h-633q-10 0 -16.5 8.5t-4.5 18.5q4 27 31 27h694q10 0 16.5 -8.5t4.5 -21.5t-12 -20l-498 -432q170 -16 266 -137 q117 -137 80 -336q-33 -199 -199 -340q-168 -139 -365.5 -139t-309.5 139z" />
<glyph unicode="4" horiz-adv-x="1359" d="M106 307q-18 18 0 37l1057 1077q4 0 4 2t2 2t2 1t3.5 1t3.5 3h8l2 -3q8 0 8 -2t4 -5t4 -5t1 -2t1 -2v-4q2 -2 0 -6l2 -2l-186 -1047h123q27 0 26.5 -25.5t-26.5 -25.5h-131l-49 -285q-6 -20 -27 -20h-4q-10 2 -16.5 11t-4.5 20l48 274h-836q-10 0 -19 6zM186 352h785 l170 973z" />
<glyph unicode="5" horiz-adv-x="1239" d="M133 143q-18 18 2.5 37t38.5 -4q98 -121 274.5 -121t325.5 125q186 164 187 393q0 117 -78 207q-98 123 -275.5 123t-322.5 -127q-23 -14 -39 4l-6 13v14l180 606q4 12 16 17q6 6 13 6h694q27 0 26.5 -27t-26.5 -27h-676l-154 -518q141 92 297 92q199 0 316 -141 q88 -109 88 -240q0 -262 -205 -436q-162 -137 -360 -137h-3q-197 0 -313 141z" />
<glyph unicode="6" horiz-adv-x="1314" d="M131 391v37q29 356 215 643q229 352 590 367q27 0 27 -27q4 -23 -25 -27q-330 -10 -547 -342q-100 -150 -158 -348q80 109 199 173.5t248 64.5q172 0 283.5 -109.5t111.5 -277.5q0 -25 -8 -82l-25 4l25 -4q-35 -193 -192.5 -326t-340 -133t-292.5 111q-111 106 -111 276z M182 391q0 -145 95.5 -240.5t257.5 -95.5t307 123q180 152 180 367q0 143 -95.5 238.5t-246.5 97.5h-2q-170 0 -316 -123q-180 -152 -180 -367z" />
<glyph unicode="7" horiz-adv-x="1202" d="M139 37l801 1341h-754q-27 0 -26.5 27t26.5 27h801l2 -2h4q4 0 4 -3h2l11 -10q0 -2 2 -4v-14q-2 -2 -2 -6v-2l-828 -1381q-6 -12 -18 -12t-17 2q-23 14 -8 37z" />
<glyph unicode="8" horiz-adv-x="1290" d="M113 377q0 199 149 356q117 121 270 160q-33 16 -55 39q-68 68 -67 170q0 145 120 246q96 82 207 83t180.5 -69t68.5 -175.5t-66.5 -184t-145.5 -113.5q84 -23 156 -90q109 -104 108 -271q0 -233 -194 -399q-156 -131 -333 -131t-287.5 106.5t-110.5 272.5zM145 453 l25 -4q-6 -37 -6 -72q0 -141 94 -234.5t252 -94.5t301 120q176 150 176 360q0 141 -94 234.5t-252 94.5t-300 -120t-171 -288zM438 1147l27 -4q-4 -14 -4 -41q0 -80 53 -133.5t144.5 -54.5t184.5 79t93 199q-2 82 -54.5 134t-143.5 53t-175 -69.5t-98 -166.5z" />
<glyph unicode="9" horiz-adv-x="1314" d="M135 897q0 45 8 80q33 192 191 325.5t340 134.5t293.5 -111t111.5 -277v-37q-29 -358 -217 -643q-227 -350 -588 -365h-2q-23 0 -26 25q0 27 26 26q332 14 547 342q102 158 158 348q-80 -109 -197.5 -172t-267.5 -64t-263.5 110.5t-113.5 277.5zM168 973l27 -4 q-6 -37 -7 -72q0 -145 95.5 -240.5t257 -96.5t307.5 122q180 154 180 367q0 145 -95 240t-257 96t-307.5 -121.5t-173.5 -294.5z" />
<glyph unicode=":" horiz-adv-x="491" d="M185 70.5q5 29.5 31 51t55.5 21.5t48 -21.5t13.5 -51t-31 -51t-55.5 -21.5t-48 21.5t-13.5 51zM378 1154q5 30 29.5 51.5t55.5 21.5t48 -21.5t12 -51.5t-30.5 -51.5t-55 -21.5t-47 21.5t-12.5 51.5z" />
<glyph unicode=";" horiz-adv-x="491" d="M121 -89.5q0 23.5 24 28.5q68 16 93 73q-12 -6 -34 -6t-42.5 24.5t-16.5 59.5q6 35 36 59.5t62.5 24.5t52 -18.5t19.5 -44.5l4 -2q-6 -31 -6 -37q-8 -55 -46 -109.5t-117 -75.5h-9q-20 0 -20 23.5zM367 1346q8 35 36.5 59.5t64.5 24.5t55.5 -25t14 -59.5t-35 -60 t-65.5 -25.5t-55.5 24.5t-14.5 61.5z" />
<glyph unicode="&#x3c;" horiz-adv-x="1269" d="M123 717v4q2 4 2 8t2 4t3 2t1 4t2 2l803 686q23 20 43 -4t-4 -43l-778 -665l540 -664q18 -25 -4 -43q-8 -8 -20.5 -8t-22.5 12l-561 686l-4 9v2q-2 2 -2 8z" />
<glyph unicode="=" horiz-adv-x="1269" d="M162 393q0 25 28 25h713q29 0 29 -25q0 -12 -9.5 -20t-19.5 -8h-713q-29 0 -28 28zM237.5 822.5q0.5 25.5 28.5 25.5h711q31 0 31 -25.5t-31 -25.5h-711q-29 0 -28.5 25.5z" />
<glyph unicode="&#x3e;" horiz-adv-x="1269" d="M195 16q-20 20 2 43l780 666l-543 664q-20 25 6 43q20 18 43 -5l559 -686l5 -8l2 -2v-16q-2 -2 -2 -6l-3 -4l-806 -693q-12 -8 -24.5 -8t-18.5 12z" />
<glyph unicode="?" horiz-adv-x="1093" d="M84 1221q74 98 182.5 155.5t225.5 57.5q160 0 263 -103.5t103 -259.5q0 -215 -176 -371q-139 -123 -313 -131l-45 -254q-4 -20 -25 -20h-4q-25 4 -19 29l46 264q2 2 2 4q0 25 24 24q160 0 293 115t162 275q6 33 6 65q0 135 -88 223t-211 89t-221.5 -52t-165.5 -141 q-16 -20 -34.5 -5t-4.5 36zM223 29l8 47q2 10 11.5 15t17.5 3q25 -4 21 -26l-9 -48q-4 -20 -24 -20h-4q-25 4 -21 29z" />
<glyph unicode="@" horiz-adv-x="2007" d="M178 717q35 195 160 359.5t307 261t377 96.5q297 0 470 -210t120 -507q-33 -188 -142 -332q-41 -57 -73 -78q-100 -68 -161.5 -67.5t-84.5 43.5t-16 88v2l26 151q-61 -82 -149 -130t-183 -48q-145 0 -228 108.5t-56 262.5q29 154 149.5 262t267 108t229.5 -108.5 t56 -261.5q-4 -12 -4 -21v-4l-57 -315h2q-8 -33 8 -58.5t41 -25.5q98 0 184 106l13 15q100 141 127 303q47 274 -113 468.5t-434 196.5q-276 -2 -504.5 -196.5t-278 -469t111.5 -469t435 -196.5q76 0 168 21q25 6 29 -19q0 -25 -25 -30q-94 -23 -180 -23q-297 0 -471 210 t-121 507zM597 717q-24 -133 48 -226.5t195 -93.5t227 93.5t127 226.5q25 133 -47 226t-195 93t-227 -93t-128 -226z" />
<glyph unicode="A" horiz-adv-x="1323" d="M121 37l762 1382q10 16 26 13q20 4 27 -21l274 -1380q4 -27 -20 -31h-4q-23 0 -27 20l-72 365h-716l-205 -373q-10 -12 -21.5 -12t-15.5 2q-23 14 -8 35zM399 436h678l-180 901z" />
<glyph unicode="B" horiz-adv-x="1216" d="M215 25l244 1382q4 25 28 20l2 3h324q131 0 212 -83t81 -206q0 -18 -4 -60q-18 -96 -79.5 -175t-150.5 -122q96 -20 166 -88q94 -94 95 -237q0 -205 -170 -348q-135 -115 -299 -115h-428q-25 4 -21 29zM270 47h394q143 0 266 105q151 129 151 307q-2 123 -80.5 201.5 t-205.5 78.5h-402zM403 795h299h5q119 0 219 86q102 88 125 209q4 37 4 51q-2 102 -68.5 168.5t-173.5 66.5h-307z" />
<glyph unicode="C" horiz-adv-x="1472" d="M150 594q0 70 10 123q51 295 302 502.5t556 210.5q258 0 432 -158q20 -18 3 -38t-38 -1q-156 143 -397 143h-6q-282 0 -516 -196q-238 -198 -285 -473q-10 -61 -10 -113q0 -236 160.5 -391.5t407.5 -155.5t458 146q20 14 37 -7q14 -22 -9 -36q-225 -154 -488 -154 t-443 170q-174 170 -174 428z" />
<glyph unicode="D" horiz-adv-x="1472" d="M217 25l242 1382q6 20 26 20q0 2 2 3h275q260 0 433 -171.5t173 -424.5q0 -63 -12 -127q-53 -295 -297 -503t-541 -208h-280q-10 2 -17.5 11t-3.5 18zM272 47h246q274 0 506.5 196.5t280.5 473.5q10 49 10 117q0 233 -154.5 387.5t-398.5 154.5h-254z" />
<glyph unicode="E" horiz-adv-x="1214" d="M215 31l244 1382q4 25 28 21q0 2 2 2h760q27 0 27 -27t-27 -27h-743l-113 -639h645q27 0 27 -25.5t-27 -25.5h-653l-113 -639h734q27 0 26.5 -25.5t-26.5 -25.5h-770q-25 4 -21 29z" />
<glyph unicode="F" horiz-adv-x="1228" d="M215 27l244 1382q6 25 28 21l2 2h760q27 0 27 -27t-27 -27h-741l-113 -639h645q25 0 25 -25.5t-25 -25.5h-655l-119 -670q-4 -20 -24 -20h-4q-27 4 -23 29z" />
<glyph unicode="G" horiz-adv-x="1638" d="M150 598q0 57 12 123q35 195 161 358.5t310 259t385 95.5q256 0 434 -158q18 -18 2 -37q-20 -18 -37 -2q-160 143 -399 143h-6q-281 0 -516 -196q-236 -197 -283 -473q-10 -47 -10 -113q0 -236 159.5 -391.5t404.5 -155.5t454 142l82 466h-424q-25 0 -25 26t25 26h458 q27 -4 23 -31l-90 -506q0 -2 -4.5 -10t-8.5 -10q-225 -154 -490 -154t-441 171t-176 427z" />
<glyph unicode="H" horiz-adv-x="1556" d="M215 29l244 1382q4 25 29.5 20.5t21.5 -30.5l-117 -660h809l4 -2l119 672q4 25 29.5 20.5t21.5 -30.5l-243 -1381q-4 -23 -27 -22h-4q-25 6 -21 31l117 659h-815l-117 -668q-4 -23 -26 -22h-4q-25 6 -21 31z" />
<glyph unicode="I" horiz-adv-x="624" d="M229 29l244 1382q4 25 29.5 20.5t21.5 -30.5l-243 -1381q-4 -23 -27 -22h-4q-25 6 -21 31z" />
<glyph unicode="J" horiz-adv-x="1216" d="M88 336q-4 27 21.5 31t29.5 -23q18 -129 113.5 -210t236.5 -81h5q173 0 321 125q150 127 180 305l164 930q4 25 29.5 21t21.5 -31l-163 -930q-35 -197 -197 -334t-361 -139h-2q-158 0 -268 95t-131 241z" />
<glyph unicode="K" horiz-adv-x="1464" d="M215 33l244 1382q6 25 24 23q33 -6 27 -33l-162 -920l1110 945q20 18 37.5 -2.5t-2.5 -36.5l-694 -590l491 -758q12 -23 -2 -32t-24.5 -9t-18.5 12l-487 752l-416 -352l-6 -6l-70 -383q-4 -23 -24 -23h-4q-27 8 -23 31z" />
<glyph unicode="L" horiz-adv-x="1267" d="M215 35l244 1382q4 25 29.5 21t21.5 -31l-238 -1352h734q27 0 26.5 -25.5t-26.5 -25.5h-768q-27 8 -23 31z" />
<glyph unicode="M" horiz-adv-x="1777" d="M215 27l244 1382q6 20 26 21h4q16 0 23 -13l414 -762l686 766q8 8 22 9h6q25 -4 21 -31l-244 -1381q-4 -23 -24 -22h-7q-25 6 -20 31l229 1298l-651 -727q-8 -8 -20 -8h-6q-16 0 -23 12l-395 729l-234 -1313q-4 -23 -24 -22h-4q-27 8 -23 31z" />
<glyph unicode="N" horiz-adv-x="1617" d="M217 35l242 1374q0 14 14 27q25 12 35 -11l717 -1319l229 1303q6 25 25 21q33 -4 26 -29l-241 -1374q-4 -23 -25 -23h-6q-10 2 -15.5 9t-5.5 9.5t-2 2.5l-712 1310l-232 -1308q-4 -23 -24 -23h-4q-27 8 -21 31z" />
<glyph unicode="O" horiz-adv-x="1740" d="M150 588q0 63 12 131q53 297 285.5 505t496.5 208t422 -170q158 -164 158 -418q0 -78 -11 -133q-53 -295 -285.5 -503t-512.5 -210q-248 0 -406.5 167t-158.5 423zM201 588q2 -233 145 -385t369 -154q258 0 478 197t269 473q10 72 11 125q0 231 -144.5 382.5 t-370.5 153.5h-2q-258 0 -477 -196.5t-266 -472.5q-12 -63 -12 -123z" />
<glyph unicode="P" horiz-adv-x="1193" d="M217 35l244 1380q4 25 24 21l2 2h418q143 0 240.5 -95.5t97.5 -238.5q0 -205 -170 -348q-135 -115 -299 -115h-399l-107 -616q-6 -20 -26 -21h-4q-10 2 -16.5 11.5t-4.5 19.5zM385 692h389q143 0 266 103q152 131 152 309q-2 123 -81 201.5t-206 78.5h-397z" />
<glyph unicode="Q" horiz-adv-x="1728" d="M205 725q53 301 291.5 515t522.5 214t447 -214q123 -163 123 -377q0 -68 -12 -140q-39 -221 -189.5 -402.5t-353.5 -267.5l-323 -137q119 0 202 -55q170 -115 316.5 -115t302.5 115q25 12 39 -6q6 -23 -12 -39q-176 -121 -338 -121t-342 119q-76 51 -180.5 51t-200.5 -45 l-21 -6q-16 -10 -26 2q-6 2 -11 12q-4 31 19 37l319 135h-16q-285 0 -448 212q-122 160 -122 370q0 69 13 143zM258 725q-12 -69 -12 -133q0 -196 114 -344q150 -197 411 -197t481.5 196.5t273.5 475.5q11 67 11 130q0 200 -115 349q-150 197 -412 197t-482.5 -196.5 t-269.5 -477.5z" />
<glyph unicode="R" horiz-adv-x="1280" d="M186 33l244 1380q4 23 27 23h417q147 0 244 -97q96 -92 96 -249.5t-129 -294.5q-98 -106 -229 -142q14 -6 47 -22q158 -98 158 -262q0 -29 -10.5 -86.5t-10.5 -132t31 -74.5h4q23 8 31 -19q10 -35 -35 -34q-33 0 -57.5 32.5t-24.5 103t9.5 123t9.5 87.5q0 109 -75 175 t-169 89q-8 2 -14.5 4t-8.5 2h-395l-108 -616q-4 -20 -25 -21h-6q-25 4 -21 31zM354 690h389q145 0 269 105q149 126 149 305q0 125 -80 203.5t-207 78.5h-397z" />
<glyph unicode="S" horiz-adv-x="1366" d="M141 203q-14 14 2.5 31.5t32.5 5.5q82 -80 202 -137.5t255 -57.5q199 0 353 99q154 100 176 233q4 22 3 43q0 105 -94 178q-111 82 -323 121l-5 2q-213 41 -313 119q-103 78 -103 190q1 24 5 50q26 146 185 249t355 103q86 0 169 -29t129.5 -58.5t111.5 -78.5 q18 -10 2 -31q-18 -18 -35 -8q-66 49 -108.5 76.5t-119.5 55t-157 27.5q-178 0 -322 -93t-164 -215q-4 -21 -3 -40q1 -96 83 -158q100 -76 302 -114l4 -2q225 -43 340 -129q109 -79 109 -200q1 -27 -5 -56q-30 -160 -200 -270.5t-383 -110.5q-265 0 -484 205z" />
<glyph unicode="T" horiz-adv-x="1327" d="M102 1400.5q0 26.5 25 26.5h999q25 0 25 -26.5t-25 -26.5h-477l-239 -1360q-6 -20 -27 -20h-4q-10 2 -16.5 11t-4.5 20l238 1349h-469q-25 0 -25 26.5z" />
<glyph unicode="U" horiz-adv-x="1667" d="M215 473q0 57 8 100l148 834q4 27 30 23q25 -8 21 -31l-148 -834q-8 -41 -8 -92q2 -184 123 -304t325 -121h3q203 0 383 154q182 154 219 371l147 834q4 27 31 23q25 -6 21 -31l-148 -834q-41 -238 -236.5 -403.5t-421 -165.5t-361.5 136t-136 341z" />
<glyph unicode="V" horiz-adv-x="1536" d="M117 1403q-4 27 20 31q23 6 31 -19l324 -1321l792 1329q14 23 36.5 8.5t8.5 -34.5l-825 -1383l-8 -8l-9 -4h-14l-2 2q-2 0 -2 2h-2q-10 10 -10 14z" />
<glyph unicode="W" horiz-adv-x="2256" d="M125 1401q-4 27 18 31q25 8 33 -19l324 -1321l571 959q10 16 27 12q20 4 28 -19l232 -952l794 1329q12 25 35 9.5t8 -35.5l-825 -1383l-6 -6v-2l-10 -4h-13q-2 2 -4 2t-2 2h-2q-4 4 -4 6h-2q-4 4 -4 8l-236 959l-575 -965l-8 -8l-8 -4h-15l-2 2q-2 0 -10 8h-2q0 4 -4 8z " />
<glyph unicode="X" horiz-adv-x="1478" d="M160 2q-18 18 0 37l612 678l-373 674q-14 23 9.5 36t35.5 -12l365 -659l604 665q14 16 37 2q18 -18 0 -37l-614 -677l374 -674q14 -20 -10 -37q-4 -2 -16.5 -2t-18.5 12l-366 660l-602 -664q-6 -8 -17.5 -8t-19.5 6z" />
<glyph unicode="Y" horiz-adv-x="1236" d="M119 1391q-14 23 10 34q25 16 35 -10l368 -663l609 669q18 18 36.5 1t2.5 -36l-627 -692h-2l-119 -678q-4 -20 -24 -20h-7q-25 4 -20 31l119 675z" />
<glyph unicode="Z" horiz-adv-x="1366" d="M145 18v11q0 4 2 6l5 8l1214 1337h-952q-25 0 -25 27t25 27h1009q4 0 4 -2h7l8 -5v-2l6 -8v-4q2 -2 2 -6v-4q0 -4 -2 -4q0 -2 -2 -6l-1217 -1342h953q25 0 24.5 -25.5t-24.5 -25.5h-1012q-14 0 -14 3t-2 3l-7 8q0 4 -2 4z" />
<glyph unicode="[" horiz-adv-x="880" d="M205 -213l282 1593q2 20 20.5 37t41.5 17h475q37 0 33 -29q-4 -20 -41 -21h-477l-283 -1601h477q16 0 25.5 -6t6.5 -24.5t-40 -18.5h-475q-20 0 -34.5 15t-10.5 38z" />
<glyph unicode="\" horiz-adv-x="1024" d="M23 1397q-8 25 16 33q8 4 18.5 -0.5t14.5 -14.5l579 -1376q11 -25 -12 -35q-2 -2 -15.5 -2t-17.5 16z" />
<glyph unicode="]" horiz-adv-x="880" d="M115 -238q4 20 41 21h477l282 1601h-477q-16 0 -25.5 6.5t-6 25t39.5 18.5h476q20 0 34.5 -15.5t10.5 -38.5l-283 -1593q-2 -20 -20.5 -36.5t-40.5 -16.5h-476q-37 0 -32 28z" />
<glyph unicode="_" horiz-adv-x="1228" d="M-43 -293q6 35 51 35h684q20 0 30.5 -8t8.5 -27q-8 -35 -53 -35h-684q-20 0 -30.5 8.5t-6.5 26.5z" />
<glyph unicode="`" horiz-adv-x="1024" d="M340 1450q0 31 35 31t59 -37l127 -191q8 -12 8 -24t-23.5 -2t-39.5 28l-146 158q-27 27 -20 37z" />
<glyph unicode="a" horiz-adv-x="1267" d="M82 414q0 51 8 94q37 205 198 348t355 143h11q165 0 274 -118q61 -63 88 -156l47 254q4 27 29 20q25 -4 20 -28l-166 -944q-4 -20 -24 -21h-4q-27 4 -21 29l41 237q-80 -121 -204 -193.5t-259 -74.5q-174 0 -282 121q-111 115 -111 289zM133 414q2 -156 96.5 -256.5 t256.5 -101.5h3q161 0 310 132q186 168 186 404q0 156 -95 256t-247 100h-2q-172 0 -319.5 -132t-180.5 -318q-8 -39 -8 -84z" />
<glyph unicode="b" horiz-adv-x="1351" d="M195 29l81 475l164 909q6 25 32 21t20 -29l-121 -674q84 123 210 196.5t265 76.5q178 0 295 -123q114 -114 114 -290q0 -36 -8 -97l-26 6l26 -6q-37 -205 -201 -350q-166 -144 -356 -145h-3q-188 0 -302 120q-63 63 -96 157l-45 -256q-4 -20 -25 -20h-4q-27 4 -20 29z M322 414q2 -158 101 -260.5t266 -103.5h2q166 0 319 134q192 167 192 402q0 158 -99 260t-257 102h-2q-178 0 -330 -133t-184 -321q-8 -35 -8 -80z" />
<glyph unicode="c" horiz-adv-x="1169" d="M119 418q0 39 6 86q39 207 213 351t387 144h6q172 0 297 -110q20 -16 2 -34.5t-37 -2.5q-109 96 -268 96h-6q-190 0 -348 -133q-201 -166 -201 -397q0 -160 108.5 -264.5t275.5 -104.5t310 98q20 14 37 -6q14 -23 -8 -37q-157 -109 -340 -109q-1 1 -2 1q-184 0 -308 120 t-124 302z" />
<glyph unicode="d" horiz-adv-x="1351" d="M123 412q0 31 8 92q37 207 204 352t357 146q2 0 4 1q186 0 301 -122q66 -63 95 -158l127 690q4 25 29.5 21t21.5 -29l-250 -1389q-4 -20 -25 -20h-6q-25 4 -20 29l41 241q-80 -123 -208 -196.5t-267 -75.5q-180 0 -296 119.5t-116 298.5zM176 412q0 -158 100.5 -261.5 t268.5 -104.5h2q167 0 319 134q152 135 187 324q8 35 8 82q-2 158 -100.5 260t-268.5 103h-2q-168 0 -321 -134q-193 -168 -193 -403z" />
<glyph unicode="e" horiz-adv-x="1247" d="M119 416q0 51 8 90q37 207 203 351q166 143 354 145q2 0 5 1q185 0 298 -120q115 -115 115 -295q0 -47 -4 -64q-8 -18 -25 -18h-893q-10 -20 -10 -90q0 -158 100.5 -260.5t257.5 -102.5q111 0 217.5 55.5t182.5 149.5q14 18 37 4q18 -18 4 -37q-182 -221 -441 -225 q-180 0 -295 121q-114 115 -114 295zM193 557h856q2 10 2 31q0 157 -99.5 259.5t-260.5 103.5h-3q-159 -1 -301 -113q-143 -114 -194 -281z" />
<glyph unicode="f" horiz-adv-x="741" d="M135 983q4 27 31 27h164l24 135q27 154 99.5 221.5t201.5 67.5q27 0 23 -25q-8 -27 -31 -27q-106 0 -161.5 -51t-77.5 -186l-25 -135h172q10 0 16.5 -8.5t3.5 -18.5q-4 -27 -30 -27h-172l-164 -929q-4 -27 -29.5 -27t-21.5 27l164 929h-164q-27 0 -23 27z" />
<glyph unicode="g" horiz-adv-x="1351" d="M125 410q0 51 8 94q37 205 198 350t346 146h3q183 0 293 -119q63 -66 92 -156l45 254q2 10 11 16t20 4q25 -4 20 -28l-84 -475v-2l-80 -443q-35 -195 -195.5 -332t-355.5 -137q-111 0 -198 49q-25 12 -10 35q10 23 34 10q82 -43 174 -43q176 0 322.5 125t177.5 301 l37 209q-82 -123 -205 -195.5t-258 -72.5h-5q-163 0 -279 117q-111 119 -111 287v6zM176 410q0 -156 96.5 -257.5t259.5 -102.5h2q161 0 310 132q188 170 188 406q0 156 -96 258t-248 102h-2q-174 0 -321.5 -133t-180.5 -321q-8 -39 -8 -84z" />
<glyph unicode="h" d="M193 27l243 1382q4 25 30 20.5t21 -30.5l-104 -598q70 92 172 147.5t213 55.5q152 0 250 -99q96 -92 96 -241q0 -35 -6 -72l-102 -574q-4 -23 -25 -22h-6q-25 4 -21 31l103 575q6 31 6 62q-2 125 -84 205.5t-220 81.5h-3q-137 1 -260 -105q-125 -106 -150 -254l-102 -574 v-4q-2 -2 -2 -5t-4 -3q0 -4 -5 -4q-6 -6 -12 -6h-8q-25 4 -20 31z" />
<glyph unicode="i" horiz-adv-x="575" d="M195 31l165 954q8 27 31 19q27 -4 21 -29l-166 -955q-4 -20 -25 -20h-6q-25 8 -20 31zM408 1243l10 49q4 25 29.5 21t21.5 -31l-10 -49q-5 -21 -25 -21h-6q-25 4 -20 31z" />
<glyph unicode="j" horiz-adv-x="509" d="M-10 -375q0 10 8 19.5t18 9.5h5q38 0 73 30q37 31 45 72l215 1227q6 25 31 20.5t21 -30.5l-220 -1223q-10 -61 -60 -104t-110 -43q-27 0 -26 22zM406 1241l10 45q0 10 10 17.5t20 5.5q23 -4 19 -29l-10 -49q0 -20 -23 -21h-8q-23 4 -18 31z" />
<glyph unicode="k" horiz-adv-x="1146" d="M193 37l243 1382q4 25 30 21t21 -31l-186 -1055l772 658q17 16 37 -2q18 -20 -2 -37l-494 -420l328 -506q14 -20 -6 -37q-12 -4 -21.5 -4t-15.5 12l-326 502l-278 -237q-4 -4 -8 -4l-43 -250q-4 -23 -27 -23h-4q-25 4 -20 31z" />
<glyph unicode="l" horiz-adv-x="509" d="M209 29l244 1382q4 25 29.5 20.5t21.5 -30.5l-244 -1381q-4 -23 -27 -22h-4q-10 2 -16 11t-4 20z" />
<glyph unicode="m" horiz-adv-x="1947" d="M193 31l102 573v2l65 375q6 25 31 20.5t21 -30.5l-31 -168q70 90 172 144t211 54q147 0 248 -96q66 -72 86 -162q63 115 177 186.5t251 71.5t237 -96q96 -96 97 -239q0 -33 -7 -70l-100 -576q-4 -20 -27 -20h-4q-25 4 -20 31l100 573q6 35 6 62q0 123 -80 202 q-80 80 -218 81h-3q-136 1 -258 -101q-123 -102 -149 -246q0 -4 -2 -6l-99 -576q-2 -14 -18 -18q-2 -2 -4 -2h-8q-25 4 -21 31l99 573q6 6 6 62q0 125 -80 204q-79 78 -217 79h-3q-135 -1 -257 -103q-122 -104 -150 -248l-102 -578q0 -4 -4 -8v-2q-11 -10 -19 -10h-6 q-27 4 -22 31z" />
<glyph unicode="n" d="M193 27l102 577v2l65 375q4 25 30 20.5t22 -30.5l-31 -168q70 90 172 144t230 54t231 -96q94 -94 94 -241q0 -31 -6 -68l-98 -580q-4 -20 -29 -20h-4q-25 4 -21 31l103 577q6 31 6 60q0 125 -82 204q-83 80 -221 81h-2q-138 1 -260 -103q-124 -104 -150 -250l-100 -580 q0 -10 -6 -10q0 -4 -5 -4q-6 -6 -12 -6h-8q-25 4 -20 31z" />
<glyph unicode="o" horiz-adv-x="1280" d="M143 414q0 51 9 92q37 207 198.5 352.5t347 145.5t297 -118t111.5 -296q0 -51 -8 -92l-25 4l25 -4q-37 -207 -199 -351.5t-347 -145.5h-3q-183 0 -295 118q-111 121 -111 295zM195 414q0 -158 96 -259.5t260 -102.5h2q163 0 311 134q150 134 183 320q8 39 8 84 q-2 158 -98.5 260t-247.5 102h-2q-174 0 -322.5 -134t-181.5 -320q-8 -39 -8 -84z" />
<glyph unicode="p" horiz-adv-x="1351" d="M193 -410l161 920v2l82 469q4 25 31 20.5t22 -30.5l-43 -236q82 121 208 193.5t264 72.5q178 0 291.5 -118.5t113.5 -290.5q0 -29 -8 -90q-37 -205 -202 -348.5t-351 -144.5h-4q-184 0 -299 120q-63 63 -92 156l-123 -703q-4 -23 -27 -22q-2 0 -4 2q-25 4 -20 28z M397 422q2 -156 100.5 -258.5t264.5 -103.5h2q165 0 315 133q190 166 191 399q0 156 -98.5 256t-253.5 100h-3q-178 0 -328.5 -131t-180.5 -315q-8 -35 -9 -80z" />
<glyph unicode="q" horiz-adv-x="1351" d="M123 418q0 258 209 438q164 143 352 143t299 -116q63 -61 94 -158l45 254q4 25 30 20.5t22 -28.5l-82 -471h-2l-162 -920q-4 -23 -27 -22q-2 0 -4 2q-25 4 -20 28l118 686q-80 -121 -204.5 -194.5t-264.5 -73.5q-176 0 -289.5 119t-113.5 293zM156 504l24 -4 q-6 -41 -6 -82q0 -154 99.5 -256.5t265.5 -103.5h3q164 0 314 130q190 170 191 402q0 156 -99.5 257t-265.5 102h-2q-165 0 -316 -132q-151 -133 -184 -317z" />
<glyph unicode="r" horiz-adv-x="899" d="M193 27l167 952q4 27 31 22q25 -6 21 -30l-58 -326q242 356 520 356q27 0 27 -25.5t-27 -25.5q-88 0 -173 -40t-150 -107q-121 -121 -189 -242l-34 -69l-84 -474q-4 -20 -25 -20h-6q-25 4 -20 29z" />
<glyph unicode="s" horiz-adv-x="1007" d="M115 145q-18 14 3 36t36 3q135 -131 307 -131q133 0 233 68q100 63 116 150q3 16 2 30q0 67 -58 111q-72 54 -222 84h-2q-147 31 -217 84q-73 54 -73 134q0 18 4 38q20 106 131.5 179t249.5 73q59 0 117.5 -20.5t88 -40t78.5 -54.5q20 -16 2 -37t-37 -6q-45 33 -75 51 q-88 55 -194.5 55t-202 -61.5t-107.5 -136.5q-3 -14 -2 -28q0 -130 254 -179h4q164 -35 237 -90q78 -61 77 -148q0 -17 -3 -37q-20 -112 -141 -191t-268 -79q-186 0 -338 143z" />
<glyph unicode="t" horiz-adv-x="819" d="M90 979q4 25 29 25h172l71 407q4 25 30 25t22 -25l-70 -407h164q27 0 22 -25q-8 -27 -30 -27h-166l-141 -792q-1 -9 -1 -17q0 -34 20 -58q24 -30 69 -30q25 0 20.5 -26.5t-31.5 -26.5q-66 0 -102 46q-29 36 -29 85q0 13 2 27l142 792h-172q-10 0 -16.5 8.5t-4.5 18.5z " />
<glyph unicode="u" d="M170 336q0 39 8 72l101 571q4 27 30 22q25 -8 21 -30l-103 -572q-4 -23 -4 -63q0 -125 81 -205t218 -81h3q136 0 257 104q123 106 148 254l102 571q4 26 29 22q27 -8 22 -30l-102 -572q-29 -166 -165 -282.5t-296 -116.5t-252 96q-98 98 -98 240z" />
<glyph unicode="v" horiz-adv-x="1191" d="M111 969q-4 27 20 30q23 8 31 -18l217 -887l532 895q14 20 37 7t8 -33l-565 -949q-4 -6 -6 -6v-2q-8 -4 -10 -4h-13q-2 0 -2 1t-2 1t-2 2t-2 2t-6 4l-4 8z" />
<glyph unicode="w" horiz-adv-x="1763" d="M121 967q-4 27 20 30q23 8 31 -18l217 -891l385 643q10 16 27 12q23 0 24 -18l158 -637l537 899q12 25 34.5 9.5t8.5 -35.5l-570 -953q0 -4 -6 -6v-2l-8 -4h-14l-13 8q0 2 -2 2l-4 8l-155 643l-390 -649l-6 -6v-2l-8 -4h-14q-2 2 -4 2t-2 2l-7 6h-2q-2 2 -2 4t-2 4z" />
<glyph unicode="x" horiz-adv-x="1167" d="M145 43l420 459l-252 459q-14 23 11 34q18 12 34 -10l244 -444l404 450q18 18 36.5 1t1.5 -36l-415 -458l252 -461q10 -20 -11 -35q-4 -2 -16 -2t-18 12l-244 445l-408 -449q-6 -8 -17 -8t-20 6q-18 18 -2 37z" />
<glyph unicode="y" horiz-adv-x="1204" d="M113 -332q10 23 34 10q78 -43 177 -43h5q173 0 319 124q147 126 175 302l27 142q-68 -92 -169 -146.5t-230 -55.5h-3q-127 0 -225 97q-98 94 -98 240q0 37 8 70l100 573q6 25 31 20.5t21 -28.5l-101 -574q-6 -35 -6 -61q0 -125 81 -205t217 -81h3q134 0 257 104 q124 106 149 252l102 573q6 25 23 23q33 -6 26 -31l-162 -920q-35 -197 -194.5 -333t-355.5 -138q-106 0 -201 49q-20 14 -10 37z" />
<glyph unicode="z" horiz-adv-x="1134" d="M125 23q0 2 1 2t1 2v6l4 4q0 2 2 4l825 911h-639q-27 0 -26.5 26t26.5 26h699q2 0 4 -3h4q2 0 6 -4h2v-2q4 0 4 -4l2 -4q2 0 2 -4v-10q0 -4 -2 -6l-2 -4l-829 -914h641q25 0 24.5 -25.5t-24.5 -25.5h-698q-12 0 -13 4q-4 0 -4 2h-2l-6 12v7h-2z" />
<glyph unicode="{" horiz-adv-x="983" d="M117 557q6 39 55 39q150 0 216.5 64.5t88.5 195.5l29 162q20 115 63 186q92 164 420 226q14 2 23 2q23 0 18 -21q-4 -18 -31 -27q-225 -57 -317 -140t-119 -238l-28 -154q-23 -129 -88.5 -195.5t-176.5 -99.5q104 -37 144.5 -101.5t17.5 -193.5l-29 -153 q-27 -158 36 -240t270 -139q23 -10 18 -29q-4 -24 -45 -16q-236 49 -303.5 144t-36.5 267l29 162q23 131 -19.5 195.5t-191.5 64.5q-49 0 -43 39z" />
<glyph unicode="|" horiz-adv-x="585" d="M252 -229l321 1822q8 31 15.5 38t19.5 7q35 0 25 -45l-322 -1822q-8 -45 -37.5 -45t-21.5 45z" />
<glyph unicode="}" horiz-adv-x="983" d="M113 -299q4 18 30 27q225 57 317.5 140t119.5 238l28 154q23 129 88.5 195.5t175.5 99.5q-104 37 -144 101.5t-17 193.5l28 154q27 158 -35.5 239.5t-269.5 138.5q-23 10 -18 29q4 24 45 16q236 -49 303 -144t37 -267l-29 -162q-23 -131 19.5 -195.5t191.5 -64.5 q49 0 43 -39t-55 -39q-150 0 -216.5 -64.5t-88.5 -195.5l-29 -162q-20 -115 -64 -188q-92 -162 -419 -223q-14 -2 -23 -2q-23 0 -18 20z" />
<glyph unicode="~" horiz-adv-x="942" d="M174 520q0 4 11.5 40t60.5 74t90 38t135 -39t129 -39q63 0 102 88q0 16 9.5 25.5t17.5 9.5q37 0 37 -35q0 -12 -4 -25q-45 -139 -162 -139q-37 0 -131 40t-131 40q-63 0 -98 -80q-12 -25 -33 -24q-33 0 -33 26z" />
<glyph unicode="&#xa1;" horiz-adv-x="516" d="M195 35l186 1067q4 20 27 20h4q10 -2 16 -11t4 -19l-186 -1065q-6 -25 -23.5 -22t-25 12.5t-2.5 17.5zM428 1368l10 49q4 23 25 23q4 0 4 -2q27 -4 22 -29l-10 -49q-3 -27 -28 -23q-27 8 -23 31z" />
<glyph unicode="&#xa2;" horiz-adv-x="1189" d="M127 590q0 233 184 409q147 137 338 166l29 129q10 45 35 45q37 0 24 -45l-28 -123h24q176 2 303 -110q20 -16 2 -34.5t-37 -2.5q-109 96 -268 96q-25 0 -35 -2l-200 -893q41 -4 67 -4q164 0 307 98q20 14 37 -6q14 -23 -8 -37q-158 -109 -336 -108q-43 0 -80 6l-28 -129 q-8 -45 -38 -45t-22 45l31 141q-102 27 -178 103q-123 119 -123 301zM178 590q0 -127 70.5 -222.5t191.5 -129.5l197 874q-168 -33 -297 -158q-162 -159 -162 -364z" />
<glyph unicode="&#xa3;" horiz-adv-x="1318" d="M137 -2q4 18 29 20l162 19l135 600h-135q-41 0 -43 7t0 15q6 29 55 29h135l60 262q53 240 217 371q145 119 333 119q246 0 367 -191q12 -20 5 -38.5t-11 -19.5t-8 -1l-23 2q-14 0 -24.5 23.5t-12.5 25.5q-98 152 -305 152q-74 0 -155.5 -30t-140 -77t-115 -142 t-76.5 -192l-60 -264h623q25 0 36 -5t8 -17.5t-5 -16.5t-4 -6q-10 -6 -17 -6h-653l-135 -600l778 -2q43 0 45 -15v-10q-6 -25 -55 -24h-1000q-10 0 -10 12z" />
<glyph unicode="&#xa5;" horiz-adv-x="1404" d="M111 389q8 33 39 33h323l51 254h-323q-29 0 -25 24q8 31 37 31h301l-342 660q-16 20 12 34q23 16 35 -4l348 -669l625 669q23 18 40 3t-1 -33l-621 -660h303q12 0 19.5 -9t5.5 -22q-4 -25 -37 -24h-326l-51 -254h326q12 0 19.5 -10.5t2.5 -22.5q-4 -27 -34 -27h-326 l-70 -335q-8 -27 -30 -27q-10 0 -16.5 8.5t-4.5 18.5l70 335h-324q-31 0 -26 27z" />
<glyph unicode="&#xa8;" horiz-adv-x="1024" d="M272 1304.5q4 28.5 25.5 49t50.5 20.5t47.5 -20.5t14.5 -50t-26 -49t-50.5 -19.5t-47 20.5t-14.5 49zM645 1304.5q4 28.5 25.5 49t50.5 20.5t47 -20.5t15 -49t-25.5 -49t-51 -20.5t-47 20.5t-14.5 49z" />
<glyph unicode="&#xa9;" horiz-adv-x="1699" d="M109 713v4q0 305 217 523t526 218t524 -216t215 -521v-4q0 -305 -217 -523.5t-526 -218.5t-524 216.5t-215 521.5zM170 713q0 -283 194.5 -481.5t483.5 -198.5t485.5 199.5t196.5 484.5v4q0 283 -194.5 481.5t-483.5 198.5t-485.5 -200t-196.5 -484v-4zM485 725v4 q0 158 108.5 272.5t261.5 114.5t269 -102q18 -14 18.5 -35t-13 -33t-30 -12t-34.5 14q-100 86 -214 86t-195 -89t-81 -214v-4q0 -125 83 -215t201 -90t218 90q16 10 30.5 10t27 -12t12.5 -30.5t-14 -28.5q-127 -111 -280 -111t-260.5 112.5t-107.5 272.5z" />
<glyph unicode="&#xad;" horiz-adv-x="835" d="M135.5 716.5q-0.5 20.5 20.5 20.5h467q18 0 18 -20.5t-18 -20.5h-467q-20 0 -20.5 20.5z" />
<glyph unicode="&#xae;" horiz-adv-x="851" d="M70 1094v2q0 147 104.5 252.5t252.5 105.5t251.5 -104.5t103.5 -251.5v-2q0 -148 -104.5 -253.5t-253 -105.5t-251.5 104.5t-103 252.5zM90 1094q0 -142 96.5 -240t238.5 -98t239.5 99t97.5 241v2q0 141 -96.5 239.5t-238.5 98.5t-239.5 -99.5t-97.5 -240.5v-2zM285 872 q0 -10 9 -10t9 10v197h125q6 -2 29.5 -8t42.5 -27q32 -24 32 -69q0 -94 39 -95q10 0 11 11q-4 6 -11 6q-20 0 -20 70.5t-62 105.5q-10 6 -24 10q41 12 66.5 46t25.5 83t-37 87t-90 38h-137q-8 0 -8 -8v-447zM303 1087v222h127q47 0 80 -32t33 -78t-33 -79t-80 -33h-127z" />
<glyph unicode="&#xb4;" horiz-adv-x="1024" d="M412 1229q0 12 8 24l127 191q25 37 50.5 37t34.5 -6.5t9 -24.5q6 -10 -20 -37l-146 -158q-16 -18 -39.5 -28t-23.5 2z" />
<glyph unicode="&#xb8;" horiz-adv-x="1024" d="M348 -243.5q0 14.5 10 32.5l158 231h88l-133 -270q-20 -41 -49 -41t-51.5 16.5t-22.5 31z" />
<glyph unicode="&#xbf;" horiz-adv-x="1093" d="M106 362q0 215 177 371q139 123 313 131l45 254q4 20 25 21h4q25 -4 18 -29l-45 -264q-2 -2 -2 -4q0 -25 -25 -25q-160 0 -293 -114.5t-161 -274.5q-6 -35 -6 -66q0 -135 88 -223t211 -89t221 52.5t166 141.5q16 20 34.5 4.5t4.5 -35.5q-74 -98 -182.5 -155.5 t-225.5 -57.5q-160 0 -263.5 103.5t-103.5 258.5zM684 1366l8 47q4 20 25 21h4q25 -4 20 -29l-8 -47q-2 -10 -11 -15.5t-17 -3.5q-25 4 -21 27z" />
<glyph unicode="&#xc0;" horiz-adv-x="1617" d="M123 37l762 1382q10 16 26 13q20 4 27 -21l274 -1380q4 -27 -20 -31h-4q-23 0 -27 20l-71 365h-717l-205 -373q-8 -12 -20.5 -12t-16.5 2q-23 14 -8 35zM401 436h678l-180 901zM791 1860q0 31 34.5 30.5t59.5 -37.5l127 -190q8 -12 8 -24.5t-23.5 -2t-40.5 28.5l-145 158 q-27 27 -20 37z" />
<glyph unicode="&#xc1;" horiz-adv-x="1617" d="M123 37l762 1382q10 16 26 13q20 4 27 -21l274 -1380q4 -27 -20 -31h-4q-23 0 -27 20l-71 365h-717l-205 -373q-8 -12 -20.5 -12t-16.5 2q-23 14 -8 35zM401 436h678l-180 901zM782 1638.5q0 12.5 9 24.5l127 190q25 37 50 37t34.5 -6t9.5 -24q6 -10 -21 -37l-145 -158 q-16 -18 -40 -28.5t-24 2z" />
<glyph unicode="&#xc2;" horiz-adv-x="1617" d="M123 37l762 1382q10 16 26 13q20 4 27 -21l274 -1380q4 -27 -20 -31h-4q-23 0 -27 20l-71 365h-717l-205 -373q-8 -12 -20.5 -12t-16.5 2q-23 14 -8 35zM401 436h678l-180 901zM678 1642q2 10 16 25l187 180q41 37 65 37h17q29 0 49 -37l108 -180q8 -12 5 -22.5t-12 -8.5 t-16 2t-15.5 5.5t-12.5 9.5t-10 13t-8 11l-111 154l-174 -156q-45 -37 -59 -37z" />
<glyph unicode="&#xc3;" horiz-adv-x="1617" d="M123 37l762 1382q10 16 26 13q20 4 27 -21l274 -1380q4 -27 -20 -31h-4q-23 0 -27 20l-71 365h-717l-205 -373q-8 -12 -20.5 -12t-16.5 2q-23 14 -8 35zM401 436h678l-180 901zM606 1645q0 4 11.5 39.5t60.5 73.5t91 38t136 -39t127 -39q63 0 103 88q0 16 9 25.5t17 9.5 q37 0 37 -35q0 -12 -4 -24q-45 -139 -162 -140q-37 0 -131 40t-131 40q-63 0 -98 -80q-12 -25 -33 -24q-33 0 -33 27z" />
<glyph unicode="&#xc4;" horiz-adv-x="1617" d="M123 37l762 1382q10 16 26 13q20 4 27 -21l274 -1380q4 -27 -20 -31h-4q-23 0 -27 20l-71 365h-717l-205 -373q-8 -12 -20.5 -12t-16.5 2q-23 14 -8 35zM401 436h678l-180 901zM680 1714.5q4 28.5 25.5 49t50 20.5t47 -20.5t14.5 -50.5t-25.5 -49t-50 -19t-47 20.5 t-14.5 49zM1053 1714.5q4 28.5 25.5 49t50 20.5t47 -20.5t15.5 -49t-25.5 -49t-51.5 -20.5t-47 20.5t-14 49z" />
<glyph unicode="&#xc5;" horiz-adv-x="1546" d="M170 37l727 1319q-51 14 -76.5 57t-17.5 100v3q14 72 70.5 115.5t124 43.5t108.5 -46t29 -113v-3q-10 -55 -48 -98t-94 -57l262 -1321q6 -23 -20 -35q-2 0 -12.5 -1t-20.5 17l-72 367h-716l-203 -367q-4 -18 -18.5 -17t-16.5 1q-18 12 -6 35zM444 438h676l-180 897z M852 1511q-6 -39 15.5 -77.5t81 -38.5t95 40t41.5 76v2q8 45 -19.5 81t-76.5 36t-89 -35.5t-48 -81.5v-2z" />
<glyph unicode="&#xc6;" horiz-adv-x="2340" d="M78 47q14 29 1057 1362q27 33 59 33h1018q25 0 36 -5t7 -24q-4 -29 -53 -29h-887l-111 -620h795q23 0 35 -7t7 -33t-52 -26h-795l-113 -630h897q25 0 36 -5.5t9 -23.5q-4 -31 -55 -31h-905q-23 0 -35 16.5t-8 36.5l65 369h-641l-317 -405q-23 -23 -42 -20t-7 42zM487 485 h607l159 901h-65z" />
<glyph unicode="&#xc7;" horiz-adv-x="1511" d="M150 594q0 70 10 123q51 295 302 502.5t556 210.5q258 0 432 -158q20 -18 3 -38t-38 -1q-156 143 -397 143q-285 2 -522.5 -195.5t-284.5 -473.5q-10 -61 -10 -113q0 -236 160.5 -391.5t407.5 -155.5t458 146q20 14 37 -7q14 -22 -9 -36q-225 -154 -488 -154t-443 170 q-174 170 -174 428zM803 -243.5q0 14.5 10 32.5l158 231h88l-133 -270q-20 -41 -49 -41t-51.5 16.5t-22.5 31z" />
<glyph unicode="&#xc8;" horiz-adv-x="1372" d="M215 31l244 1382q4 25 28 21q0 2 2 2h760q27 0 27 -27t-27 -27h-743l-113 -639h645q27 0 27 -25.5t-27 -25.5h-653l-113 -639h734q27 0 26.5 -25.5t-26.5 -25.5h-770q-25 4 -21 29zM748 1860q0 31 34.5 30.5t59.5 -37.5l127 -190q8 -12 8 -24.5t-23.5 -2t-40.5 28.5 l-145 158q-27 27 -20 37z" />
<glyph unicode="&#xc9;" horiz-adv-x="1372" d="M215 31l244 1382q4 25 28 21q0 2 2 2h760q27 0 27 -27t-27 -27h-743l-113 -639h645q27 0 27 -25.5t-27 -25.5h-653l-113 -639h734q27 0 26.5 -25.5t-26.5 -25.5h-770q-25 4 -21 29zM911 1638.5q0 12.5 9 24.5l127 190q25 37 50 37t34.5 -6t9.5 -24q6 -10 -21 -37 l-145 -158q-16 -18 -40 -28.5t-24 2z" />
<glyph unicode="&#xca;" horiz-adv-x="1372" d="M215 31l244 1382q4 25 28 21q0 2 2 2h760q27 0 27 -27t-27 -27h-743l-113 -639h645q27 0 27 -25.5t-27 -25.5h-653l-113 -639h734q27 0 26.5 -25.5t-26.5 -25.5h-770q-25 4 -21 29zM676 1642q2 10 16 25l187 180q41 37 65 37h17q29 0 49 -37l108 -180q8 -12 5 -22.5 t-12 -8.5t-16.5 2t-15.5 5.5t-12 9.5t-10 13t-8 11l-111 154l-174 -156q-45 -37 -59 -37z" />
<glyph unicode="&#xcb;" horiz-adv-x="1372" d="M215 31l244 1382q4 25 28 21q0 2 2 2h760q27 0 27 -27t-27 -27h-743l-113 -639h645q27 0 27 -25.5t-27 -25.5h-653l-113 -639h734q27 0 26.5 -25.5t-26.5 -25.5h-770q-25 4 -21 29zM663.5 1714.5q4.5 28.5 26 49t50 20.5t47 -20.5t14.5 -50.5t-25.5 -49t-50.5 -19 t-47.5 20.5t-14 49zM1036 1714.5q4 28.5 25.5 49t50.5 20.5t47.5 -20.5t15 -49t-26 -49t-51 -20.5t-47 20.5t-14.5 49z" />
<glyph unicode="&#xcc;" horiz-adv-x="561" d="M33 29l243 1382q4 25 30 20.5t22 -30.5l-244 -1381q-4 -23 -27 -22h-4q-25 6 -20 31zM190 1860q0 31 35 30.5t60 -37.5l127 -190q8 -12 8 -24.5t-23.5 -2t-40.5 28.5l-145 158q-27 27 -21 37z" />
<glyph unicode="&#xcd;" horiz-adv-x="561" d="M229 29l244 1382q4 25 29.5 20.5t21.5 -30.5l-243 -1381q-4 -23 -27 -22h-4q-25 6 -21 31zM387 1638.5q0 12.5 8 24.5l127 190q25 37 50.5 37t34.5 -6t9 -24q6 -10 -20 -37l-145 -158q-16 -18 -40 -28.5t-24 2z" />
<glyph unicode="&#xce;" horiz-adv-x="561" d="M162 29l244 1382q4 25 29.5 20.5t21.5 -30.5l-244 -1381q-4 -23 -27 -22h-4q-25 6 -20 31zM209 1642q2 10 16 25l187 180q41 37 65 37h17q29 0 49 -37l108 -180q8 -12 5 -22.5t-12 -8.5t-16 2t-15.5 5.5t-12.5 9.5t-10 13t-8 11l-111 154l-174 -156q-45 -37 -59 -37z" />
<glyph unicode="&#xcf;" horiz-adv-x="561" d="M43 29l244 1382q4 25 29.5 20.5t21.5 -30.5l-244 -1381q-4 -23 -26 -22h-5q-25 6 -20 31zM51 1714.5q4 28.5 25.5 49t50.5 20.5t47.5 -20.5t14 -50.5t-26 -49t-50 -19t-47 20.5t-14.5 49zM424 1714.5q4 28.5 25.5 49t50 20.5t47 -20.5t15.5 -49t-25.5 -49t-51 -20.5 t-47 20.5t-14.5 49z" />
<glyph unicode="&#xd1;" horiz-adv-x="1617" d="M217 35l242 1374q0 14 14 27q25 12 35 -11l717 -1319l229 1303q6 25 25 21q33 -4 26 -29l-241 -1374q-4 -23 -25 -23h-6q-10 2 -15.5 9t-5.5 9.5t-2 2.5l-712 1310l-232 -1308q-4 -23 -24 -23h-4q-27 8 -21 31zM758 1645q0 4 11 39.5t60.5 73.5t91.5 38t136 -39t127 -39 q63 0 102 88q0 16 9.5 25.5t17.5 9.5q37 0 37 -35q0 -12 -4 -24q-45 -139 -162 -140q-37 0 -131.5 40t-130.5 40q-64 0 -99 -80q-12 -25 -32 -24q-33 0 -33 27z" />
<glyph unicode="&#xd2;" horiz-adv-x="1740" d="M150 588q0 63 12 131q53 297 285.5 505t496.5 208t422 -170q158 -164 158 -418q0 -78 -11 -133q-53 -295 -285.5 -503t-512.5 -210q-248 0 -406.5 167t-158.5 423zM201 588q2 -233 145 -385t369 -154q258 0 478 197t269 473q10 72 11 125q0 231 -144.5 382.5 t-370.5 153.5h-2q-258 0 -477 -196.5t-266 -472.5q-12 -63 -12 -123zM1092 1860q0 31 35 31t59 -37l127 -191q8 -12 8 -24t-23.5 -2t-39.5 28l-146 158q-27 27 -20 37z" />
<glyph unicode="&#xd3;" horiz-adv-x="1740" d="M150 588q0 63 12 131q53 297 285.5 505t496.5 208t422 -170q158 -164 158 -418q0 -78 -11 -133q-53 -295 -285.5 -503t-512.5 -210q-248 0 -406.5 167t-158.5 423zM201 588q2 -233 145 -385t369 -154q258 0 478 197t269 473q10 72 11 125q0 231 -144.5 382.5 t-370.5 153.5h-2q-258 0 -477 -196.5t-266 -472.5q-12 -63 -12 -123zM997 1638.5q0 12.5 9 24.5l127 190q25 37 50 37t34.5 -6t9.5 -24q6 -10 -21 -37l-145 -158q-16 -18 -40 -28.5t-24 2z" />
<glyph unicode="&#xd4;" horiz-adv-x="1740" d="M150 588q0 63 12 131q53 297 285.5 505t496.5 208t422 -170q158 -164 158 -418q0 -78 -11 -133q-53 -295 -285.5 -503t-512.5 -210q-248 0 -406.5 167t-158.5 423zM201 588q2 -233 145 -385t369 -154q258 0 478 197t269 473q10 72 11 125q0 231 -144.5 382.5 t-370.5 153.5h-2q-258 0 -477 -196.5t-266 -472.5q-12 -63 -12 -123zM840 1643q2 10 16 24l187 181q41 37 65 37h16q29 0 50 -37l108 -181q8 -12 5 -22t-12 -8t-16.5 2t-15.5 5t-12 9t-10 13.5t-8 11.5l-111 153l-174 -155q-45 -37 -60 -37q-29 4 -28 4z" />
<glyph unicode="&#xd5;" horiz-adv-x="1740" d="M150 588q0 63 12 131q53 297 285.5 505t496.5 208t422 -170q158 -164 158 -418q0 -78 -11 -133q-53 -295 -285.5 -503t-512.5 -210q-248 0 -406.5 167t-158.5 423zM201 588q2 -233 145 -385t369 -154q258 0 478 197t269 473q10 72 11 125q0 231 -144.5 382.5 t-370.5 153.5h-2q-258 0 -477 -196.5t-266 -472.5q-12 -63 -12 -123zM760 1645q0 4 11 39.5t60.5 73.5t90.5 38t135 -39t129 -39q63 0 102 88q0 16 9.5 25.5t17.5 9.5q37 0 37 -35q0 -12 -4 -24q-45 -139 -162 -140q-37 0 -131 40t-131 40q-64 0 -99 -80q-12 -25 -32 -24 q-33 0 -33 27z" />
<glyph unicode="&#xd6;" horiz-adv-x="1740" d="M150 588q0 63 12 131q53 297 285.5 505t496.5 208t422 -170q158 -164 158 -418q0 -78 -11 -133q-53 -295 -285.5 -503t-512.5 -210q-248 0 -406.5 167t-158.5 423zM201 588q2 -233 145 -385t369 -154q258 0 478 197t269 473q10 72 11 125q0 231 -144.5 382.5 t-370.5 153.5h-2q-258 0 -477 -196.5t-266 -472.5q-12 -63 -12 -123zM800 1714.5q4 28.5 25.5 49t50.5 20.5t47.5 -20.5t14.5 -50t-26 -49t-50.5 -19.5t-47 20.5t-14.5 49zM1173 1714.5q4 28.5 25.5 49t50.5 20.5t47 -20.5t15 -49t-25.5 -49t-51 -20.5t-47 20.5t-14.5 49z " />
<glyph unicode="&#xd7;" horiz-adv-x="1269" d="M205 339.5q0 20.5 16 37.5l346 342l-344 340q-18 18 -18 40.5t14 37t37 14.5t41 -18l340 -345l342 347q16 16 36.5 16t35 -14.5t14.5 -35t-16 -36.5l-347 -342l345 -340q18 -18 18 -41t-14.5 -37t-37 -14t-40.5 18l-340 344l-342 -346q-16 -16 -37 -16t-35 14t-14 34.5z " />
<glyph unicode="&#xd9;" horiz-adv-x="1556" d="M190 473q0 57 9 100l147 834q4 27 31 23q24 -8 20 -31l-147 -834q-8 -41 -8 -92q2 -184 122.5 -304t324.5 -121t386 153.5t219 371.5l148 834q4 27 31 23q25 -6 20 -31l-147 -834q-41 -238 -237 -403.5t-421 -165.5t-361.5 136t-136.5 341zM856 1860q0 31 35 30.5 t59 -37.5l127 -190q8 -12 8 -24.5t-23.5 -2t-39.5 28.5l-145 158q-27 27 -21 37z" />
<glyph unicode="&#xda;" horiz-adv-x="1556" d="M190 473q0 57 9 100l147 834q4 27 31 23q24 -8 20 -31l-147 -834q-8 -41 -8 -92q2 -184 122.5 -304t324.5 -121t386 153.5t219 371.5l148 834q4 27 31 23q25 -6 20 -31l-147 -834q-41 -238 -237 -403.5t-421 -165.5t-361.5 136t-136.5 341zM797 1638.5q0 12.5 8 24.5 l127 190q25 37 50.5 37t34.5 -6t9 -24q6 -10 -20 -37l-146 -158q-16 -18 -39.5 -28.5t-23.5 2z" />
<glyph unicode="&#xdb;" horiz-adv-x="1556" d="M190 473q0 57 9 100l147 834q4 27 31 23q24 -8 20 -31l-147 -834q-8 -41 -8 -92q2 -184 122.5 -304t324.5 -121t386 153.5t219 371.5l148 834q4 27 31 23q25 -6 20 -31l-147 -834q-41 -238 -237 -403.5t-421 -165.5t-361.5 136t-136.5 341zM762 1642q2 10 16 25l187 180 q41 37 65 37h17q29 0 49 -37l108 -180q8 -12 5 -22.5t-12 -8.5t-16 2t-15.5 5.5t-12.5 9.5t-10 13t-8 11l-111 154l-174 -156q-45 -37 -59 -37z" />
<glyph unicode="&#xdc;" horiz-adv-x="1556" d="M190 473q0 57 9 100l147 834q4 27 31 23q24 -8 20 -31l-147 -834q-8 -41 -8 -92q2 -184 122.5 -304t324.5 -121t386 153.5t219 371.5l148 834q4 27 31 23q25 -6 20 -31l-147 -834q-41 -238 -237 -403.5t-421 -165.5t-361.5 136t-136.5 341zM723 1714.5q4 28.5 25.5 49 t50 20.5t47 -20.5t14.5 -50.5t-25.5 -49t-50 -19t-47 20.5t-14.5 49zM1096 1714.5q4 28.5 25.5 49t50 20.5t47 -20.5t15.5 -49t-25.5 -49t-51.5 -20.5t-47 20.5t-14 49z" />
<glyph unicode="&#xdd;" horiz-adv-x="1466" d="M119 1391q-14 23 10 34q25 16 35 -10l368 -663l609 669q18 18 36.5 1t2.5 -36l-627 -692h-2l-119 -678q-4 -20 -24 -20h-7q-25 4 -20 31l119 675zM653 1638.5q0 12.5 9 24.5l126 190q25 37 50.5 37t35 -6t9.5 -24q6 -10 -21 -37l-145 -158q-16 -18 -40 -28.5t-24 2z" />
<glyph unicode="&#xdf;" horiz-adv-x="1269" d="M197 45l172 983q39 215 185 350t339.5 135t289 -102t66.5 -256v-4q-25 -139 -135 -239.5t-254 -149.5q174 -31 274.5 -122t73.5 -245v-4q-33 -182 -191.5 -282.5t-391.5 -108.5q-16 0 -26.5 13.5t-8.5 31.5t17.5 30.5t33.5 14.5q186 10 310 84t147 213l2 4 q23 131 -73.5 208t-270.5 99q-49 6 -42 46t50 55q334 111 377 348v4q20 117 -51.5 192.5t-215 75.5t-258 -106.5t-147.5 -284.5l-172 -983q-10 -49 -59 -49q-23 0 -34 14.5t-7 34.5z" />
<glyph unicode="&#xe0;" horiz-adv-x="1175" d="M129 414q0 51 8 94q37 205 198 348t355 143q172 4 285 -118q61 -63 88 -156l47 254q4 27 29 20q25 -4 20 -28l-166 -944q-4 -20 -24 -21h-4q-27 4 -21 29l41 237q-80 -121 -204 -193.5t-259 -74.5q-174 0 -282 121q-111 115 -111 289zM180 414q2 -156 96.5 -256.5 t257 -101.5t310.5 132q188 168 188 404q0 156 -95 256t-247 100h-2q-172 0 -319.5 -132t-180.5 -318q-8 -39 -8 -84zM682 1450q0 31 35 31t59 -37l127 -191q8 -12 8 -24t-23.5 -2t-39.5 28l-146 158q-27 27 -20 37z" />
<glyph unicode="&#xe1;" horiz-adv-x="1175" d="M129 414q0 51 8 94q37 205 198 348t355 143q172 4 285 -118q61 -63 88 -156l47 254q4 27 29 20q25 -4 20 -28l-166 -944q-4 -20 -24 -21h-4q-27 4 -21 29l41 237q-80 -121 -204 -193.5t-259 -74.5q-174 0 -282 121q-111 115 -111 289zM180 414q2 -156 96.5 -256.5 t257 -101.5t310.5 132q188 168 188 404q0 156 -95 256t-247 100h-2q-172 0 -319.5 -132t-180.5 -318q-8 -39 -8 -84zM580 1229q0 12 8 24l127 191q25 37 50.5 37t34.5 -6.5t9 -24.5q6 -10 -21 -37l-145 -158q-16 -18 -39.5 -28t-23.5 2z" />
<glyph unicode="&#xe2;" horiz-adv-x="1175" d="M129 414q0 51 8 94q37 205 198 348t355 143q172 4 285 -118q61 -63 88 -156l47 254q4 27 29 20q25 -4 20 -28l-166 -944q-4 -20 -24 -21h-4q-27 4 -21 29l41 237q-80 -121 -204 -193.5t-259 -74.5q-174 0 -282 121q-111 115 -111 289zM180 414q2 -156 96.5 -256.5 t257 -101.5t310.5 132q188 168 188 404q0 156 -95 256t-247 100h-2q-172 0 -319.5 -132t-180.5 -318q-8 -39 -8 -84zM578 1233q2 10 16 24l186 181q41 37 66 37h16q29 0 49 -37l109 -181q8 -12 5 -22t-12 -8t-16.5 2t-15.5 5t-12 9t-10.5 13.5t-8.5 11.5l-110 153l-174 -155 q-45 -37 -60 -37q-29 4 -28 4z" />
<glyph unicode="&#xe3;" horiz-adv-x="1175" d="M129 414q0 51 8 94q37 205 198 348t355 143q172 4 285 -118q61 -63 88 -156l47 254q4 27 29 20q25 -4 20 -28l-166 -944q-4 -20 -24 -21h-4q-27 4 -21 29l41 237q-80 -121 -204 -193.5t-259 -74.5q-174 0 -282 121q-111 115 -111 289zM180 414q2 -156 96.5 -256.5 t257 -101.5t310.5 132q188 168 188 404q0 156 -95 256t-247 100h-2q-172 0 -319.5 -132t-180.5 -318q-8 -39 -8 -84zM514 1235q0 4 11.5 40t60.5 73.5t90 37.5t135 -38.5t129 -38.5q63 0 102 88q0 16 9.5 25.5t17.5 9.5q37 0 37 -35q0 -12 -4 -25q-45 -139 -162 -139 q-37 0 -131 40t-131 40q-63 0 -98 -80q-12 -25 -33 -25q-33 0 -33 27z" />
<glyph unicode="&#xe4;" horiz-adv-x="1175" d="M129 414q0 51 8 94q37 205 198 348t355 143q172 4 285 -118q61 -63 88 -156l47 254q4 27 29 20q25 -4 20 -28l-166 -944q-4 -20 -24 -21h-4q-27 4 -21 29l41 237q-80 -121 -204 -193.5t-259 -74.5q-174 0 -282 121q-111 115 -111 289zM180 414q2 -156 96.5 -256.5 t257 -101.5t310.5 132q188 168 188 404q0 156 -95 256t-247 100h-2q-172 0 -319.5 -132t-180.5 -318q-8 -39 -8 -84zM555 1304.5q4 28.5 25.5 49t50 20.5t47 -20.5t14.5 -50t-25.5 -49t-50 -19.5t-47 20.5t-14.5 49zM928 1304.5q4 28.5 25.5 49t50 20.5t47 -20.5t15.5 -49 t-25.5 -49t-51 -20.5t-47 20.5t-14.5 49z" />
<glyph unicode="&#xe5;" horiz-adv-x="1175" d="M104 414q0 51 9 94q37 205 197.5 348t355.5 143q172 4 284 -118q61 -63 88 -156l47 254q4 27 29 20q25 -4 21 -28l-166 -944q-4 -20 -25 -21h-4q-27 4 -20 29l41 237q-80 -121 -204 -193.5t-259 -74.5q-174 0 -283 121q-111 115 -111 289zM156 414q2 -156 96 -256.5 t257 -101.5t310 132q188 168 189 404q0 156 -95.5 256t-246.5 100h-2q-172 0 -319.5 -132t-180.5 -318q-8 -39 -8 -84zM686 1294v2q14 72 70.5 116t124 44t108.5 -46t29 -114v-2q-10 -68 -66.5 -116t-127 -48t-109.5 48.5t-29 115.5zM735 1292q-8 -45 19.5 -80.5t77 -35.5 t89.5 35.5t48 80.5v2q8 45 -19.5 81t-77 36t-89.5 -36t-48 -81v-2z" />
<glyph unicode="&#xe6;" horiz-adv-x="1953" d="M104 418q0 51 9 94q37 207 198.5 351.5t347 145.5t297.5 -120q63 -66 91 -158l47 256q4 27 28 21q25 -4 21 -29l-49 -272q80 133 214 215t281 82q178 2 293 -119q115 -115 115 -295q0 -47 -4 -64q-8 -18 -25 -18h-895q-10 -20 -10 -92q0 -158 100.5 -260.5t257.5 -102.5 q113 0 219.5 55.5t182.5 149.5q14 18 37 4q18 -18 4 -37q-182 -221 -443 -225q-180 0 -295 121q-78 78 -102 184l-49 -278q-4 -20 -25 -21h-4q-27 4 -20 29l41 239q-80 -121 -204 -194.5t-261 -75.5q-176 0 -287 119t-111 295zM156 418q2 -158 98 -259.5t260 -102.5t313 132 q188 170 189 408q0 158 -96.5 259t-249.5 101h-2q-174 0 -322.5 -134t-181.5 -320q-8 -39 -8 -84zM1085 559h859q2 10 2 31q0 158 -99.5 260t-260.5 103t-305 -112.5t-196 -281.5z" />
<glyph unicode="&#xe7;" horiz-adv-x="1169" d="M119 418q0 39 6 86q39 207 213 351t387 144q176 2 303 -110q20 -16 2 -34.5t-37 -2.5q-109 96 -268 96q-193 2 -354 -133q-201 -166 -201 -397q0 -160 108.5 -264.5t275.5 -104.5t310 98q20 14 37 -6q14 -23 -8 -37q-158 -109 -342 -108.5t-308 120.5t-124 302z M612 -243.5q0 14.5 11 32.5l157 231h88l-133 -270q-20 -41 -49 -41t-51.5 16.5t-22.5 31z" />
<glyph unicode="&#xe8;" horiz-adv-x="1196" d="M125 416q0 51 8 90q37 207 203 351t354.5 145.5t302.5 -119.5q115 -115 115 -295q0 -47 -4 -64q-8 -18 -25 -18h-893q-10 -20 -10 -90q0 -158 100.5 -260.5t258.5 -102.5q111 0 217 55.5t182 149.5q14 18 37 4q18 -18 4 -37q-182 -221 -440 -225q-180 0 -295 121 q-115 115 -115 295zM199 557h856q2 10 2 31q0 157 -99.5 259.5t-260 103.5t-304 -112.5t-194.5 -281.5zM672 1450q0 31 34.5 31t59.5 -37l127 -191q8 -12 8 -24t-23.5 -2t-39.5 28l-146 158q-27 27 -20 37z" />
<glyph unicode="&#xe9;" horiz-adv-x="1196" d="M125 416q0 51 8 90q37 207 203 351t354.5 145.5t302.5 -119.5q115 -115 115 -295q0 -47 -4 -64q-8 -18 -25 -18h-893q-10 -20 -10 -90q0 -158 100.5 -260.5t258.5 -102.5q111 0 217 55.5t182 149.5q14 18 37 4q18 -18 4 -37q-182 -221 -440 -225q-180 0 -295 121 q-115 115 -115 295zM199 557h856q2 10 2 31q0 157 -99.5 259.5t-260 103.5t-304 -112.5t-194.5 -281.5zM573 1229q0 12 9 24l127 191q25 37 50 37t34.5 -6.5t9.5 -24.5q6 -10 -21 -37l-145 -158q-16 -18 -40 -28t-24 2z" />
<glyph unicode="&#xea;" horiz-adv-x="1196" d="M125 416q0 51 8 90q37 207 203 351t354.5 145.5t302.5 -119.5q115 -115 115 -295q0 -47 -4 -64q-8 -18 -25 -18h-893q-10 -20 -10 -90q0 -158 100.5 -260.5t258.5 -102.5q111 0 217 55.5t182 149.5q14 18 37 4q18 -18 4 -37q-182 -221 -440 -225q-180 0 -295 121 q-115 115 -115 295zM199 557h856q2 10 2 31q0 157 -99.5 259.5t-260 103.5t-304 -112.5t-194.5 -281.5zM530 1233q2 10 17 24l186 181q41 37 66 37h16q29 0 49 -37l109 -181q8 -12 5 -22t-12.5 -8t-16.5 2t-15 5t-12 9t-10.5 13.5t-8.5 11.5l-110 153l-175 -155 q-45 -37 -59 -37z" />
<glyph unicode="&#xeb;" horiz-adv-x="1196" d="M125 416q0 51 8 90q37 207 203 351t354.5 145.5t302.5 -119.5q115 -115 115 -295q0 -47 -4 -64q-8 -18 -25 -18h-893q-10 -20 -10 -90q0 -158 100.5 -260.5t258.5 -102.5q111 0 217 55.5t182 149.5q14 18 37 4q18 -18 4 -37q-182 -221 -440 -225q-180 0 -295 121 q-115 115 -115 295zM199 557h856q2 10 2 31q0 157 -99.5 259.5t-260 103.5t-304 -112.5t-194.5 -281.5zM520 1304.5q4 28.5 25.5 49t50.5 20.5t47.5 -20.5t14 -50t-26 -49t-50 -19.5t-47 20.5t-14.5 49zM893 1304.5q4 28.5 25.5 49t50 20.5t47 -20.5t15.5 -49t-25.5 -49 t-51 -20.5t-47 20.5t-14.5 49z" />
<glyph unicode="&#xec;" horiz-adv-x="509" d="M6 31l166 950q8 27 31 18q27 -4 20 -28l-166 -951q-4 -20 -24 -20h-6q-25 8 -21 31zM74 1450q0 31 34.5 31t59.5 -37l127 -191q8 -12 8 -24t-23.5 -2t-39.5 28l-146 158q-27 27 -20 37z" />
<glyph unicode="&#xed;" horiz-adv-x="509" d="M207 31l166 950q8 27 30 18q27 -4 21 -28l-166 -951q-4 -20 -25 -20h-6q-25 8 -20 31zM291 1229q0 12 8 24l127 191q25 37 50.5 37t34.5 -6.5t9 -24.5q6 -10 -20 -37l-146 -158q-16 -18 -39.5 -28t-23.5 2z" />
<glyph unicode="&#xee;" horiz-adv-x="509" d="M8 1233q2 10 17 24l186 181q41 37 65 37h17q29 0 49 -37l109 -181q8 -12 5 -22t-12.5 -8t-16.5 2t-15.5 5t-12.5 9t-10 13.5t-8 11.5l-111 153l-174 -155q-45 -37 -59 -37zM33 31l166 950q8 27 30 18q27 -4 21 -28l-166 -951q-4 -20 -25 -20h-6q-25 8 -20 31z" />
<glyph unicode="&#xef;" horiz-adv-x="509" d="M-37 1304.5q4 28.5 25.5 49t50.5 20.5t47 -20.5t14 -50t-25.5 -49t-50 -19.5t-47 20.5t-14.5 49zM16 31l166 950q8 27 31 18q27 -4 20 -28l-165 -951q-4 -20 -25 -20h-6q-25 8 -21 31zM336 1304.5q4 28.5 25.5 49t50 20.5t47 -20.5t15.5 -49t-25.5 -49t-51 -20.5 t-47 20.5t-14.5 49z" />
<glyph unicode="&#xf1;" d="M193 27l102 577v2l65 375q4 25 30 20.5t22 -30.5l-31 -168q70 90 172 144t230 54t231 -96q94 -94 94 -241q0 -31 -6 -68l-98 -580q-4 -20 -29 -20h-4q-25 4 -21 31l103 577q6 31 6 60q0 125 -82 204.5t-220.5 80.5t-262 -103.5t-150.5 -249.5l-100 -580q0 -10 -6 -10 q0 -4 -5 -4q-6 -6 -12 -6h-8q-25 4 -20 31zM586 1235q0 4 11.5 40t60.5 73.5t90 37.5t135 -38.5t129 -38.5q63 0 102 88q0 16 9.5 25.5t17.5 9.5q37 0 37 -35q0 -12 -4 -25q-45 -139 -162 -139q-37 0 -131 40t-131 40q-63 0 -98 -80q-12 -25 -33 -25q-33 0 -33 27z" />
<glyph unicode="&#xf2;" horiz-adv-x="1310" d="M119 414q0 51 8 92q37 207 198.5 352.5t347 145.5t297 -118t111.5 -296q0 -51 -8 -92l-24 4l24 -4q-37 -207 -198.5 -351.5t-347 -145.5t-298.5 118q-111 121 -110 295zM170 414q0 -158 96 -259.5t260 -102.5t313.5 133.5t182.5 320.5q8 39 8 84q-2 158 -98 260t-248 102 h-2q-174 0 -322.5 -134t-181.5 -320q-8 -39 -8 -84zM715 1450q0 31 34.5 31t59.5 -37l127 -191q8 -12 8 -24t-23.5 -2t-39.5 28l-146 158q-27 27 -20 37z" />
<glyph unicode="&#xf3;" horiz-adv-x="1310" d="M119 414q0 51 8 92q37 207 198.5 352.5t347 145.5t297 -118t111.5 -296q0 -51 -8 -92l-24 4l24 -4q-37 -207 -198.5 -351.5t-347 -145.5t-298.5 118q-111 121 -110 295zM170 414q0 -158 96 -259.5t260 -102.5t313.5 133.5t182.5 320.5q8 39 8 84q-2 158 -98 260t-248 102 h-2q-174 0 -322.5 -134t-181.5 -320q-8 -39 -8 -84zM711 1229q0 12 8 24l127 191q25 37 50.5 37t34.5 -6.5t9 -24.5q6 -10 -20 -37l-146 -158q-16 -18 -39.5 -28t-23.5 2z" />
<glyph unicode="&#xf4;" horiz-adv-x="1310" d="M119 414q0 51 8 92q37 207 198.5 352.5t347 145.5t297 -118t111.5 -296q0 -51 -8 -92l-24 4l24 -4q-37 -207 -198.5 -351.5t-347 -145.5t-298.5 118q-111 121 -110 295zM170 414q0 -158 96 -259.5t260 -102.5t313.5 133.5t182.5 320.5q8 39 8 84q-2 158 -98 260t-248 102 h-2q-174 0 -322.5 -134t-181.5 -320q-8 -39 -8 -84zM639 1233q2 10 16 24l187 181q41 37 65 37h17q29 0 49 -37l108 -181q8 -12 5 -22t-12 -8t-16 2t-15.5 5t-12.5 9t-10 13.5t-8 11.5l-111 153l-174 -155q-45 -37 -59 -37z" />
<glyph unicode="&#xf5;" horiz-adv-x="1310" d="M119 414q0 51 8 92q37 207 198.5 352.5t347 145.5t297 -118t111.5 -296q0 -51 -8 -92l-24 4l24 -4q-37 -207 -198.5 -351.5t-347 -145.5t-298.5 118q-111 121 -110 295zM170 414q0 -158 96 -259.5t260 -102.5t313.5 133.5t182.5 320.5q8 39 8 84q-2 158 -98 260t-248 102 h-2q-174 0 -322.5 -134t-181.5 -320q-8 -39 -8 -84zM541 1235q0 4 11 40t60.5 73.5t91 37.5t136 -38.5t127.5 -38.5q63 0 102 88q0 16 9 25.5t18 9.5q37 0 37 -35q0 -12 -5 -25q-45 -139 -161 -139q-37 0 -131.5 40t-130.5 40q-64 0 -99 -80q-12 -25 -33 -25q-33 0 -32 27z " />
<glyph unicode="&#xf6;" horiz-adv-x="1310" d="M119 414q0 51 8 92q37 207 198.5 352.5t347 145.5t297 -118t111.5 -296q0 -51 -8 -92l-24 4l24 -4q-37 -207 -198.5 -351.5t-347 -145.5t-298.5 118q-111 121 -110 295zM170 414q0 -158 96 -259.5t260 -102.5t313.5 133.5t182.5 320.5q8 39 8 84q-2 158 -98 260t-248 102 h-2q-174 0 -322.5 -134t-181.5 -320q-8 -39 -8 -84zM541 1304.5q4 28.5 25.5 49t50 20.5t47 -20.5t14.5 -50t-25.5 -49t-50.5 -19.5t-47 20.5t-14 49zM913.5 1304.5q4.5 28.5 26 49t50 20.5t47 -20.5t15.5 -49t-25.5 -49t-51.5 -20.5t-47.5 20.5t-14 49z" />
<glyph unicode="&#xf7;" horiz-adv-x="1269" d="M140 720.5q-7 -20.5 2.5 -34.5t29.5 -14h909q20 0 40 14t26 35q8 20 -2 34.5t-31 14.5h-909q-20 0 -39 -14.5t-26 -35zM424 309l12 35q10 33 42 57.5t66 24.5t50 -23.5t6 -58.5l-12 -35q-12 -35 -45 -58.5t-67 -23.5t-49 24.5t-3 57.5zM688 1098l12 35q11 32 42.5 56.5 t65.5 24.5t50 -23.5t6 -57.5l-12 -35q-10 -33 -42 -57.5t-65.5 -24.5t-50 23.5t-6.5 58.5z" />
<glyph unicode="&#xf9;" d="M170 336q0 39 8 72l101 571q4 27 30 22q25 -8 21 -30l-103 -572q-4 -23 -4 -63q0 -125 81 -205t218 -81t260 104.5t148 253.5l102 571q4 26 29 22q27 -8 22 -30l-102 -572q-29 -166 -165 -282.5t-296 -116.5t-252 96q-98 98 -98 240zM600 1450q0 31 35 31t59 -37 l127 -191q8 -12 8 -24t-23.5 -2t-39.5 28l-145 158q-27 27 -21 37z" />
<glyph unicode="&#xfa;" d="M170 336q0 39 8 72l101 571q4 27 30 22q25 -8 21 -30l-103 -572q-4 -23 -4 -63q0 -125 81 -205t218 -81t260 104.5t148 253.5l102 571q4 26 29 22q27 -8 22 -30l-102 -572q-29 -166 -165 -282.5t-296 -116.5t-252 96q-98 98 -98 240zM672 1229q0 12 8 24l127 191 q25 37 50.5 37t34.5 -6.5t9 -24.5q6 -10 -20 -37l-146 -158q-16 -18 -39.5 -28t-23.5 2z" />
<glyph unicode="&#xfb;" d="M170 336q0 39 8 72l101 571q4 27 30 22q25 -8 21 -30l-103 -572q-4 -23 -4 -63q0 -125 81 -205t218 -81t260 104.5t148 253.5l102 571q4 26 29 22q27 -8 22 -30l-102 -572q-29 -166 -165 -282.5t-296 -116.5t-252 96q-98 98 -98 240zM526 1233q2 10 17 24l186 181 q41 37 66 37h16q29 0 49 -37l109 -181q8 -12 5 -22t-12.5 -8t-16.5 2t-15 5t-12.5 9t-10.5 13.5t-8 11.5l-111 153l-174 -155q-45 -37 -59 -37z" />
<glyph unicode="&#xfc;" d="M170 336q0 39 8 72l101 571q4 27 30 22q25 -8 21 -30l-103 -572q-4 -23 -4 -63q0 -125 81 -205t218 -81t260 104.5t148 253.5l102 571q4 26 29 22q27 -8 22 -30l-102 -572q-29 -166 -165 -282.5t-296 -116.5t-252 96q-98 98 -98 240zM524 1304.5q4 28.5 25.5 49 t50.5 20.5t47.5 -20.5t14 -50t-26 -49t-50 -19.5t-47 20.5t-14.5 49zM897 1304.5q4 28.5 25.5 49t50 20.5t47 -20.5t15.5 -49t-25.5 -49t-51 -20.5t-47 20.5t-14.5 49z" />
<glyph unicode="&#xfd;" horiz-adv-x="1204" d="M113 -332q10 23 34 10q78 -43 177 -43q176 -2 323.5 124t175.5 302l27 142q-68 -92 -169 -146.5t-230 -55.5t-228 97q-98 94 -98 240q0 37 8 70l100 573q6 25 31 20.5t21 -28.5l-101 -574q-6 -35 -6 -61q0 -125 81 -205t217 -81t260 104.5t149 251.5l102 573q6 25 23 23 q33 -6 26 -31l-162 -920q-35 -197 -194.5 -333t-355.5 -138q-106 0 -201 49q-20 14 -10 37zM588 1229q0 12 8 24l127 191q25 37 50.5 37t34.5 -6.5t9 -24.5q6 -10 -20 -37l-146 -158q-16 -18 -39.5 -28t-23.5 2z" />
<glyph unicode="&#xff;" horiz-adv-x="1204" d="M113 -332q10 23 34 10q78 -43 177 -43q176 -2 323.5 124t175.5 302l27 142q-68 -92 -169 -146.5t-230 -55.5t-228 97q-98 94 -98 240q0 37 8 70l100 573q6 25 31 20.5t21 -28.5l-101 -574q-6 -35 -6 -61q0 -125 81 -205t217 -81t260 104.5t149 251.5l102 573q6 25 23 23 q33 -6 26 -31l-162 -920q-35 -197 -194.5 -333t-355.5 -138q-106 0 -201 49q-20 14 -10 37zM450 1304.5q4 28.5 25.5 49t50.5 20.5t47.5 -20.5t14.5 -50t-26 -49t-50.5 -19.5t-47 20.5t-14.5 49zM823 1304.5q4 28.5 25.5 49t50.5 20.5t47 -20.5t15 -49t-25.5 -49t-51 -20.5 t-47 20.5t-14.5 49z" />
<glyph unicode="&#x152;" horiz-adv-x="2537" d="M134 742.5q54 308.5 296 524.5t533 216q225 0 379.5 -137.5t191.5 -356.5l80 447q4 23 28 26h764q25 0 21 -26q-6 -25 -29 -25h-737l-113 -639h650q23 0 18.5 -25.5t-29.5 -25.5h-649l-113 -641h738q25 0 20.5 -25.5t-31.5 -25.5h-763q-23 0 -19 26l78 441 q-115 -219 -318.5 -356.5t-429.5 -137.5q-291 0 -455.5 216t-110.5 524.5zM188.5 744.5q-51.5 -283.5 102 -483.5t420.5 -204q264 4 488 204t274.5 483.5t-103 484.5t-418 201t-488.5 -201t-275.5 -484.5z" />
<glyph unicode="&#x153;" horiz-adv-x="2160" d="M119 414q0 51 8 92q37 207 198.5 352.5t347 145.5t298.5 -119q88 -94 106 -236q72 156 216.5 255.5t315.5 100.5t285 -120q115 -115 115 -295q0 -47 -4 -64q-8 -18 -25 -18h-895q-10 -20 -10 -92q0 -158 100.5 -260.5t258.5 -102.5q113 0 219 55.5t182 149.5q14 18 37 4 q18 -18 4 -37q-182 -221 -442 -225q-180 0 -295 121q-94 92 -111 233q-72 -156 -212 -254t-307 -99t-280 118q-111 121 -110 295zM170 414q0 -158 96 -259.5t260 -102.5t313.5 133.5t182.5 320.5q8 39 8 84q-2 158 -98 260t-248 102h-2q-174 0 -322.5 -134t-181.5 -320 q-8 -39 -8 -84zM1098 559h858q2 10 2 31q0 158 -99.5 260t-260 103t-305 -112.5t-195.5 -281.5z" />
<glyph unicode="&#x160;" horiz-adv-x="1310" d="M141 203q219 -205 484 -205q213 0 383 110.5t199.5 270.5t-103.5 256q-115 86 -340 129l-4 2q-203 39 -302.5 114.5t-79 197.5t164 215t321.5 93q80 0 157 -27.5t120 -55t108 -76.5q16 -10 35 8q16 20 -2 31q-66 49 -112 78.5t-129 58.5t-169 29q-197 0 -355.5 -103.5 t-185 -249t98.5 -239.5q100 -78 313 -119l5 -2q213 -39 323 -121q113 -88 90.5 -221t-176.5 -232.5t-352 -99.5q-135 0 -255 57.5t-202 137.5q-16 12 -32.5 -5.5t-2.5 -31.5zM783 1800q3 10 12.5 8t16.5 -2t15.5 -5t12.5 -9t10 -13.5t8 -11.5l111 -153l174 155q45 37 59 37 l29 -4q-2 -10 -17 -24l-186 -181q-41 -37 -65 -36h-17q-29 0 -49 36l-109 181q-8 12 -5 22z" />
<glyph unicode="&#x161;" horiz-adv-x="1017" d="M115 145q152 -143 338 -143q147 0 268 79t141.5 190.5t-74.5 185.5q-74 55 -237 90h-4q-281 55 -252 207q12 76 106 137q96 61 203 61t195 -55q31 -18 75 -51q18 -14 37 6t-2 37q-49 35 -78.5 54.5t-88 40t-117.5 20.5q-137 0 -249 -73t-132.5 -179.5t69.5 -171.5 q70 -53 217 -84h2q307 -59 279 -220q-16 -92 -117 -155q-100 -68 -233 -68q-172 0 -307 131q-14 18 -35.5 -3.5t-3.5 -35.5zM517 1355.5q3 10.5 12.5 8.5t16.5 -2t15 -5t12.5 -9.5t10.5 -13.5t8 -11l110 -154l175 156q45 37 59 37l29 -4q-2 -10 -17 -25l-186 -180 q-41 -37 -66 -37h-16q-29 0 -49 37l-109 180q-8 12 -5 22.5z" />
<glyph unicode="&#x178;" horiz-adv-x="1466" d="M119 1391q-14 23 10 34q25 16 35 -10l368 -663l609 669q18 18 36.5 1t2.5 -36l-627 -692h-2l-119 -678q-4 -20 -24 -20h-7q-25 4 -20 31l119 675zM491.5 1714.5q4.5 28.5 26 49t50 20.5t47 -20.5t14.5 -50.5t-25.5 -49t-50.5 -19t-47.5 20.5t-14 49zM864 1714.5 q4 28.5 25.5 49t50.5 20.5t47.5 -20.5t15 -49t-26 -49t-51 -20.5t-47 20.5t-14.5 49z" />
<glyph unicode="&#x2c6;" horiz-adv-x="1024" d="M291 1233q2 10 16 24l187 181q41 37 65 37h16q29 0 50 -37l108 -181q8 -12 5 -22t-12 -8t-16.5 2t-15.5 5t-12 9t-10 13.5t-8 11.5l-111 153l-174 -155q-45 -37 -60 -37q-29 4 -28 4z" />
<glyph unicode="&#x2dc;" horiz-adv-x="1024" d="M215 1235q0 4 11.5 40t60.5 73.5t90 37.5t135 -38.5t129 -38.5q63 0 102 88q0 16 9.5 25.5t17.5 9.5q37 0 37 -35q0 -12 -4 -25q-45 -139 -162 -139q-37 0 -131 40t-131 40q-63 0 -98 -80q-12 -25 -33 -25q-33 0 -33 27z" />
<glyph unicode="&#x2000;" horiz-adv-x="945" />
<glyph unicode="&#x2001;" horiz-adv-x="1891" />
<glyph unicode="&#x2002;" horiz-adv-x="945" />
<glyph unicode="&#x2003;" horiz-adv-x="1891" />
<glyph unicode="&#x2004;" horiz-adv-x="630" />
<glyph unicode="&#x2005;" horiz-adv-x="472" />
<glyph unicode="&#x2006;" horiz-adv-x="315" />
<glyph unicode="&#x2007;" horiz-adv-x="315" />
<glyph unicode="&#x2008;" horiz-adv-x="236" />
<glyph unicode="&#x2009;" horiz-adv-x="378" />
<glyph unicode="&#x200a;" horiz-adv-x="105" />
<glyph unicode="&#x2010;" horiz-adv-x="835" d="M135.5 716.5q-0.5 20.5 20.5 20.5h467q18 0 18 -20.5t-18 -20.5h-467q-20 0 -20.5 20.5z" />
<glyph unicode="&#x2011;" horiz-adv-x="835" d="M135.5 716.5q-0.5 20.5 20.5 20.5h467q18 0 18 -20.5t-18 -20.5h-467q-20 0 -20.5 20.5z" />
<glyph unicode="&#x2012;" horiz-adv-x="835" d="M135.5 716.5q-0.5 20.5 20.5 20.5h467q18 0 18 -20.5t-18 -20.5h-467q-20 0 -20.5 20.5z" />
<glyph unicode="&#x2013;" horiz-adv-x="1353" d="M135 716.5q-1 20.5 42 20.5h946q36 0 36 -20.5t-36 -20.5h-946q-41 0 -42 20.5z" />
<glyph unicode="&#x2014;" horiz-adv-x="2377" d="M135 716.5q-2 20.5 83 20.5h1892q73 0 73 -20.5t-73 -20.5h-1892q-81 0 -83 20.5z" />
<glyph unicode="&#x2018;" horiz-adv-x="471" d="M158 1370v21q0 2 2 4q10 37 39.5 37t45 -15.5t15.5 -37t-15.5 -36t-37.5 -14.5h-12q14 -33 49 -41q16 -8 10 -18q0 -12 -12 -13h-6q-78 21 -78 113z" />
<glyph unicode="&#x2019;" horiz-adv-x="471" d="M121 1380.5q0 20.5 15.5 37t45 16.5t39.5 -37q0 -4 2 -4v-21q0 -92 -78 -112h-6q-12 0 -12 12q-6 10 10 18q37 8 47 41h-10q-23 0 -38 14.5t-15 35z" />
<glyph unicode="&#x201a;" horiz-adv-x="471" />
<glyph unicode="&#x201c;" horiz-adv-x="839" d="M166 1112l14 51q37 158 112 218.5t116 60.5q30 0 24 -31q-2 -14 -22 -27q-117 -55 -136 -157q53 -14 39 -72l-12 -43q-6 -29 -30.5 -48.5t-52.5 -19.5t-43 20.5t-9 47.5zM535 1112l14 51q37 158 111.5 218.5t115.5 60.5q31 0 25 -31q-2 -14 -23 -27q-117 -55 -135 -157 q53 -14 39 -72l-12 -43q-6 -29 -31 -48.5t-52.5 -19.5t-43 20.5t-8.5 47.5z" />
<glyph unicode="&#x201d;" horiz-adv-x="839" d="M125 1075q2 14 22 27q117 55 136 158q-53 14 -39 71l12 43q6 29 30.5 48.5t52.5 19.5t43 -20.5t9 -47.5l-14 -51q-37 -158 -112 -218.5t-115 -60.5q-31 0 -25 31zM494 1075q2 14 22 27q117 55 135 158q-53 14 -39 71l13 43q6 29 30.5 48.5t52 19.5t43 -20.5t9.5 -47.5 l-15 -51q-37 -158 -111.5 -218.5t-115.5 -60.5q-30 0 -24 31z" />
<glyph unicode="&#x201e;" horiz-adv-x="839" d="M115 -184q8 18 24 26q121 59 137 158q-53 16 -36 72l10 43q8 29 32.5 48t53.5 19t43 -19.5t6 -47.5l-12 -52q-43 -158 -111 -213q-84 -66 -125 -65q-28 0 -22 31zM483 -184q8 18 25 26q121 59 137 158q-53 16 -37 72l10 43q8 29 34 48t53.5 19t42 -20.5t6.5 -46.5 l-13 -52q-43 -158 -110 -213q-84 -66 -125 -65q-29 0 -23 31z" />
<glyph unicode="&#x2026;" horiz-adv-x="1392" d="M168 57.5q0 20.5 15.5 36t37 15.5t35.5 -15.5t14 -36t-14 -36t-34.5 -15.5t-37 15.5t-16.5 36zM487 57.5q0 20.5 15.5 36t37 15.5t36 -15.5t14.5 -36t-14.5 -36t-35 -15.5t-37 15.5t-16.5 36zM807 57.5q0 20.5 15.5 36t37 15.5t35.5 -15.5t14 -36t-14 -36t-34.5 -15.5 t-37 15.5t-16.5 36z" />
<glyph unicode="&#x202f;" horiz-adv-x="378" />
<glyph unicode="&#x2039;" horiz-adv-x="636" d="M115 514q6 18 28 45l346 367q6 6 20.5 8t26 -3t10.5 -22.5t-14 -27.5l-354 -369l225 -365q12 -16 8.5 -38.5t-30.5 -22.5t-37 18l-217 365q-14 27 -12 45z" />
<glyph unicode="&#x203a;" horiz-adv-x="636" d="M141 113.5q2 17.5 13 27.5l354 369l-225 364q-12 16 -8 39t30.5 23t36.5 -18l217 -365q14 -27 12 -45q-6 -18 -28 -45l-346 -367q-6 -6 -20.5 -8t-26 3t-9.5 22.5z" />
<glyph unicode="&#x205f;" horiz-adv-x="472" />
<glyph unicode="&#x2122;" horiz-adv-x="1413" d="M45 1418.5q0 11.5 10 11.5h426q10 0 10.5 -11.5t-10.5 -11.5h-205l-100 -580q-4 -8 -13 -8t-9 12l100 576h-199q-10 0 -10 11.5zM547 834l104 587q4 8 13 9h2q6 0 8 -7l176 -323l291 325q4 4 10 5h2q10 0 10 -13l-104 -588q-4 -10 -10 -10h-5q-8 2 -8 15l99 552 l-277 -309q-4 -4 -8 -4h-4q-8 0 -8 6l-168 310l-101 -560q-4 -10 -10 -10h-2q-10 4 -10 15z" />
<glyph unicode="&#x25fc;" horiz-adv-x="1003" d="M0 0v1004h1004v-1004h-1004z" />
</font>
</defs>
</svg>
