<?xml version="1.0" standalone="no"?>
<!DOCTYPE svg PUBLIC "-//W3C//DTD SVG 1.1//EN" "http://www.w3.org/Graphics/SVG/1.1/DTD/svg11.dtd" >
<svg xmlns="http://www.w3.org/2000/svg" xmlns:xlink="http://www.w3.org/1999/xlink" version="1.1">
<metadata></metadata>
<defs>
<font id="fira_sansheavy" horiz-adv-x="1196" >
<font-face units-per-em="2048" ascent="1638" descent="-410" />
<missing-glyph horiz-adv-x="450" />
<glyph horiz-adv-x="0" />
<glyph horiz-adv-x="682" />
<glyph unicode="&#xd;" horiz-adv-x="681" />
<glyph unicode=" "  horiz-adv-x="450" />
<glyph unicode="&#x09;" horiz-adv-x="450" />
<glyph unicode="&#xa0;" horiz-adv-x="450" />
<glyph unicode="!" horiz-adv-x="491" d="M33 1425h426l-53 -872h-320zM35 170q0 86 61.5 148.5t149.5 62.5t149.5 -62.5t61.5 -148.5t-61.5 -148.5t-149.5 -62.5t-149.5 62.5t-61.5 148.5z" />
<glyph unicode="&#x22;" horiz-adv-x="950" d="M82 1425h348l-45 -594h-258zM520 1425h348l-45 -594h-258z" />
<glyph unicode="#" horiz-adv-x="1187" d="M31 268v258h137l49 367h-111v258h144l33 242h333l-32 -242h139l33 242h334l-33 -242h100v-258h-133l-49 -367h106v-258h-141l-35 -268h-334l35 268h-139l-35 -268h-334l35 268h-102zM502 526h139l49 367h-139z" />
<glyph unicode="$" horiz-adv-x="1146" d="M0 186l197 215q154 -131 333 -131q84 0 126 33t42 88q0 59 -44 94t-175 76q-236 74 -329 178.5t-93 259.5q0 162 109.5 268.5t290.5 135.5v305h276v-307q209 -33 348 -172l-176 -209q-137 109 -291 108q-145 0 -145 -96q0 -51 46 -77.5t198 -75.5q213 -70 308 -172.5 t95 -280.5q0 -160 -101.5 -273.5t-281.5 -152.5v-338h-276v324q-276 25 -457 200z" />
<glyph unicode="%" horiz-adv-x="1800" d="M41 1044.5q0 172.5 110.5 276.5t272.5 104q164 0 273.5 -104t109.5 -276.5t-109.5 -276.5t-273.5 -104q-162 0 -272.5 104t-110.5 276.5zM309 57l948 1428l242 -150l-950 -1427zM311 1044.5q0 -147.5 113 -147.5q111 0 111 147.5t-111 147.5q-113 0 -113 -147.5zM991 340 q0 170 111.5 275.5t273.5 105.5q164 0 273.5 -104.5t109.5 -276.5t-109.5 -276.5t-273.5 -104.5q-162 0 -273.5 105.5t-111.5 275.5zM1263.5 340q0.5 -147 112.5 -147q111 0 111 147t-111 147q-113 0 -112.5 -147z" />
<glyph unicode="&#x26;" horiz-adv-x="1595" d="M96 367q0 121 63.5 210t209.5 185q-115 113 -155 185.5t-40 162.5q0 145 123 250.5t356 105.5q225 0 352.5 -95t127.5 -243q0 -121 -66 -212t-197 -183l228 -211q47 102 82 262l327 -96q-78 -217 -190 -366l258 -222l-361 -141l-137 131q-190 -131 -444 -131 q-242 0 -389.5 111.5t-147.5 296.5zM524 391q0 -70 49.5 -111.5t135.5 -41.5q98 0 174 36l-285 271q-74 -61 -74 -154zM561 1110q0 -41 16.5 -75t73.5 -91q96 72 97 176q0 43 -23 68.5t-66 25.5q-45 0 -71.5 -27.5t-26.5 -76.5z" />
<glyph unicode="'" horiz-adv-x="512" d="M82 1425h348l-45 -594h-258z" />
<glyph unicode="(" horiz-adv-x="665" d="M10 717q0 176 31 327.5t97.5 285.5t123 223.5t154.5 222.5l260 -174q-141 -197 -200.5 -409t-59.5 -476t59.5 -476t200.5 -409l-260 -174q-98 133 -154.5 222t-123 223.5t-97.5 286t-31 327.5z" />
<glyph unicode=")" horiz-adv-x="665" d="M-10 -168q141 197 200.5 409t59.5 476t-59.5 476t-200.5 409l260 174q98 -133 154.5 -222.5t123 -223.5t97 -285.5t30.5 -327.5t-30.5 -327.5t-97 -286t-123 -223.5t-154.5 -222z" />
<glyph unicode="*" horiz-adv-x="931" d="M0 1063l104 313l244 -131l-49 279h336l-49 -279l241 133l105 -313l-275 -37l203 -190l-272 -199l-121 252l-119 -254l-272 199l200 192z" />
<glyph unicode="+" horiz-adv-x="1126" d="M82 526v308h317v327h328v-327h317v-308h-317v-327h-328v327h-317z" />
<glyph unicode="," horiz-adv-x="491" d="M35 172q0 90 60.5 149.5t150.5 59.5t150.5 -60.5t60.5 -150.5q0 -76 -82 -260l-127 -287h-209l90 375q-94 59 -94 174z" />
<glyph unicode="-" horiz-adv-x="839" d="M72 487v308h696v-308h-696z" />
<glyph unicode="." horiz-adv-x="491" d="M35 170q0 86 61.5 148.5t149.5 62.5t149.5 -62.5t61.5 -148.5t-61.5 -148.5t-149.5 -62.5t-149.5 62.5t-61.5 148.5z" />
<glyph unicode="/" horiz-adv-x="1064" d="M111 -158l487 1841l356 -81l-485 -1842z" />
<glyph unicode="0" horiz-adv-x="1232" d="M55 694.5q0 352.5 145.5 541.5t416 189t416 -189t145.5 -541.5t-145.5 -544t-416 -191.5t-416 191.5t-145.5 544zM469 694q0 -258 30.5 -349t116.5 -91t117 88t31 352q0 182 -14.5 275.5t-44.5 128.5t-89 35q-86 0 -116.5 -91.5t-30.5 -347.5z" />
<glyph unicode="1" horiz-adv-x="987" d="M0 1098l494 295h360v-1393h-393v1008l-285 -174z" />
<glyph unicode="2" horiz-adv-x="1085" d="M-10 1167q188 258 510 258q246 0 381 -116.5t135 -290.5q0 -154 -98.5 -300.5t-411.5 -414.5h538l-40 -303h-957v279q344 326 449.5 457.5t105.5 236.5q0 70 -39 109.5t-108 39.5q-125 0 -234 -139z" />
<glyph unicode="3" horiz-adv-x="1089" d="M-31 184l211 207q135 -129 275 -129q80 0 130 41t50 119q0 170 -199 170h-123l45 270h84q84 0 127 38t43 104q0 61 -42 95t-115 34q-141 0 -262 -117l-199 209q207 200 512 200q236 0 365.5 -98t129.5 -254q0 -254 -274 -338q141 -16 231.5 -101t90.5 -247 q0 -180 -148.5 -304t-417.5 -124q-330 0 -514 225z" />
<glyph unicode="4" horiz-adv-x="1198" d="M41 274v265l383 897l346 -123l-313 -740h172l47 304h348v-304h143v-299h-143v-274h-397l-2 274h-584z" />
<glyph unicode="5" horiz-adv-x="1140" d="M10 190l223 203q102 -135 252 -135q92 0 141.5 52t49.5 153q0 199 -162 199q-68 0 -147 -50h-265v781h914l-43 -283h-481v-223q94 43 194 43q174 0 289 -123t115 -338q0 -229 -159 -369.5t-427 -140.5q-309 0 -494 231z" />
<glyph unicode="6" horiz-adv-x="1191" d="M55 627q0 362 176.5 580t479.5 218q197 0 333 -94l-145 -235q-88 51 -176 51q-207 0 -242 -295q123 98 273 98q184 0 295.5 -127t111.5 -346q0 -215 -144.5 -366.5t-395.5 -151.5q-283 0 -424.5 178t-141.5 490zM481 621q0 -213 31 -296t113 -83q131 0 131 233 q0 115 -30 161t-99 46q-72 0 -146 -61z" />
<glyph unicode="7" horiz-adv-x="987" d="M10 1094v299h957v-267l-506 -1167l-367 123l447 1012h-531z" />
<glyph unicode="8" horiz-adv-x="1226" d="M41 373q0 227 248 336q-195 127 -195 333q0 166 142.5 274.5t377.5 108.5q238 0 378.5 -97t140.5 -265q0 -86 -53 -170t-162 -145q268 -139 268 -369q0 -174 -153.5 -297t-428.5 -123q-262 0 -412.5 120t-150.5 294zM442 397q0 -70 48 -112.5t128 -42.5q82 0 124 41 t42 102q0 68 -36.5 106.5t-124.5 75.5l-78 29q-102 -70 -103 -199zM485 1036q0 -104 115 -164l49 -20q92 72 92 188q0 55 -32 88t-93 33q-131 0 -131 -125z" />
<glyph unicode="9" horiz-adv-x="1191" d="M31 934q0 217 158.5 354t400.5 137q270 0 415.5 -148.5t145.5 -389.5q0 -420 -227.5 -646.5t-714.5 -306.5l-80 279q266 55 393 135t187 232q-111 -111 -273 -111q-170 0 -287.5 127t-117.5 338zM436 954q0 -211 135 -211q98 0 164 93q2 176 -28.5 243.5t-120.5 67.5 q-68 0 -109 -49t-41 -144z" />
<glyph unicode=":" horiz-adv-x="491" d="M35 170q0 86 61.5 148.5t149.5 62.5t149.5 -62.5t61.5 -148.5t-61.5 -148.5t-149.5 -62.5t-149.5 62.5t-61.5 148.5zM35 850q0 86 61.5 148.5t149.5 62.5t149.5 -62.5t61.5 -148.5t-61.5 -148.5t-149.5 -62.5t-149.5 62.5t-61.5 148.5z" />
<glyph unicode=";" horiz-adv-x="491" d="M35 172q0 90 60.5 149.5t150.5 59.5t150.5 -60.5t60.5 -150.5q0 -76 -82 -260l-127 -287h-209l90 375q-94 59 -94 174zM35 850q0 86 61.5 148.5t149.5 62.5t149.5 -62.5t61.5 -148.5t-61.5 -148.5t-149.5 -62.5t-149.5 62.5t-61.5 148.5z" />
<glyph unicode="&#x3c;" horiz-adv-x="1085" d="M51 510v342l860 358l123 -270l-633 -258l633 -242l-123 -286z" />
<glyph unicode="=" horiz-adv-x="1085" d="M82 301v307h922v-307h-922zM82 752v307h922v-307h-922z" />
<glyph unicode="&#x3e;" horiz-adv-x="1085" d="M51 440l633 242l-633 258l123 270l860 -358v-342l-860 -356z" />
<glyph unicode="?" horiz-adv-x="1013" d="M10 1237q195 229 510 229q231 0 357.5 -101t126.5 -255q0 -92 -38 -162.5t-92.5 -111.5t-107.5 -76t-91 -80t-38 -100v-27h-361v39q0 100 31 174t76 113t90 67.5t76 58t31 66.5q0 80 -105 80q-109 0 -213 -111zM248 170q0 86 61.5 148.5t149.5 62.5t149.5 -62.5 t61.5 -148.5t-61.5 -148.5t-149.5 -62.5t-149.5 62.5t-61.5 148.5z" />
<glyph unicode="@" horiz-adv-x="2088" d="M72 498q0 426 285.5 697t721.5 271q215 0 394.5 -67.5t297 -181t182 -258t64.5 -302.5q0 -291 -134 -473t-339 -182q-113 0 -187.5 61.5t-90.5 145.5q-86 -197 -293 -197q-203 0 -295 127t-92 340q0 254 126.5 408.5t368.5 154.5q199 0 375 -98v-489q0 -129 13.5 -173 t56.5 -44q141 0 141 415q0 528 -590 529q-315 0 -483 -183.5t-168 -498.5q0 -326 167 -501t488 -175q219 0 408 72l92 -271q-94 -39 -236.5 -64.5t-265.5 -25.5q-465 0 -736 260t-271 703zM942 477q0 -131 18.5 -176t65.5 -45q59 0 92 57v471q-29 12 -59 13 q-117 0 -117 -320z" />
<glyph unicode="A" horiz-adv-x="1230" d="M-51 0l416 1425h503l414 -1425h-446l-56 276h-338l-53 -276h-440zM502 571h219l-111 559z" />
<glyph unicode="B" horiz-adv-x="1273" d="M88 0v1425h444q317 0 484.5 -85t167.5 -283q0 -233 -258 -301q317 -68 317 -334q0 -123 -48 -208t-140 -130t-205 -64.5t-262 -19.5h-500zM510 297h82q106 0 161.5 32.5t55.5 121.5q0 157 -198 157h-3h-98v-311zM510 874h72q96 0 135 32t39 108q0 63 -42.5 93t-142.5 30 h-61v-263z" />
<glyph unicode="C" d="M41 717q0 350 187.5 549.5t492.5 199.5q264 0 459 -168l-195 -229q-125 94 -244 94q-125 0 -193.5 -112.5t-68.5 -333.5q0 -440 269 -441q119 0 264 115l184 -233q-199 -199 -469 -199q-319 0 -502.5 196.5t-183.5 561.5z" />
<glyph unicode="D" horiz-adv-x="1343" d="M88 0v1425h457q127 0 230.5 -16t204.5 -63.5t170 -124t111 -204.5t42 -298q0 -166 -39 -293t-104.5 -207t-161 -130t-200 -69.5t-229.5 -19.5h-481zM510 297h84q147 0 210.5 92t63.5 330q0 233 -64.5 321t-207.5 88h-86v-831z" />
<glyph unicode="E" horiz-adv-x="1064" d="M88 0v1425h936l-43 -292h-471v-267h414v-284h-414v-287h504v-295h-926z" />
<glyph unicode="F" horiz-adv-x="993" d="M88 0v1425h905l-43 -292h-440v-312h387v-293h-387v-528h-422z" />
<glyph unicode="G" horiz-adv-x="1337" d="M41 715q0 352 201 551.5t518 199.5q293 0 506 -186l-205 -213q-145 104 -277 104q-309 0 -309 -458q0 -258 55.5 -356.5t184.5 -98.5q76 0 145 35v260h-143l-39 285h588v-715q-113 -78 -258.5 -121t-280.5 -43q-686 0 -686 756z" />
<glyph unicode="H" horiz-adv-x="1345" d="M88 0v1425h422v-526h326v526h421v-1425h-421v575h-326v-575h-422z" />
<glyph unicode="I" horiz-adv-x="598" d="M88 0v1425h422v-1425h-422z" />
<glyph unicode="J" horiz-adv-x="665" d="M-41 -90q127 49 164 122.5t37 209.5v1183h422v-1198q0 -115 -31 -209t-77 -155.5t-117.5 -112.5t-136 -79.5t-148.5 -57.5z" />
<glyph unicode="K" horiz-adv-x="1349" d="M88 0v1425h422v-1425h-422zM522 760l398 665h434l-404 -632l441 -793h-480z" />
<glyph unicode="L" horiz-adv-x="1069" d="M88 0v1425h422v-1101h539l-43 -324h-918z" />
<glyph unicode="M" horiz-adv-x="1619" d="M31 0l102 1425h520l164 -923l148 923h522l102 -1425h-415l-11 506q-2 86 -2 166q0 230 17 415l-168 -944h-400l-180 944q28 -283 28 -502q0 -40 -1 -77l-11 -508h-415z" />
<glyph unicode="N" horiz-adv-x="1333" d="M88 0v1425h518l324 -1044q-57 356 -58 588v456h373v-1425h-528l-311 1040q55 -371 55 -598v-442h-373z" />
<glyph unicode="O" horiz-adv-x="1413" d="M41 715q0 350 174.5 550.5t491.5 200.5q319 0 492 -197.5t173 -553.5q0 -352 -174 -554t-491 -202q-319 0 -492.5 199.5t-173.5 556.5zM479 715q0 -246 53.5 -351.5t174.5 -105.5q123 0 175 104.5t52 352.5q0 246 -53.5 349t-174 103t-174 -103t-53.5 -349z" />
<glyph unicode="P" horiz-adv-x="1251" d="M88 0v1425h514q293 0 456 -121.5t163 -357.5q0 -244 -155 -373t-417 -129h-139v-444h-422zM510 741h98q182 0 183 205q0 186 -195 187h-86v-392z" />
<glyph unicode="Q" horiz-adv-x="1413" d="M41 715q0 350 174 550.5t492 200.5q319 0 492 -197.5t173 -553.5q0 -416 -340 -617q270 0 443 -129l-248 -323q-109 143 -239 232t-312 89q-299 0 -467 196.5t-168 551.5zM479 715q0 -246 53.5 -351.5t174.5 -105.5q123 0 175 104.5t52 352.5q0 246 -53.5 349t-174 103 t-174 -103t-53.5 -349z" />
<glyph unicode="R" horiz-adv-x="1277" d="M88 0v1425h522q309 0 461 -109.5t152 -342.5q0 -133 -59.5 -221t-192.5 -166l348 -586h-467l-264 508h-78v-508h-422zM510 791h111q172 0 172 182q0 164 -193 164h-90v-346z" />
<glyph unicode="S" horiz-adv-x="1204" d="M0 174l207 227q162 -139 350 -139q88 0 133 36t45 93q0 63 -46 99t-185 79q-248 78 -346.5 187.5t-98.5 273.5q0 199 155.5 317.5t397.5 118.5q326 0 527 -194l-187 -219q-142 114 -302 114h-3q-153 0 -153 -101q0 -54 48 -83t208 -80q225 -72 324.5 -180.5t99.5 -296.5 q0 -209 -162 -338t-439 -129q-350 0 -573 215z" />
<glyph unicode="T" horiz-adv-x="1134" d="M10 1110v315h1135l-43 -315h-324v-1110h-422v1110h-346z" />
<glyph unicode="U" horiz-adv-x="1318" d="M68 483v942h421v-929q0 -121 40 -177.5t130.5 -56.5t130 56.5t39.5 177.5v929h422v-942q0 -229 -151.5 -376.5t-440.5 -147.5q-293 0 -442 141.5t-149 382.5z" />
<glyph unicode="V" horiz-adv-x="1185" d="M-51 1425h444l217 -1132l195 1132h432l-360 -1425h-545z" />
<glyph unicode="W" horiz-adv-x="1759" d="M0 1425h422l90 -1120l152 1120h440l127 -1120l123 1120h405l-207 -1425h-548l-127 1024l-142 -1024h-536z" />
<glyph unicode="X" horiz-adv-x="1241" d="M-20 0l380 756l-354 669h453l155 -409l174 409h445l-369 -657l398 -768h-455l-197 489l-184 -489h-446z" />
<glyph unicode="Y" horiz-adv-x="1269" d="M-31 1425h461l211 -581l213 581h446l-454 -899v-526h-422v524z" />
<glyph unicode="Z" horiz-adv-x="1140" d="M20 0v309l586 797h-528v319h1014v-313l-568 -782h586l-41 -330h-1049z" />
<glyph unicode="[" horiz-adv-x="665" d="M31 -260v1954h614v-293h-229v-1370h229v-291h-614z" />
<glyph unicode="\" horiz-adv-x="1064" d="M111 1602l356 81l487 -1841l-358 -82z" />
<glyph unicode="]" horiz-adv-x="665" d="M20 33h230v1370h-230v291h615v-1954h-615v293z" />
<glyph unicode="^" horiz-adv-x="1167" d="M10 1079l387 656h373l387 -656h-387l-188 365l-176 -365h-396z" />
<glyph unicode="_" horiz-adv-x="1064" d="M10 -78h1045v-307h-1045v307z" />
<glyph unicode="`" horiz-adv-x="745" d="M61 1458l152 295l471 -295l-109 -203z" />
<glyph unicode="a" horiz-adv-x="1128" d="M31 307q0 182 135 278.5t393 96.5h78v27q0 82 -33 110.5t-125 28.5q-115 0 -282 -57l-88 258q213 86 432 86q258 0 374.5 -99.5t116.5 -304.5v-377q0 -57 14.5 -84.5t51.5 -42.5l-82 -260q-111 8 -180.5 42t-114.5 110q-106 -160 -330 -160q-162 0 -261 97.5t-99 250.5z M426 346q0 -47 24.5 -74.5t65.5 -27.5q74 0 121 65v162h-43q-168 0 -168 -125z" />
<glyph unicode="b" horiz-adv-x="1226" d="M86 0v1524l406 41v-568q45 61 122.5 99.5t163.5 38.5q199 0 301.5 -155t102.5 -435q0 -256 -118 -421t-321 -165q-180 0 -282 135l-15 -94h-360zM492 328q47 -80 129 -80q145 0 145 297q0 176 -34 237.5t-97 61.5q-84 0 -143 -103v-413z" />
<glyph unicode="c" horiz-adv-x="980" d="M35 539q0 262 156.5 429t412.5 167q233 0 397 -146l-167 -235q-93 75 -190 75h-3q-94 0 -139 -65.5t-45 -224.5q0 -154 46 -210.5t134 -56.5q78 0 190 70l174 -248q-166 -135 -387 -135q-266 0 -422.5 160t-156.5 420z" />
<glyph unicode="d" horiz-adv-x="1230" d="M45 553q0 256 127 419t330 163q141 0 237 -86v516l406 -41v-1524h-361l-14 113q-117 -154 -309 -154q-207 0 -311.5 157.5t-104.5 436.5zM496.5 309.5q35.5 -59.5 101.5 -59.5q86 0 141 96v438q-57 61 -121 62q-157 0 -157 -293q0 -184 35.5 -243.5z" />
<glyph unicode="e" horiz-adv-x="1140" d="M35 545q0 254 142 422t403 168q246 0 391 -152t145 -422q0 -51 -8 -129h-664q16 -111 68.5 -148.5t151.5 -37.5q109 0 247 96l164 -221q-199 -162 -450 -162q-291 0 -440.5 161t-149.5 425zM442 662h275v14q-2 96 -30 149.5t-99 53.5q-68 0 -101.5 -47.5t-44.5 -169.5z " />
<glyph unicode="f" horiz-adv-x="755" d="M-4 819v275h147v63q0 178 119 293t344 115q182 0 322 -76l-107 -256q-75 41 -159 41q-59 0 -86 -31t-27 -106v-43h254l-45 -275h-209v-819h-406v819h-147z" />
<glyph unicode="g" horiz-adv-x="1167" d="M-10 -100h362q0 -61 40 -85t165 -24q186 0 186 94q0 80 -116 80h-152q-188 0 -278.5 60.5t-90.5 158.5q0 63 39 123t101 96q-111 59 -158 135t-47 185q0 195 139 303.5t375 108.5q14 -1 28 -1q250 0 496 169l88 -283q-109 -49 -311 -49q111 -47 162 -111.5t51 -175.5 q0 -158 -132 -259t-353 -101q-80 0 -117 6q-25 -12 -25 -39q0 -51 107 -51h158q203 0 323.5 -90.5t120.5 -235.5q0 -176 -156.5 -277.5t-449.5 -101.5q-164 0 -275.5 25.5t-171 77t-84 114t-24.5 148.5zM442 731q0 -74 35 -111.5t90 -37.5q125 0 125 155q0 135 -125 135 q-55 0 -90 -36.5t-35 -104.5z" />
<glyph unicode="h" horiz-adv-x="1171" d="M86 0v1524l406 41v-570q133 140 309 140q137 0 216 -86t79 -242v-807h-406v733q0 106 -61 107q-68 0 -137 -109v-731h-406z" />
<glyph unicode="i" horiz-adv-x="577" d="M61 1481q0 92 64.5 154.5t163 62.5t163 -62.5t64.5 -154.5t-64.5 -154.5t-163 -62.5t-163 62.5t-64.5 154.5zM86 0v1094h406v-1094h-406z" />
<glyph unicode="j" horiz-adv-x="577" d="M-143 -170q119 55 174 117.5t55 185.5v961h406v-936q0 -139 -38 -246t-111 -178.5t-155 -116.5t-192 -82zM61 1481q0 92 64.5 154.5t163 62.5t163 -62.5t64.5 -154.5t-64.5 -154.5t-163 -62.5t-163 62.5t-64.5 154.5z" />
<glyph unicode="k" horiz-adv-x="1179" d="M86 0v1524l406 41v-1565h-406zM500 598l293 496h401l-289 -480l305 -614h-448z" />
<glyph unicode="l" horiz-adv-x="614" d="M76 315v1209l405 41v-1233q0 -55 49 -56q23 0 43 9l72 -289q-96 -37 -225 -37q-166 0 -255 93t-89 263z" />
<glyph unicode="m" horiz-adv-x="1714" d="M86 0v1094h354l29 -111q125 152 317 152q180 0 246 -158q131 158 328 158q125 0 201.5 -87t76.5 -241v-807h-405v733q0 106 -55 107q-63 0 -113 -109v-731h-406v733q0 106 -55 107q-63 0 -112 -109v-731h-406z" />
<glyph unicode="n" horiz-adv-x="1171" d="M86 0v1094h354l29 -113q146 154 332 154q137 0 216 -86t79 -242v-807h-406v733q0 106 -61 107q-68 0 -137 -109v-731h-406z" />
<glyph unicode="o" d="M35 549q0 268 151.5 427t411.5 159q262 0 412.5 -154t150.5 -436q0 -268 -151.5 -427t-411.5 -159q-262 0 -412.5 153.5t-150.5 436.5zM451 549q0 -162 34.5 -230.5t112.5 -68.5t112.5 69.5t34.5 225.5q0 162 -34.5 230.5t-112.5 68.5t-112.5 -69.5t-34.5 -225.5z" />
<glyph unicode="p" horiz-adv-x="1226" d="M86 -465v1559h360l17 -107q123 148 309 148q203 0 306.5 -154t103.5 -430q0 -258 -121 -425t-316 -167q-156 0 -253 109v-492zM492 324q50 -76 120 -76q154 0 154 297q0 182 -33 240.5t-98 58.5q-86 0 -143 -103v-417z" />
<glyph unicode="q" horiz-adv-x="1230" d="M45 553q0 256 126 419t333 163q158 0 268 -117l19 76h354v-1559l-406 41v508q-106 -125 -278 -125q-207 0 -311.5 157.5t-104.5 436.5zM461 549q0 -180 35.5 -239.5t101.5 -59.5q86 0 141 96v438q-57 61 -118 62q-160 0 -160 -297z" />
<glyph unicode="r" horiz-adv-x="839" d="M86 0v1094h354l33 -205q35 109 111 174t166 65q53 0 110 -18l-63 -391q-55 16 -101 16q-90 0 -134 -59.5t-70 -177.5v-498h-406z" />
<glyph unicode="s" horiz-adv-x="1009" d="M-10 133l192 213q136 -108 276 -108h3q114 0 114 66q0 40 -33.5 59.5t-176.5 62.5q-317 94 -318 354q0 154 127 254.5t350 100.5q254 0 420 -142l-143 -219q-127 80 -260 80q-92 0 -92 -49q0 -31 35.5 -51.5t183.5 -65.5q164 -51 242.5 -130t78.5 -222 q0 -168 -144.5 -272.5t-373.5 -104.5q-297 0 -481 174z" />
<glyph unicode="t" horiz-adv-x="821" d="M-4 819v275h131v229l405 47v-276h246l-41 -275h-205v-411q0 -131 86 -132q52 0 103 29l131 -252q-133 -94 -328 -94q-397 2 -397 444v416h-131z" />
<glyph unicode="u" horiz-adv-x="1159" d="M76 307v787h405v-734q0 -106 68 -106q66 0 119 90v750h405v-1094h-354l-14 119q-115 -160 -324 -160q-154 0 -229.5 92t-75.5 256z" />
<glyph unicode="v" horiz-adv-x="1077" d="M-31 1094h441l137 -801l151 801h410l-326 -1094h-479z" />
<glyph unicode="w" horiz-adv-x="1572" d="M-10 1094h409l66 -785l143 785h379l115 -785l92 785h389l-215 -1094h-465l-119 733l-112 -733h-463z" />
<glyph unicode="x" horiz-adv-x="1081" d="M-41 0l334 573l-305 521h448l107 -322l96 322h424l-279 -508l338 -586h-452l-144 377l-131 -377h-436z" />
<glyph unicode="y" horiz-adv-x="1093" d="M-31 1094h430l138 -846l170 846h417l-336 -1092q-137 -455 -679 -469l-43 277q158 16 234.5 57t119.5 133h-139z" />
<glyph unicode="z" horiz-adv-x="966" d="M10 0v283l455 516h-414v295h881v-281l-449 -514h463l-35 -299h-901z" />
<glyph unicode="{" horiz-adv-x="665" d="M0 551v332q76 0 101.5 37.5t25.5 134.5v313q0 92 20.5 152.5t73.5 109.5t155.5 71.5t258.5 22.5v-274q-82 0 -106.5 -23.5t-24.5 -87.5v-315q0 -145 -60.5 -213t-187.5 -96q123 -20 186.5 -92t63.5 -213v-316q0 -63 24.5 -86.5t104.5 -23.5v-275q-156 0 -258.5 22.5 t-155.5 72t-73.5 110.5t-20.5 152v313q0 96 -25.5 134t-101.5 38z" />
<glyph unicode="|" horiz-adv-x="737" d="M178 -219v1882h381v-1882h-381z" />
<glyph unicode="}" horiz-adv-x="665" d="M31 -16q80 0 104.5 23.5t24.5 86.5v316q0 141 63.5 212.5t186.5 92.5q-127 29 -187.5 96.5t-60.5 212.5v315q0 63 -24.5 87t-106.5 24v274q156 0 258 -22.5t155.5 -71.5t74 -109.5t20.5 -152.5v-313q0 -96 25.5 -134t101.5 -38v-332q-76 0 -101.5 -38t-25.5 -134v-313 q0 -90 -20.5 -151.5t-74 -111t-156 -72t-257.5 -22.5v275z" />
<glyph unicode="~" horiz-adv-x="1085" d="M10 575q66 137 150 217t209 80q86 0 152.5 -30.5t116.5 -61t93 -30.5q23 0 39 4t32.5 17t24 19.5t24.5 29t21 28.5l203 -98q-66 -137 -149.5 -217t-208.5 -80q-86 0 -152.5 30.5t-117 61t-93.5 30.5q-18 0 -34.5 -5t-25.5 -8t-23.5 -18.5t-17.5 -19.5t-19.5 -26.5 t-18.5 -24.5z" />
<glyph unicode="&#xad;" horiz-adv-x="839" d="M72 487v308h696v-308h-696z" />
<glyph unicode="&#x149;" horiz-adv-x="1445" d="M51 1411q0 63 46 108.5t112 45.5q68 0 113 -44t45 -110q0 -61 -48 -151l-83 -164h-162l43 186q-66 51 -66 129zM360 0v1094h355l28 -113q146 154 332 154q137 0 216 -86t79 -242v-807h-405v733q0 106 -62 107q-68 0 -137 -109v-731h-406z" />
<glyph unicode="&#x400;" horiz-adv-x="1064" d="M88 0v1425h936l-43 -292h-471v-267h414v-284h-414v-287h504v-295h-926zM246 1720l145 295l477 -278l-102 -203z" />
<glyph unicode="&#x401;" horiz-adv-x="1064" d="M88 0v1425h936l-43 -292h-471v-267h414v-284h-414v-287h504v-295h-926zM106 1745q0 78 57.5 133t137.5 55q82 0 138.5 -55t56.5 -133q0 -80 -56.5 -135.5t-138.5 -55.5q-80 0 -137.5 55.5t-57.5 135.5zM608 1745q0 78 57.5 133t137.5 55q82 0 138 -55t56 -133 q0 -80 -56 -135.5t-138 -55.5q-80 0 -137.5 55.5t-57.5 135.5z" />
<glyph unicode="&#x402;" horiz-adv-x="1576" d="M10 1118v307h1135l-43 -307h-324v-229q125 96 293 96q225 0 345 -139t120 -385v-234q0 -115 -30.5 -209t-77 -155.5t-118 -112.5t-136 -79.5t-148.5 -57.5l-113 297q127 49 164 122.5t37 209.5v219q0 119 -38 172t-124 53q-102 0 -174 -55v-631h-422v1118h-346z" />
<glyph unicode="&#x403;" horiz-adv-x="1046" d="M88 0v1425h969l-41 -323h-506v-1102h-422zM274 1737l480 278l143 -295l-520 -186z" />
<glyph unicode="&#x404;" d="M41 717q0 350 185.5 549.5t486.5 199.5q270 0 467 -170l-197 -229q-121 102 -252 102q-106 0 -178 -78.5t-86 -222.5h457v-282h-457q10 -152 85 -237t183 -85q135 0 285 123l176 -227q-201 -201 -494 -201q-305 0 -483 197.5t-178 560.5z" />
<glyph unicode="&#x405;" horiz-adv-x="1204" d="M0 174l207 227q162 -139 350 -139q88 0 133 36t45 93q0 63 -46 99t-185 79q-248 78 -346.5 187.5t-98.5 273.5q0 199 155.5 317.5t397.5 118.5q326 0 527 -194l-187 -219q-143 115 -305 114q-154 0 -153 -102q0 -53 48 -82t208 -80q225 -72 324.5 -180.5t99.5 -296.5 q0 -209 -162 -338t-439 -129q-350 0 -573 215z" />
<glyph unicode="&#x406;" horiz-adv-x="598" d="M88 0v1425h422v-1425h-422z" />
<glyph unicode="&#x407;" horiz-adv-x="598" d="M-152 1745q0 78 57.5 133t137.5 55q82 0 138.5 -55t56.5 -133q0 -80 -56.5 -135.5t-138.5 -55.5q-80 0 -137.5 55.5t-57.5 135.5zM88 0v1425h422v-1425h-422zM350 1745q0 78 57.5 133t137.5 55q82 0 138 -55t56 -133q0 -80 -56 -135.5t-138 -55.5q-80 0 -137.5 55.5 t-57.5 135.5z" />
<glyph unicode="&#x408;" horiz-adv-x="665" d="M-41 -90q127 49 164 122.5t37 209.5v1183h422v-1198q0 -115 -31 -209t-77 -155.5t-117.5 -112.5t-136 -79.5t-148.5 -57.5z" />
<glyph unicode="&#x409;" horiz-adv-x="1949" d="M-10 246q102 43 135 138t65 361l82 680h967v-464h111q281 0 430 -117t149 -348q0 -242 -154.5 -369t-408.5 -127h-549v1114h-192l-47 -401q-16 -141 -37 -241.5t-56.5 -194t-87 -154t-128 -103.5t-181.5 -61zM1239 297h72q180 0 180 195q0 186 -188 186h-64v-381z" />
<glyph unicode="&#x40a;" horiz-adv-x="1957" d="M88 0v1425h422v-485h315v485h422v-485h82q291 0 449.5 -115.5t158.5 -341.5q0 -240 -156.5 -361.5t-434.5 -121.5h-521v647h-315v-647h-422zM1247 299h72q180 0 180 182q0 86 -45 126t-156 40h-51v-348z" />
<glyph unicode="&#x40b;" horiz-adv-x="1576" d="M10 1118v307h1135l-43 -307h-324v-229q125 96 293 96q225 0 345 -139t120 -385v-461h-422v461q0 119 -38 172t-124 53q-102 0 -174 -55v-631h-422v1118h-346z" />
<glyph unicode="&#x40c;" horiz-adv-x="1318" d="M88 0v1425h422v-538h133l264 538h406l-326 -632l363 -793h-453l-264 590h-123v-590h-422zM348 1737l479 278l144 -295l-520 -186z" />
<glyph unicode="&#x40d;" horiz-adv-x="1333" d="M88 0v1425h412v-452q0 -248 -62 -563l318 1015h489v-1425h-411v436q0 307 61 590l-307 -1026h-500zM356 1720l146 295l477 -278l-102 -203z" />
<glyph unicode="&#x40e;" horiz-adv-x="1226" d="M-41 1425h432l246 -825l213 825h428l-360 -976q-98 -266 -249 -369t-431 -121l-54 277q131 10 205 38.5t123 94.5h-127zM236 1888l210 35q31 -121 168.5 -121t167.5 121l211 -35q-12 -164 -107 -262t-271.5 -98t-271.5 98t-107 262z" />
<glyph unicode="&#x40f;" horiz-adv-x="1335" d="M88 0v1425h422v-1101h315v1101h422v-1425h-418v-358h-280l-41 358h-420z" />
<glyph unicode="&#x410;" horiz-adv-x="1230" d="M-51 0l416 1425h503l414 -1425h-446l-56 276h-338l-53 -276h-440zM502 571h219l-111 559z" />
<glyph unicode="&#x411;" horiz-adv-x="1241" d="M88 0v1425h959l-41 -313h-496v-178h131q281 0 430.5 -114.5t149.5 -338.5q0 -231 -156 -356t-408 -125h-569zM510 297h92q90 0 135 48t45 132q0 174 -188 174h-84v-354z" />
<glyph unicode="&#x412;" horiz-adv-x="1273" d="M88 0v1425h444q317 0 484.5 -85t167.5 -283q0 -233 -258 -301q317 -68 317 -334q0 -123 -48 -208t-140 -130t-205 -64.5t-262 -19.5h-500zM510 297h82q106 0 161.5 32.5t55.5 121.5q0 158 -201 157h-98v-311zM510 874h72q96 0 135 32t39 108q0 63 -42.5 93t-142.5 30h-61 v-263z" />
<glyph unicode="&#x413;" horiz-adv-x="1046" d="M88 0v1425h969l-41 -323h-506v-1102h-422z" />
<glyph unicode="&#x414;" horiz-adv-x="1314" d="M-31 315h109q53 70 90 210.5t74 430.5l57 469h895v-1110h131v-673h-281l-40 358h-713l-41 -358h-281v673zM406 315h382v809h-137l-10 -116q-29 -297 -84 -455t-151 -238z" />
<glyph unicode="&#x415;" horiz-adv-x="1064" d="M88 0v1425h936l-43 -292h-471v-267h414v-284h-414v-287h504v-295h-926z" />
<glyph unicode="&#x416;" horiz-adv-x="1957" d="M-31 0l379 793l-342 632h406l284 -544h92v544h381v-544h93l288 544h402l-342 -632l379 -793h-453l-266 596h-101v-596h-381v596h-104l-270 -596h-445z" />
<glyph unicode="&#x417;" horiz-adv-x="1132" d="M-20 164l219 213q133 -119 266 -119q92 0 145.5 43t53.5 127q0 176 -220 176h-157l47 289h119q178 0 178 143q0 135 -154 135q-127 0 -262 -106l-188 205q207 197 514 196q236 0 378 -106.5t142 -274.5q0 -123 -83 -211t-257 -122q381 -41 381 -351q0 -205 -166 -323.5 t-438 -118.5q-326 0 -518 205z" />
<glyph unicode="&#x418;" horiz-adv-x="1333" d="M88 0v1425h412v-452q0 -248 -62 -563l318 1015h489v-1425h-411v436q0 307 61 590l-307 -1026h-500z" />
<glyph unicode="&#x419;" horiz-adv-x="1333" d="M88 0v1425h412v-452q0 -248 -62 -563l318 1015h489v-1425h-411v436q0 307 61 590l-307 -1026h-500zM289 1888l211 35q31 -121 168 -121t168 121l211 -35q-12 -164 -107.5 -262t-271.5 -98t-271.5 98t-107.5 262z" />
<glyph unicode="&#x41a;" horiz-adv-x="1318" d="M88 0v1425h422v-538h133l264 538h406l-326 -632l363 -793h-453l-264 590h-123v-590h-422z" />
<glyph unicode="&#x41b;" horiz-adv-x="1337" d="M-10 246q102 43 135 138t65 361l82 680h977v-1425h-422v1114h-202l-47 -401q-16 -141 -37 -241.5t-56.5 -194t-87 -154t-128 -103.5t-181.5 -61z" />
<glyph unicode="&#x41c;" horiz-adv-x="1619" d="M31 0l102 1425h520l164 -923l148 923h522l102 -1425h-415l-11 506q-8 332 15 581l-168 -944h-400l-180 944q33 -334 27 -579l-11 -508h-415z" />
<glyph unicode="&#x41d;" horiz-adv-x="1345" d="M88 0v1425h422v-526h326v526h421v-1425h-421v575h-326v-575h-422z" />
<glyph unicode="&#x41e;" horiz-adv-x="1413" d="M41 715q0 350 174.5 550.5t491.5 200.5q319 0 492 -197.5t173 -553.5q0 -352 -174 -554t-491 -202q-319 0 -492.5 199.5t-173.5 556.5zM479 715q0 -246 53.5 -351.5t174.5 -105.5q123 0 175 104.5t52 352.5q0 246 -53.5 349t-174 103t-174 -103t-53.5 -349z" />
<glyph unicode="&#x41f;" horiz-adv-x="1345" d="M88 0v1425h1169v-1425h-421v1110h-326v-1110h-422z" />
<glyph unicode="&#x420;" horiz-adv-x="1251" d="M88 0v1425h514q293 0 456 -121.5t163 -357.5q0 -244 -155 -373t-417 -129h-139v-444h-422zM510 741h98q182 0 183 205q0 186 -195 187h-86v-392z" />
<glyph unicode="&#x421;" d="M41 717q0 350 187.5 549.5t492.5 199.5q264 0 459 -168l-195 -229q-125 94 -244 94q-125 0 -193.5 -112.5t-68.5 -333.5q0 -440 269 -441q119 0 264 115l184 -233q-199 -199 -469 -199q-319 0 -502.5 196.5t-183.5 561.5z" />
<glyph unicode="&#x422;" horiz-adv-x="1134" d="M10 1110v315h1135l-43 -315h-324v-1110h-422v1110h-346z" />
<glyph unicode="&#x423;" horiz-adv-x="1226" d="M-41 1425h432l246 -825l213 825h428l-360 -976q-98 -266 -249 -369t-431 -121l-54 277q131 10 205 38.5t123 94.5h-127z" />
<glyph unicode="&#x424;" horiz-adv-x="1787" d="M20 707q0 307 178.5 461.5t489.5 172.5v166h410v-166q309 -16 489 -166.5t180 -455.5q0 -309 -179 -464t-490 -171v-174h-410v174q-309 16 -488.5 166.5t-179.5 456.5zM446 707q0 -178 62.5 -270.5t200.5 -108.5v768q-141 -14 -202 -109.5t-61 -279.5zM1077 330 q143 14 203.5 108t60.5 281q0 180 -62 272t-202 107v-768z" />
<glyph unicode="&#x425;" horiz-adv-x="1241" d="M-20 0l380 756l-354 669h453l155 -409l174 409h445l-369 -657l398 -768h-455l-197 489l-184 -489h-446z" />
<glyph unicode="&#x426;" horiz-adv-x="1431" d="M88 0v1425h422v-1101h315v1101h422v-1110h164v-673h-281l-40 358h-1002z" />
<glyph unicode="&#x427;" horiz-adv-x="1275" d="M20 924v501h414v-501q0 -119 38 -172.5t128 -53.5q100 0 166 56v671h422v-1425h-422v500q-119 -100 -291 -101q-217 0 -336 139.5t-119 385.5z" />
<glyph unicode="&#x428;" horiz-adv-x="1843" d="M88 0v1425h414v-1101h223v1101h393v-1101h223v1101h414v-1425h-1667z" />
<glyph unicode="&#x429;" horiz-adv-x="1939" d="M88 0v1425h414v-1101h223v1101h393v-1101h223v1101h414v-1110h164v-673h-281l-41 358h-1509z" />
<glyph unicode="&#x42a;" horiz-adv-x="1509" d="M10 1118v307h768v-464h131q281 0 430.5 -117t149.5 -348q0 -242 -154.5 -369t-408.5 -127h-570v1118h-346zM778 297h92q180 0 181 195q0 186 -189 186h-84v-381z" />
<glyph unicode="&#x42b;" horiz-adv-x="1779" d="M88 0v1425h422v-464h111q281 0 430 -117t149 -348q0 -242 -154.5 -369t-408.5 -127h-549zM510 297h72q180 0 180 195q0 186 -189 186h-63v-381zM1270 0v1425h422v-1425h-422z" />
<glyph unicode="&#x42c;" horiz-adv-x="1241" d="M88 0v1425h422v-464h131q281 0 430.5 -117t149.5 -348q0 -242 -155 -369t-409 -127h-569zM510 297h92q180 0 180 195q0 186 -188 186h-84v-381z" />
<glyph unicode="&#x42d;" horiz-adv-x="1114" d="M0 131l182 225q115 -92 236 -92q217 0 231 322h-438v282h438q-23 301 -209 301q-117 0 -231 -102l-197 229q98 86 205.5 128t261.5 42q285 0 439.5 -187t154.5 -542q0 -379 -165 -578.5t-455 -199.5q-274 0 -453 172z" />
<glyph unicode="&#x42e;" horiz-adv-x="1947" d="M88 0v1425h422v-526h141q97 567 611 567q311 0 478 -197.5t167 -553.5q0 -352 -168 -554t-477 -202q-279 0 -433.5 161t-185.5 455h-133v-575h-422zM1055 715q0 -246 48 -351.5t159 -105.5q113 0 159.5 104.5t46.5 352.5q0 246 -48 349t-158.5 103t-158.5 -103t-48 -349z " />
<glyph unicode="&#x42f;" horiz-adv-x="1247" d="M-31 0l303 559q-238 109 -237 397q0 240 151.5 354.5t456.5 114.5h516v-1425h-422v485h-96l-213 -485h-459zM473 944q0 -84 48 -130t126 -46h90v369h-73q-90 0 -140.5 -50.5t-50.5 -142.5z" />
<glyph unicode="&#x430;" horiz-adv-x="1128" d="M31 307q0 182 135 278.5t393 96.5h78v27q0 82 -33 110.5t-125 28.5q-115 0 -282 -57l-88 258q213 86 432 86q258 0 374.5 -99.5t116.5 -304.5v-377q0 -57 14.5 -84.5t51.5 -42.5l-82 -260q-111 8 -180.5 42t-114.5 110q-106 -160 -330 -160q-162 0 -261 97.5t-99 250.5z M426 346q0 -47 24.5 -74.5t65.5 -27.5q74 0 121 65v162h-43q-168 0 -168 -125z" />
<glyph unicode="&#x431;" horiz-adv-x="1167" d="M35 618q0 354 101.5 531.5t371.5 259.5q125 37 195.5 67.5t177.5 88.5l139 -246q-119 -78 -363 -154q-121 -37 -175 -101.5t-70 -201.5q114 152 311 152q172 0 291 -135.5t119 -374.5q0 -246 -148.5 -395.5t-396.5 -149.5q-260 0 -406.5 162t-146.5 497zM451 483 q0 -233 133 -233q68 0 100.5 54t32.5 188q0 137 -29 184t-92 47q-94 0 -145 -92v-148z" />
<glyph unicode="&#x432;" horiz-adv-x="1130" d="M86 0v1083q285 51 475 52q233 0 361.5 -75t128.5 -222q0 -191 -236 -234q281 -35 281 -274q0 -164 -136.5 -247t-369.5 -83h-504zM492 252h81q109 0 109 119q0 115 -109 114h-81v-233zM492 674h61q47 0 74.5 28.5t27.5 79.5q0 109 -104 109q-33 0 -59 -2v-215z" />
<glyph unicode="&#x433;" horiz-adv-x="892" d="M86 0v1094h827l-47 -301h-374v-793h-406z" />
<glyph unicode="&#x434;" horiz-adv-x="1132" d="M0 291h63q45 35 72 124t47 328l31 351h823v-803h117v-649h-266l-41 358h-539l-41 -358h-266v649zM352 291h312v549h-109l-6 -64q-20 -223 -65.5 -332.5t-131.5 -152.5z" />
<glyph unicode="&#x435;" horiz-adv-x="1140" d="M35 545q0 254 142 422t403 168q246 0 391 -152t145 -422q0 -51 -8 -129h-664q16 -111 68.5 -148.5t151.5 -37.5q109 0 247 96l164 -221q-199 -162 -450 -162q-291 0 -440.5 161t-149.5 425zM442 662h275v14q-2 96 -30 149.5t-99 53.5q-68 0 -101.5 -47.5t-44.5 -169.5z " />
<glyph unicode="&#x436;" horiz-adv-x="1599" d="M-10 0l254 586l-238 508h373l172 -420h76v420h346v-420h76l174 420h370l-237 -508l254 -586h-404l-164 449h-69v-449h-346v449h-70l-166 -449h-401z" />
<glyph unicode="&#x437;" horiz-adv-x="1015" d="M-10 88l186 219q121 -70 260 -69q129 0 129 100q0 96 -129 96h-186l22 246h138q113 0 112 98q0 86 -102 86q-109 0 -215 -65l-185 207q191 129 461 129q197 0 323 -84t126 -224q0 -186 -252 -245q303 -41 303 -271q0 -172 -142.5 -262t-387.5 -90q-279 0 -461 129z" />
<glyph unicode="&#x438;" horiz-adv-x="1198" d="M86 0v1094h383v-336q0 -197 -57 -393l305 729h395v-1094h-381v328q0 182 57 393l-309 -721h-393z" />
<glyph unicode="&#x439;" horiz-adv-x="1198" d="M86 0v1094h383v-336q0 -197 -57 -393l305 729h395v-1094h-381v328q0 182 57 393l-309 -721h-393zM221 1642l211 35q31 -121 168 -121t168 121l211 -35q-12 -164 -107.5 -262t-271.5 -98t-271.5 98.5t-107.5 261.5z" />
<glyph unicode="&#x43a;" horiz-adv-x="1159" d="M86 0v1094h406v-420h86l210 420h375l-264 -508l281 -586h-414l-199 449h-75v-449h-406z" />
<glyph unicode="&#x43b;" horiz-adv-x="1161" d="M0 260q68 35 92.5 64.5t39.5 100.5t26 239l26 430h891v-1094h-405v805h-131l-15 -156q-14 -152 -26.5 -235.5t-40 -170.5t-70.5 -132t-113.5 -81t-175.5 -57z" />
<glyph unicode="&#x43c;" horiz-adv-x="1376" d="M20 0l91 1094h464l113 -660l107 660h469l92 -1094h-381l-8 315q-8 219 16 433l-133 -644h-324l-135 644q23 -172 17 -433l-9 -315h-379z" />
<glyph unicode="&#x43d;" horiz-adv-x="1191" d="M86 0v1094h406v-396h208v396h406v-1094h-406v408h-208v-408h-406z" />
<glyph unicode="&#x43e;" d="M35 549q0 268 151.5 427t411.5 159q262 0 412.5 -154t150.5 -436q0 -268 -151.5 -427t-411.5 -159q-262 0 -412.5 153.5t-150.5 436.5zM451 549q0 -162 34.5 -230.5t112.5 -68.5t112.5 69.5t34.5 225.5q0 162 -34.5 230.5t-112.5 68.5t-112.5 -69.5t-34.5 -225.5z" />
<glyph unicode="&#x43f;" horiz-adv-x="1183" d="M86 0v1094h1012v-1094h-406v801h-200v-801h-406z" />
<glyph unicode="&#x440;" horiz-adv-x="1226" d="M86 -465v1559h360l17 -107q123 148 309 148q203 0 306.5 -154t103.5 -430q0 -258 -121 -425t-316 -167q-156 0 -253 109v-492zM492 324q50 -76 120 -76q154 0 154 297q0 182 -33 240.5t-98 58.5q-86 0 -143 -103v-417z" />
<glyph unicode="&#x441;" horiz-adv-x="980" d="M35 539q0 262 156.5 429t412.5 167q233 0 397 -146l-167 -235q-94 76 -193 75q-94 0 -139 -65.5t-45 -224.5q0 -154 46 -210.5t134 -56.5q78 0 190 70l174 -248q-166 -135 -387 -135q-266 0 -422.5 160t-156.5 420z" />
<glyph unicode="&#x442;" horiz-adv-x="993" d="M0 801v293h1014l-51 -293h-263v-801h-405v801h-295z" />
<glyph unicode="&#x443;" horiz-adv-x="1093" d="M-31 1094h430l138 -846l170 846h417l-336 -1092q-137 -455 -679 -469l-43 277q158 16 234.5 57t119.5 133h-139z" />
<glyph unicode="&#x444;" horiz-adv-x="1742" d="M45 545q0 279 104.5 434.5t294.5 155.5q137 0 238 -103v533l379 -41v-494q104 105 258 105q190 0 284.5 -153t94.5 -437q0 -270 -108.5 -428t-284.5 -158q-147 0 -244 107v-490l-379 -41v531q-96 -106 -244 -107q-176 0 -284.5 157.5t-108.5 428.5zM451 545 q0 -168 29.5 -234.5t90.5 -66.5q57 0 111 67v467q-51 72 -111 72q-63 0 -91.5 -65.5t-28.5 -239.5zM1061 311q53 -67 112.5 -67t89 66.5t29.5 234.5q0 176 -25.5 240.5t-85 64.5t-120.5 -72v-467z" />
<glyph unicode="&#x445;" horiz-adv-x="1081" d="M-41 0l334 573l-305 521h448l107 -322l96 322h424l-279 -508l338 -586h-452l-144 377l-131 -377h-436z" />
<glyph unicode="&#x446;" horiz-adv-x="1228" d="M86 0v1094h406v-803h188v803h405v-803h164v-649h-266l-41 358h-856z" />
<glyph unicode="&#x447;" horiz-adv-x="1126" d="M31 635v459h405v-406q0 -106 74 -106q68 0 125 43v469h405v-1094h-405v379q-127 -92 -289 -92q-160 0 -237.5 92t-77.5 256z" />
<glyph unicode="&#x448;" horiz-adv-x="1583" d="M86 0v1094h385v-803h154v803h333v-803h154v803h385v-1094h-1411z" />
<glyph unicode="&#x449;" horiz-adv-x="1640" d="M86 0v1094h385v-803h154v803h333v-803h154v803h385v-803h164v-649h-266l-41 358h-1268z" />
<glyph unicode="&#x44a;" horiz-adv-x="1286" d="M0 809v285h700v-334h37q276 0 407.5 -94.5t131.5 -288.5q0 -180 -130 -278.5t-353 -98.5h-498v809h-295zM700 252h48q121 0 120 133q0 129 -137 129h-31v-262z" />
<glyph unicode="&#x44b;" horiz-adv-x="1593" d="M86 0v1094h406v-334h16q276 0 407.5 -94.5t131.5 -288.5q0 -180 -130.5 -278.5t-353.5 -98.5h-477zM492 252h26q121 0 121 133q0 129 -137 129h-10v-262zM1102 0v1094h405v-1094h-405z" />
<glyph unicode="&#x44c;" horiz-adv-x="1077" d="M86 0v1094h406v-334h36q276 0 407.5 -94.5t131.5 -288.5q0 -180 -130 -278.5t-353 -98.5h-498zM492 252h47q121 0 120 133q0 129 -137 129h-30v-262z" />
<glyph unicode="&#x44d;" horiz-adv-x="997" d="M0 84l168 225q104 -63 201 -63q170 0 188 203h-358v213h356q-14 186 -158 186q-104 0 -204 -66l-168 217q167 136 407 136q246 0 388.5 -147.5t142.5 -428.5q0 -276 -150.5 -438t-425.5 -162q-215 0 -387 125z" />
<glyph unicode="&#x44e;" horiz-adv-x="1679" d="M86 0v1094h406v-408h116q39 213 169 331t341 118q238 0 382.5 -155t144.5 -435q0 -266 -145.5 -426t-381.5 -160q-215 0 -346 118t-170 343h-110v-420h-406zM997 549q0 -164 28 -231.5t93.5 -67.5t93 68.5t27.5 226.5q0 164 -27.5 231.5t-93 67.5t-93.5 -68.5t-28 -226.5 z" />
<glyph unicode="&#x44f;" horiz-adv-x="1146" d="M-31 0l248 455q-156 84 -156 268q0 371 549 371h451v-1094h-406v358h-80l-178 -358h-428zM471 719q0 -61 34 -100t97 -39h53v268h-45q-70 0 -104.5 -36t-34.5 -93z" />
<glyph unicode="&#x450;" horiz-adv-x="1140" d="M35 545q0 254 142 422t403 168q246 0 391 -152t145 -422q0 -51 -8 -129h-664q16 -111 68.5 -148.5t151.5 -37.5q109 0 247 96l164 -221q-199 -162 -450 -162q-291 0 -440.5 161t-149.5 425zM293 1458l151 295l471 -295l-108 -203zM442 662h275v14q-2 96 -30 149.5 t-99 53.5q-68 0 -101.5 -47.5t-44.5 -169.5z" />
<glyph unicode="&#x451;" horiz-adv-x="1140" d="M35 545q0 254 142 422t403 168q246 0 391 -152t145 -422q0 -51 -8 -129h-664q16 -111 68.5 -148.5t151.5 -37.5q109 0 247 96l164 -221q-199 -162 -450 -162q-291 0 -440.5 161t-149.5 425zM137 1487q0 78 57.5 133t137.5 55q82 0 138 -55t56 -133q0 -80 -56 -135.5 t-138 -55.5q-80 0 -137.5 55.5t-57.5 135.5zM442 662h275v14q-2 96 -30 149.5t-99 53.5q-68 0 -101.5 -47.5t-44.5 -169.5zM639 1487q0 78 57.5 133t137.5 55q82 0 138 -55t56 -133q0 -80 -56 -135.5t-138 -55.5q-80 0 -137.5 55.5t-57.5 135.5z" />
<glyph unicode="&#x452;" horiz-adv-x="1191" d="M0 1208v217h106v99l406 41v-140h256v-217h-256v-213q133 140 309 140q137 0 216 -86t79 -242v-649q0 -139 -38 -246t-110.5 -178.5t-154.5 -116.5t-192 -82l-140 295q119 55 174.5 117.5t55.5 185.5v600q0 106 -62 107q-68 0 -137 -109v-731h-406v1208h-106z" />
<glyph unicode="&#x453;" horiz-adv-x="892" d="M86 0v1094h827l-47 -301h-374v-793h-406zM168 1458l471 295l152 -295l-515 -203z" />
<glyph unicode="&#x454;" horiz-adv-x="1001" d="M35 539q0 262 156.5 429t412.5 167q233 0 397 -146l-167 -217q-94 76 -203 76q-88 0 -136.5 -44t-54.5 -142h359v-213h-359q9 -203 195 -203q100 0 199 76l167 -228q-172 -135 -380 -135q-270 0 -428 160t-158 420z" />
<glyph unicode="&#x455;" horiz-adv-x="1009" d="M-10 133l192 213q137 -109 279 -108q115 0 114 67q0 39 -33.5 58.5t-176.5 62.5q-317 94 -318 354q0 154 127 254.5t350 100.5q254 0 420 -142l-143 -219q-127 80 -260 80q-92 0 -92 -49q0 -31 35.5 -51.5t183.5 -65.5q164 -51 242.5 -130t78.5 -222 q0 -168 -144.5 -272.5t-373.5 -104.5q-297 0 -481 174z" />
<glyph unicode="&#x456;" horiz-adv-x="577" d="M61 1481q0 92 64.5 154.5t163 62.5t163 -62.5t64.5 -154.5t-64.5 -154.5t-163 -62.5t-163 62.5t-64.5 154.5zM86 0v1094h406v-1094h-406z" />
<glyph unicode="&#x457;" horiz-adv-x="577" d="M-158 1487q0 78 57.5 133t137.5 55q82 0 138 -55t56 -133q0 -80 -56 -135.5t-138 -55.5q-80 0 -137.5 55.5t-57.5 135.5zM86 0v1094h406v-1094h-406zM344 1487q0 78 57.5 133t137.5 55q82 0 138 -55t56 -133q0 -80 -56 -135.5t-138 -55.5q-80 0 -137.5 55.5t-57.5 135.5z " />
<glyph unicode="&#x458;" horiz-adv-x="577" d="M-143 -170q119 55 174 117.5t55 185.5v961h406v-936q0 -139 -38 -246t-111 -178.5t-155 -116.5t-192 -82zM61 1481q0 92 64.5 154.5t163 62.5t163 -62.5t64.5 -154.5t-64.5 -154.5t-163 -62.5t-163 62.5t-64.5 154.5z" />
<glyph unicode="&#x459;" horiz-adv-x="1628" d="M0 260q68 35 92.5 64.5t39.5 100.5t26 239l26 430h879v-334h16q276 0 407.5 -94.5t131.5 -288.5q0 -180 -130 -278.5t-353 -98.5h-478v805h-118l-15 -156q-14 -152 -26.5 -235.5t-40 -170.5t-70.5 -132t-113.5 -81t-175.5 -57zM1063 252h27q121 0 120 133q0 129 -137 129 h-10v-262z" />
<glyph unicode="&#x45a;" horiz-adv-x="1671" d="M86 0v1094h406v-375h208v375h406v-375h16q539 0 539 -363q0 -168 -131 -262t-352 -94h-478v453h-208v-453h-406zM1106 246h33q70 0 100.5 27.5t30.5 91.5q0 61 -33 87.5t-115 26.5h-16v-233z" />
<glyph unicode="&#x45b;" horiz-adv-x="1191" d="M0 1208v217h106v99l406 41v-140h250v-217h-250v-213q133 140 309 140q137 0 216 -86t79 -242v-807h-405v733q0 106 -62 107q-68 0 -137 -109v-731h-406v1208h-106z" />
<glyph unicode="&#x45c;" horiz-adv-x="1159" d="M86 0v1094h406v-420h86l210 420h375l-264 -508l281 -586h-414l-199 449h-75v-449h-406zM248 1458l471 295l151 -295l-514 -203z" />
<glyph unicode="&#x45d;" horiz-adv-x="1198" d="M86 0v1094h383v-336q0 -197 -57 -393l305 729h395v-1094h-381v328q0 182 57 393l-309 -721h-393zM309 1458l152 295l471 -295l-109 -203z" />
<glyph unicode="&#x45e;" horiz-adv-x="1093" d="M-31 1094h430l138 -846l170 846h417l-336 -1092q-137 -455 -679 -469l-43 277q158 16 234.5 57t119.5 133h-139zM168 1642l211 35q31 -121 168 -121t168 121l211 -35q-12 -164 -107.5 -262t-271.5 -98t-271.5 98.5t-107.5 261.5z" />
<glyph unicode="&#x45f;" horiz-adv-x="1171" d="M86 0v1094h406v-803h188v803h405v-1094h-340v-358h-266l-41 358h-352z" />
<glyph unicode="&#x460;" horiz-adv-x="1875" d="M82 623q0 260 42 440t120 362h387q-4 -14 -19.5 -71.5t-20.5 -75.5t-18.5 -71.5t-19.5 -81t-16.5 -80t-14.5 -91.5t-9 -91t-7 -105t-2 -111q0 -211 29.5 -300t101.5 -89q100 0 100 152v407h416v-407q0 -86 21.5 -119t76.5 -33q68 0 95.5 88t27.5 301q0 162 -24.5 315.5 t-49 234.5t-73.5 228h405q80 -180 122 -360t42 -442q0 -664 -481 -664q-295 0 -373 264q-35 -135 -131 -199.5t-223 -64.5q-260 0 -382 162t-122 502z" />
<glyph unicode="&#x461;" horiz-adv-x="1581" d="M41 500q0 317 131 594h358q-96 -360 -96 -570q0 -274 98 -274q37 0 54.5 27.5t17.5 111.5v338l373 49v-387q0 -84 19.5 -111.5t58.5 -27.5q92 0 92 274q0 209 -96 570h358q131 -276 131 -594q0 -268 -113.5 -404.5t-306.5 -136.5q-139 0 -219 56.5t-113 187.5 q-37 -131 -112.5 -187.5t-210.5 -56.5q-201 0 -312.5 135t-111.5 406z" />
<glyph unicode="&#x462;" horiz-adv-x="1417" d="M0 1057v235h264v133h422v-133h301v-235h-301v-123h131q276 0 428 -114.5t152 -338.5q0 -231 -156 -356t-407 -125h-570v1057h-264zM686 297h92q90 0 135 48t45 132q0 174 -188 174h-84v-354z" />
<glyph unicode="&#x463;" horiz-adv-x="1097" d="M0 930v217h106v213l406 41v-254h270l-30 -217h-240v-170h37q276 0 407 -94.5t131 -288.5q0 -180 -130 -278.5t-353 -98.5h-498v930h-106zM512 252h47q121 0 121 133q0 129 -137 129h-31v-262z" />
<glyph unicode="&#x464;" horiz-adv-x="1789" d="M88 0v1425h422v-548h137q41 279 218 434t442 155q270 0 467 -170l-197 -229q-121 102 -252 102q-106 0 -178 -78.5t-86 -222.5h457v-282h-457q10 -152 85 -237t183 -85q135 0 285 123l176 -227q-201 -201 -494 -201q-272 0 -445 158.5t-208 455.5h-133v-573h-422z" />
<glyph unicode="&#x465;" horiz-adv-x="1558" d="M86 0v1094h406v-412h114q41 207 188.5 330t366.5 123q233 0 398 -146l-168 -217q-94 76 -203 76q-88 0 -136 -44t-55 -142h359v-213h-359q9 -203 195 -203q100 0 199 76l168 -228q-172 -135 -381 -135q-240 0 -391.5 126t-186.5 339h-108v-424h-406z" />
<glyph unicode="&#x466;" horiz-adv-x="1390" d="M-51 0l506 1425h489l498 -1425h-418l-139 498h-45v-500h-289v500h-47l-137 -498h-418zM582 782h223l-113 402z" />
<glyph unicode="&#x467;" horiz-adv-x="1245" d="M-31 0l432 1094h445l430 -1094h-377l-113 365h-41v-365h-256v365h-32l-111 -365h-377zM530 610h179l-91 291z" />
<glyph unicode="&#x468;" horiz-adv-x="1974" d="M88 -4v1425h422v-639h301l227 643h490l497 -1425h-417l-140 498h-45v-500h-288v500h-48l-137 -498h-418l175 489h-197v-493h-422zM1165 782h224l-113 402z" />
<glyph unicode="&#x469;" horiz-adv-x="1695" d="M86 0v1094h406v-463h247l162 463h445l380 -1094h-358l-106 385h-23v-385h-238v385h-22l-102 -385h-359l135 385h-161v-385h-406zM1047 631h147l-76 270z" />
<glyph unicode="&#x46a;" horiz-adv-x="1724" d="M-31 0l350 793h160l-280 387v245h1331v-245l-291 -387h170l346 -793h-428l-207 508h-63v-508h-381v508h-64l-215 -508h-428zM651 1153l215 -360l213 360h-428z" />
<glyph unicode="&#x46b;" horiz-adv-x="1497" d="M-10 0l280 653h148l-199 281v160h1045v-160l-201 -281h164l280 -653h-372l-144 408h-69v-408h-347v408h-69l-146 -408h-370zM608 877l135 -224l134 224h-269z" />
<glyph unicode="&#x46c;" horiz-adv-x="2111" d="M88 0v1425h422v-632h451l-236 387v245h1249v-245l-245 -387h165l248 -793h-424l-104 508h-72v-508h-381v508h-71l-105 -508h-428l156 500h-203v-500h-422zM1147 1153l205 -360l202 360h-407z" />
<glyph unicode="&#x46d;" horiz-adv-x="1787" d="M86 0v1094h406v-443h329l-180 283v160h1030v-160l-182 -283h166l143 -651h-350l-49 406h-62v-406h-333v406h-62l-49 -406h-348l88 406h-141v-406h-406zM1030 877l127 -226l127 226h-254z" />
<glyph unicode="&#x46e;" horiz-adv-x="1105" d="M41 1130v295h948v-284l-323 -328q197 -10 303 -117.5t106 -298.5q0 -113 -32.5 -196.5t-97 -135t-134.5 -81t-166 -52.5q-147 -35 -188 -55t-41 -53q0 -47 78 -76l-82 -213q-360 96 -361 338q0 125 84 193.5t262 111.5q145 35 194.5 81t49.5 140q0 100 -50 143.5 t-165 43.5h-217v219l323 325h-491zM98 1819l138 157l280 -176l281 176l137 -157l-297 -289h-242z" />
<glyph unicode="&#x46f;" horiz-adv-x="1089" d="M41 819v275h932v-250l-311 -260h18q174 0 271.5 -84t97.5 -226q0 -86 -32 -150.5t-92.5 -104t-126 -64.5t-155.5 -43q-135 -27 -179 -48.5t-44 -49.5q0 -37 78 -66l-82 -213q-164 41 -262.5 125t-98.5 203t87 188.5t272 110.5q125 29 173 55.5t48 71.5q0 41 -36 59.5 t-122 18.5h-248v198l277 254h-465zM90 1542l137 158l281 -197l280 197l138 -158l-297 -309h-242z" />
<glyph unicode="&#x470;" horiz-adv-x="1531" d="M20 883v542h402v-561q0 -90 35 -145t118 -80v786h381v-784q154 47 154 223v561h401v-542q0 -207 -135 -344.5t-399 -176.5v-362h-422v360q-266 39 -400.5 172.5t-134.5 350.5z" />
<glyph unicode="&#x471;" horiz-adv-x="1628" d="M72 420v674h395v-654q0 -84 37 -133t123 -67v854h385v-850q170 41 170 262q0 256 -56 588h387q64 -291 64 -598q0 -233 -151.5 -369.5t-413.5 -161.5v-389l-385 -41v428q-272 25 -413.5 147.5t-141.5 309.5z" />
<glyph unicode="&#x472;" horiz-adv-x="1413" d="M41 715q0 350 174.5 550.5t491.5 200.5q319 0 492 -197.5t173 -553.5q0 -352 -174 -554t-491 -202q-319 0 -492.5 199.5t-173.5 556.5zM471 610q12 -186 69.5 -269t166.5 -83q111 0 167 83t68 269h-471zM473 827h467q-12 180 -69.5 260t-164 80t-164 -79.5t-69.5 -260.5z " />
<glyph unicode="&#x473;" d="M35 549q0 268 151.5 427t411.5 159q262 0 412.5 -154t150.5 -436q0 -268 -151.5 -427t-411.5 -159q-262 0 -412.5 153.5t-150.5 436.5zM442 453q8 -111 45 -160t111 -49q72 0 108.5 50t47.5 159h-312zM444 657h308q-10 102 -47 147.5t-107 45.5q-133 0 -154 -193z" />
<glyph unicode="&#x474;" horiz-adv-x="1351" d="M-51 1425h442l219 -1132l113 766q59 408 414 407q156 0 276 -75l-106 -240q-49 25 -84 25q-39 0 -61.5 -23t-37.5 -78l-247 -1075h-545z" />
<glyph unicode="&#x475;" horiz-adv-x="1122" d="M-31 1094h441l137 -801l112 588q33 172 111 249.5t227 77.5q96 0 187 -26l-60 -269q-25 8 -53 9q-31 0 -49.5 -16.5t-30.5 -63.5l-209 -842h-479z" />
<glyph unicode="&#x476;" horiz-adv-x="1351" d="M-51 1425h442l219 -1132l113 766q59 408 414 407q156 0 276 -75l-106 -240q-49 25 -84 25q-39 0 -61.5 -23t-37.5 -78l-247 -1075h-545zM78 1929l252 125l213 -432l-197 -94zM463 1939l256 115l196 -438l-200 -80z" />
<glyph unicode="&#x477;" horiz-adv-x="1122" d="M-31 1094h441l137 -801l112 588q33 172 111 249.5t227 77.5q96 0 187 -26l-60 -269q-25 8 -53 9q-31 0 -49.5 -16.5t-30.5 -63.5l-209 -842h-479zM45 1671l252 125l213 -432l-197 -94zM430 1681l256 115l197 -438l-201 -80z" />
<glyph unicode="&#x478;" horiz-adv-x="2506" d="M41 715q0 350 174.5 550.5t491.5 200.5q319 0 492 -197.5t173 -553.5q0 -352 -174 -554t-491 -202q-319 0 -492.5 199.5t-173.5 556.5zM479 715q0 -246 53.5 -351.5t174.5 -105.5q123 0 175 104.5t52 352.5q0 246 -53.5 349t-174 103t-174 -103t-53.5 -349zM1382 1094 h430l138 -846l170 846h417l-335 -1092q-137 -455 -680 -469l-43 277q158 16 234.5 57t119.5 133h-139z" />
<glyph unicode="&#x479;" horiz-adv-x="2269" d="M35 549q0 268 151.5 427t411.5 159q262 0 412.5 -154t150.5 -436q0 -268 -151.5 -427t-411.5 -159q-262 0 -412.5 153.5t-150.5 436.5zM451 549q0 -162 34.5 -230.5t112.5 -68.5t112.5 69.5t34.5 225.5q0 162 -34.5 230.5t-112.5 68.5t-112.5 -69.5t-34.5 -225.5z M1145 1094h430l137 -846l170 846h418l-336 -1092q-137 -455 -680 -469l-43 277q158 16 234.5 57t119.5 133h-139z" />
<glyph unicode="&#x48a;" horiz-adv-x="1449" d="M88 0v1425h412v-452q0 -248 -62 -563l318 1015h489v-1110h246l-205 -673h-280l81 358h-253v436q0 307 61 590l-307 -1026h-500zM289 1888l211 35q31 -121 168 -121t168 121l211 -35q-12 -164 -107.5 -262t-271.5 -98t-271.5 98t-107.5 262z" />
<glyph unicode="&#x48b;" horiz-adv-x="1316" d="M86 0v1094h383v-336q0 -197 -57 -393l305 729h395v-803h246l-205 -649h-266l82 358h-238v328q0 182 57 393l-309 -721h-393zM221 1642l211 35q31 -121 168 -121t168 121l211 -35q-12 -164 -107.5 -262t-271.5 -98t-271.5 98.5t-107.5 261.5z" />
<glyph unicode="&#x48c;" horiz-adv-x="1273" d="M20 1057v235h101v133h422v-133h245v-235h-245v-123h131q276 0 427.5 -114.5t151.5 -338.5q0 -231 -155.5 -356t-407.5 -125h-569v1057h-101zM543 297h92q90 0 135 48t45 132q0 174 -188 174h-84v-354z" />
<glyph unicode="&#x48d;" horiz-adv-x="1097" d="M0 807v217h106v70h406v-70h270l-30 -217h-240v-88h37q539 0 538 -363q0 -168 -131 -262t-352 -94h-498v807h-106zM512 252h47q59 0 90 31.5t31 81.5q0 109 -137 108h-31v-221z" />
<glyph unicode="&#x48e;" horiz-adv-x="1251" d="M88 0v1425h514q293 0 456 -121.5t163 -357.5q0 -311 -252 -436l102 -166h-162l-73 121q-82 -20 -187 -21h-139v-444h-422zM510 721h98q27 0 68 4l-156 256h162l106 -174q23 51 23 139q0 92 -50 139.5t-165 47.5h-86v-412z" />
<glyph unicode="&#x48f;" horiz-adv-x="1226" d="M86 -465v1559h360l17 -107q123 147 301 148q209 0 313.5 -152.5t104.5 -431.5q0 -186 -66.5 -330.5t-183.5 -212.5l121 -196h-162l-92 151q-33 -4 -54 -4q-145 0 -253 94v-477zM492 283q50 -76 120 -76q25 0 37 2l-147 240h162l84 -136q18 74 18 232q0 127 -19.5 194.5 t-46 86t-73.5 18.5q-78 0 -135 -103v-458z" />
<glyph unicode="&#x490;" horiz-adv-x="1046" d="M88 0v1425h584v324h385v-324l-41 -323h-506v-1102h-422z" />
<glyph unicode="&#x491;" horiz-adv-x="892" d="M86 0v1094h469v331h358v-331l-47 -301h-374v-793h-406z" />
<glyph unicode="&#x492;" horiz-adv-x="1067" d="M-27 649v238h136v538h968l-41 -323h-506v-215h273v-238h-273v-649h-421v649h-136z" />
<glyph unicode="&#x493;" horiz-adv-x="913" d="M0 428v205h106v461h828l-47 -301h-375v-160h215v-205h-215v-428h-406v428h-106z" />
<glyph unicode="&#x494;" horiz-adv-x="1308" d="M88 0v1425h959l-41 -313h-496v-264q125 96 293 96q225 0 345 -139t120 -385v-453q0 -211 -127 -321.5t-346 -110.5q-195 0 -322 92l131 246q82 -41 139 -41q102 0 103 109v479q0 119 -38 172t-124 53q-102 0 -174 -55v-590h-422z" />
<glyph unicode="&#x495;" horiz-adv-x="1136" d="M86 0v1094h827l-47 -281h-374v-207q143 119 309 119q137 0 216 -86t79 -242v-430q0 -211 -124 -321.5t-335 -110.5q-197 0 -324 92l131 232q80 -37 140 -37q106 0 106 108v394q0 106 -61 106q-63 0 -137 -78v-352h-406z" />
<glyph unicode="&#x496;" horiz-adv-x="1957" d="M-31 0l379 793l-342 632h406l284 -544h92v544h381v-544h93l288 544h402l-342 -632l227 -478h152v-673h-281l-41 358h-131l-266 596h-101v-596h-381v596h-104l-270 -596h-445z" />
<glyph unicode="&#x497;" horiz-adv-x="1589" d="M-10 0l254 586l-238 508h373l172 -420h76v420h346v-420h76l174 420h370l-237 -508l127 -295h127v-649h-267l-40 358h-97l-164 449h-69v-449h-346v449h-70l-166 -449h-401z" />
<glyph unicode="&#x498;" horiz-adv-x="1132" d="M-20 164l219 213q133 -119 266 -119q92 0 145.5 43t53.5 127q0 176 -220 176h-157l47 289h119q178 0 178 143q0 135 -154 135q-127 0 -262 -106l-188 205q207 197 514 196q236 0 378 -106.5t142 -274.5q0 -123 -83 -211t-257 -122q381 -42 381 -351q0 -168 -115 -280.5 t-313 -147.5q184 -94 184 -249q0 -127 -92 -199t-236 -72q-135 0 -237 53l74 191q61 -29 118 -29q113 0 113 99q0 106 -125 192q-309 8 -493 205z" />
<glyph unicode="&#x499;" horiz-adv-x="1015" d="M-10 88l186 219q121 -70 260 -69q129 0 129 100q0 96 -129 96h-186l22 246h138q113 0 112 98q0 86 -102 86q-109 0 -215 -65l-185 207q190 129 461 129q197 0 323 -84t126 -224q0 -186 -252 -245q303 -42 303 -271q0 -143 -100.5 -230t-278.5 -112q174 -96 174 -245 q0 -127 -92 -199t-235 -72q-135 0 -238 53l74 191q61 -29 118 -29q113 0 113 99q0 106 -127 194q-238 12 -399 127z" />
<glyph unicode="&#x49a;" horiz-adv-x="1318" d="M88 0v1425h422v-538h133l264 538h406l-326 -632l219 -478h144v-673h-281l-41 358h-131l-264 590h-123v-590h-422z" />
<glyph unicode="&#x49b;" horiz-adv-x="1159" d="M86 0v1094h406v-420h86l210 420h375l-264 -508l141 -295h140v-649h-267l-41 358h-106l-199 449h-75v-449h-406z" />
<glyph unicode="&#x49c;" horiz-adv-x="1345" d="M88 0v1425h401v-555h64v308h135v-308h27l209 555h405l-282 -632l319 -793h-440l-211 606h-27v-309h-135v309h-64v-606h-401z" />
<glyph unicode="&#x49d;" horiz-adv-x="1169" d="M86 0v1094h379v-441h45v238h96v-238h15l161 441h381l-227 -508l244 -586h-420l-137 469h-17v-233h-96v233h-45v-469h-379z" />
<glyph unicode="&#x49e;" horiz-adv-x="1351" d="M20 1053v237h101v135h422v-135h143v-237h-143v-166h133l264 538h406l-326 -632l362 -793h-452l-264 590h-123v-590h-422v1053h-101z" />
<glyph unicode="&#x49f;" horiz-adv-x="1179" d="M0 1147v217h106v160l406 41v-201h250v-217h-250v-473h86l211 420h375l-264 -508l280 -586h-414l-198 449h-76v-449h-406v1147h-106z" />
<glyph unicode="&#x4a0;" horiz-adv-x="1587" d="M10 1118v307h768v-538h133l265 538h405l-326 -632l363 -793h-453l-264 590h-123v-590h-422v1118h-346z" />
<glyph unicode="&#x4a1;" horiz-adv-x="1368" d="M0 809v285h700v-420h86l211 420h375l-264 -508l281 -586h-414l-199 449h-76v-449h-405v809h-295z" />
<glyph unicode="&#x4a2;" horiz-adv-x="1441" d="M88 0v1425h422v-526h326v526h421v-1110h164v-673h-280l-41 358h-264v575h-326v-575h-422z" />
<glyph unicode="&#x4a3;" horiz-adv-x="1249" d="M86 0v1094h406v-396h208v396h406v-803h164v-649h-266l-41 358h-263v408h-208v-408h-406z" />
<glyph unicode="&#x4a4;" horiz-adv-x="1613" d="M88 0v1425h422v-526h326v526h788l-43 -315h-324v-1110h-421v575h-326v-575h-422z" />
<glyph unicode="&#x4a5;" horiz-adv-x="1398" d="M86 0v1094h406v-396h208v396h719l-51 -293h-262v-801h-406v408h-208v-408h-406z" />
<glyph unicode="&#x4a6;" horiz-adv-x="2056" d="M88 0v1425h1169v-536q125 96 293 96q225 0 345 -139t120 -385v-494q0 -211 -127 -321.5t-346 -110.5q-195 0 -321 92l131 246q82 -41 139 -41q102 0 102 109v520q0 119 -37.5 172t-123.5 53q-102 0 -175 -55v-631h-421v1110h-326v-1110h-422z" />
<glyph unicode="&#x4a7;" horiz-adv-x="1740" d="M86 0v1094h1012v-486q139 117 307 117q137 0 216 -86t79 -242v-430q0 -211 -124 -321.5t-335 -110.5q-197 0 -323 92l131 232q80 -37 139 -37q106 0 106 108v394q0 106 -61 106q-59 0 -135 -76v-354h-406v801h-200v-801h-406z" />
<glyph unicode="&#x4a8;" horiz-adv-x="1468" d="M41 717q0 350 187.5 549.5t492.5 199.5q264 0 459 -168l-195 -229q-125 94 -244 94q-125 0 -193.5 -112.5t-68.5 -333.5q0 -428 256 -441q-76 156 -76 289q0 164 104.5 262.5t274.5 98.5q164 0 280 -92.5t116 -272.5q0 -135 -76 -269t-217 -222q82 -123 186 -252 l-188 -123q-156 201 -217 285q-102 -20 -197 -21q-317 0 -500.5 196.5t-183.5 561.5zM948 559q0 -109 45 -223q129 82 129 239q0 109 -84 109q-90 0 -90 -125z" />
<glyph unicode="&#x4a9;" horiz-adv-x="1296" d="M35 539q0 262 156.5 429t412.5 167q193 0 311 -66l-131 -262q-57 23 -143 22q-94 0 -139 -65.5t-45 -224.5q0 -168 46 -227.5t136 -59.5h14q-61 123 -61 215q0 135 91 218t243 83q147 0 241.5 -81.5t94.5 -231.5q0 -109 -57.5 -214.5t-170.5 -174.5q72 -113 180 -248 l-180 -123q-137 176 -213 285q-102 -20 -205 -21q-268 0 -424.5 160t-156.5 420zM856 473q0 -63 41 -164q92 61 92 166q0 86 -65 86q-68 0 -68 -88z" />
<glyph unicode="&#x4aa;" d="M41 717q0 350 187.5 549.5t492.5 199.5q264 0 459 -168l-195 -229q-125 94 -244 94q-125 0 -193.5 -112.5t-68.5 -333.5q0 -440 269 -441q119 0 264 115l184 -233q-156 -156 -369 -191q172 -94 172 -243q0 -127 -92 -199t-235 -72q-135 0 -238 53l74 191q61 -29 119 -29 q113 0 112 99q0 109 -139 200q-262 37 -410.5 230.5t-148.5 519.5z" />
<glyph unicode="&#x4ab;" horiz-adv-x="980" d="M35 539q0 262 156.5 429t412.5 167q233 0 397 -146l-167 -235q-94 76 -193 75q-94 0 -139 -65.5t-45 -224.5q0 -154 46 -210.5t134 -56.5q77 0 190 70l174 -248q-129 -106 -294 -129q166 -94 165 -241q0 -127 -92 -199t-235 -72q-135 0 -238 53l74 191q61 -29 119 -29 q113 0 112 99q0 113 -147 206q-201 43 -315.5 194.5t-114.5 371.5z" />
<glyph unicode="&#x4ac;" horiz-adv-x="1134" d="M10 1110v315h1135l-43 -315h-324v-795h164v-673h-280l-41 358h-265v1110h-346z" />
<glyph unicode="&#x4ad;" horiz-adv-x="993" d="M0 801v293h1014l-51 -293h-263v-510h164v-649h-266l-41 358h-262v801h-295z" />
<glyph unicode="&#x4ae;" horiz-adv-x="1269" d="M-31 1425h461l211 -581l213 581h446l-454 -899v-526h-422v524z" />
<glyph unicode="&#x4af;" horiz-adv-x="1077" d="M-31 1094h445l133 -766l147 766h414l-373 -1094v-424l-393 -41v465z" />
<glyph unicode="&#x4b0;" horiz-adv-x="1269" d="M-31 1425h461l211 -581l213 581h446l-389 -770h158v-217h-223v-438h-422v438h-223v217h157z" />
<glyph unicode="&#x4b1;" horiz-adv-x="1077" d="M-31 1094h445l133 -766l147 766h414l-309 -910h125v-204h-189v-404l-393 -41v445h-188v204h125z" />
<glyph unicode="&#x4b2;" horiz-adv-x="1230" d="M-20 0l380 756l-354 669h453l155 -409l174 409h445l-369 -657l234 -453h164v-673h-281l-41 358h-133l-197 489l-184 -489h-446z" />
<glyph unicode="&#x4b3;" horiz-adv-x="1101" d="M-41 0l334 573l-305 521h448l107 -322l96 322h424l-279 -508l170 -295h168v-649h-266l-41 358h-145l-144 377l-131 -377h-436z" />
<glyph unicode="&#x4b4;" horiz-adv-x="1699" d="M10 1118v307h994l-43 -307h-183v-794h316v1101h422v-1110h163v-673h-280l-41 358h-1002v1118h-346z" />
<glyph unicode="&#x4b5;" horiz-adv-x="1478" d="M0 809v285h870l-30 -285h-140v-518h230v803h405v-803h164v-649h-266l-41 358h-897v809h-295z" />
<glyph unicode="&#x4b6;" horiz-adv-x="1372" d="M20 924v501h414v-501q0 -119 38 -172.5t128 -53.5q100 0 166 56v671h422v-1110h164v-673h-281l-41 358h-264v500q-119 -100 -291 -101q-217 0 -336 139.5t-119 385.5z" />
<glyph unicode="&#x4b7;" horiz-adv-x="1183" d="M31 635v459h405v-406q0 -106 74 -106q68 0 125 43v469h405v-803h164v-649h-266l-41 358h-262v379q-127 -92 -289 -92q-160 0 -237.5 92t-77.5 256z" />
<glyph unicode="&#x4b8;" horiz-adv-x="1275" d="M20 924v501h414v-501q0 -195 115 -222v435h135v-428q49 16 82 45v671h422v-1425h-422v500q-41 -35 -82 -56v-188h-135v147q-45 -4 -74 -4q-217 0 -336 139.5t-119 385.5z" />
<glyph unicode="&#x4b9;" horiz-adv-x="1126" d="M31 635v459h395v-412q0 -98 59 -107v248h97v-233q39 16 65 37v467h393v-1094h-393v389q-35 -27 -65 -43v-178h-97v139q-76 -20 -143 -20q-158 0 -234.5 92t-76.5 256z" />
<glyph unicode="&#x4ba;" horiz-adv-x="1308" d="M88 0v1425h422v-536q125 96 293 96q225 0 345 -139t120 -385v-461h-422v461q0 119 -38 172t-124 53q-102 0 -174 -55v-631h-422z" />
<glyph unicode="&#x4bb;" horiz-adv-x="1161" d="M86 0v1524l406 41v-695q121 142 309 142q137 0 216 -86t79 -242v-684h-406v610q0 106 -61 107q-63 0 -137 -99v-618h-406z" />
<glyph unicode="&#x4bc;" horiz-adv-x="1660" d="M-20 907q0 115 94 260l252 -106q-31 -80 -31 -125q0 -76 84 -76h33q33 295 194.5 450.5t423.5 155.5q313 0 461.5 -196.5t148.5 -540.5q0 -80 -14 -156h-799q12 -315 252 -315q92 0 156.5 26.5t136.5 77.5l189 -217q-217 -186 -525 -186q-272 0 -434 155.5t-192 452.5h-9 q-190 0 -305.5 90.5t-115.5 249.5zM827 850h410q0 317 -203 317q-100 0 -152.5 -72.5t-54.5 -244.5z" />
<glyph unicode="&#x4bd;" horiz-adv-x="1439" d="M-20 729q0 113 75 234l230 -86q-27 -61 -27 -113q0 -82 84 -82h4q35 203 172 328t361 125q246 0 391 -152t145 -422q0 -51 -8 -129h-664q16 -111 68.5 -148.5t151.5 -37.5q109 0 247 96l164 -221q-199 -162 -450 -162q-256 0 -402.5 125t-179.5 340q-180 4 -271 86 t-91 219zM741 662h275v14q-2 96 -30 149.5t-99 53.5q-68 0 -101.5 -47.5t-44.5 -169.5z" />
<glyph unicode="&#x4be;" horiz-adv-x="1660" d="M-20 907q0 115 94 260l252 -106q-31 -80 -31 -125q0 -76 84 -76h33q33 295 194.5 450.5t423.5 155.5q313 0 461.5 -196.5t148.5 -540.5q0 -80 -14 -156h-799q12 -315 252 -315q92 0 156.5 26.5t136.5 77.5l189 -217q-137 -119 -301 -159q-195 -76 -195 -181 q0 -90 104 -90q53 0 125 17l-24 -236q-72 -16 -152 -16q-143 0 -235 69.5t-92 188.5q0 137 110 231q-213 35 -339 187.5t-152 410.5h-9q-190 0 -305.5 90.5t-115.5 249.5zM827 850h410q0 317 -203 317q-100 0 -152.5 -72.5t-54.5 -244.5z" />
<glyph unicode="&#x4bf;" horiz-adv-x="1439" d="M-20 729q0 113 75 234l230 -86q-27 -61 -27 -113q0 -82 84 -82h4q35 203 172 328t361 125q246 0 391 -152t145 -422q0 -51 -8 -129h-664q16 -111 68.5 -148.5t151.5 -37.5q109 0 247 96l164 -221q-115 -92 -254 -133q-145 -70 -145 -160t104 -90q53 0 125 16l-24 -235 q-72 -16 -152 -17q-143 0 -235.5 70t-92.5 188.5t86 208.5q-193 33 -305 153t-139 302q-180 4 -271 86t-91 219zM741 662h275v14q-2 96 -30 149.5t-99 53.5q-68 0 -101.5 -47.5t-44.5 -169.5z" />
<glyph unicode="&#x4c0;" horiz-adv-x="598" d="M88 0v1425h422v-1425h-422z" />
<glyph unicode="&#x4c1;" horiz-adv-x="1957" d="M-31 0l379 793l-342 632h406l284 -544h92v544h381v-544h93l288 544h402l-342 -632l379 -793h-453l-266 596h-101v-596h-381v596h-104l-270 -596h-445zM600 1888l211 35q31 -121 168 -121t168 121l211 -35q-12 -164 -107.5 -262t-271.5 -98t-271.5 98t-107.5 262z" />
<glyph unicode="&#x4c2;" horiz-adv-x="1599" d="M-10 0l254 586l-238 508h373l172 -420h76v420h346v-420h76l174 420h370l-237 -508l254 -586h-404l-164 449h-69v-449h-346v449h-70l-166 -449h-401zM422 1642l211 35q31 -121 168 -121t168 121l211 -35q-12 -164 -107.5 -262t-271.5 -98t-271.5 98.5t-107.5 261.5z" />
<glyph unicode="&#x4c3;" horiz-adv-x="1333" d="M88 0v1425h422v-548h113l264 548h405l-303 -571q279 -78 279 -459v-428q0 -211 -127 -321.5t-346 -110.5q-195 0 -322 92l131 246q82 -41 139 -41q102 0 103 109v454q0 94 -38 139.5t-124 45.5h-174v-580h-422z" />
<glyph unicode="&#x4c4;" horiz-adv-x="1163" d="M86 0v1094h406v-437h65l211 437h375l-244 -449q223 -57 223 -313v-365q0 -211 -124 -321.5t-334 -110.5q-197 0 -324 92l131 232q80 -37 139 -37q106 0 107 108v414q0 86 -82 86l-143 2v-432h-406z" />
<glyph unicode="&#x4c5;" horiz-adv-x="1454" d="M-10 246q102 43 135 138t65 361l82 680h977v-1110h246l-205 -673h-280l82 358h-265v1114h-202l-47 -401q-16 -141 -37 -241.5t-56.5 -194t-87 -154t-128 -103.5t-181.5 -61z" />
<glyph unicode="&#x4c6;" horiz-adv-x="1280" d="M0 260q68 35 92.5 64.5t39.5 100.5t26 239l26 430h891v-803h246l-205 -649h-266l82 358h-262v805h-131l-15 -156q-14 -152 -26.5 -235.5t-40 -170.5t-70.5 -132t-113.5 -81t-175.5 -57z" />
<glyph unicode="&#x4c7;" horiz-adv-x="1345" d="M88 0v1425h422v-526h326v526h421v-1458q0 -211 -126.5 -321.5t-346.5 -110.5q-195 0 -321 92l131 246q82 -41 139 -41q102 0 103 109v634h-326v-575h-422z" />
<glyph unicode="&#x4c8;" horiz-adv-x="1191" d="M86 0v1094h406v-396h208v396h406v-1127q0 -211 -124 -321.5t-335 -110.5q-197 0 -323 92l131 232q80 -37 139 -37q106 0 106 108v478h-208v-408h-406z" />
<glyph unicode="&#x4c9;" horiz-adv-x="1462" d="M88 0v1425h422v-526h326v526h421v-1110h246l-205 -673h-280l82 358h-264v575h-326v-575h-422z" />
<glyph unicode="&#x4ca;" horiz-adv-x="1310" d="M86 0v1094h406v-396h208v396h406v-803h246l-205 -649h-266l82 358h-263v408h-208v-408h-406z" />
<glyph unicode="&#x4cb;" horiz-adv-x="1275" d="M20 944v481h414v-481q0 -119 38 -172t128 -53q100 0 166 55v651h422v-1425h-242l-41 -358h-280v653h141v225q-119 -100 -291 -100q-217 0 -336 139t-119 385z" />
<glyph unicode="&#x4cc;" horiz-adv-x="1126" d="M31 688v406h405v-353q0 -106 74 -106q68 0 125 43v416h405v-1094h-252l-40 -358h-267v628h154v162q-127 -92 -293 -92q-158 0 -234.5 92t-76.5 256z" />
<glyph unicode="&#x4cd;" horiz-adv-x="1794" d="M31 0l102 1425h520l164 -923l148 923h522l80 -1110h268l-205 -673h-280l82 358h-258l-11 506q-8 332 15 581l-168 -944h-400l-180 944q33 -334 27 -579l-11 -508h-415z" />
<glyph unicode="&#x4ce;" horiz-adv-x="1560" d="M20 0l91 1094h464l113 -660l107 660h469l67 -803h271l-205 -649h-267l82 358h-237l-8 315q-8 219 16 433l-133 -644h-324l-135 644q23 -172 17 -433l-9 -315h-379z" />
<glyph unicode="&#x4cf;" horiz-adv-x="614" d="M76 315v1209l405 41v-1233q0 -55 49 -56q23 0 43 9l72 -289q-96 -37 -225 -37q-166 0 -255 93t-89 263z" />
<glyph unicode="&#x4d0;" horiz-adv-x="1230" d="M-51 0l416 1425h503l414 -1425h-446l-56 276h-338l-53 -276h-440zM238 1888l211 35q31 -121 168 -121t167 121l211 -35q-12 -164 -107 -262t-271.5 -98t-271.5 98t-107 262zM502 571h219l-111 559z" />
<glyph unicode="&#x4d1;" horiz-adv-x="1128" d="M31 307q0 182 135 278.5t393 96.5h78v27q0 82 -33 110.5t-125 28.5q-115 0 -282 -57l-88 258q213 86 432 86q258 0 374.5 -99.5t116.5 -304.5v-377q0 -57 14.5 -84.5t51.5 -42.5l-82 -260q-111 8 -180.5 42t-114.5 110q-106 -160 -330 -160q-162 0 -261 97.5t-99 250.5z M188 1642l211 35q31 -121 168.5 -121t167.5 121l211 -35q-12 -164 -107.5 -262t-271.5 -98t-271 98.5t-108 261.5zM426 346q0 -47 24.5 -74.5t65.5 -27.5q74 0 121 65v162h-43q-168 0 -168 -125z" />
<glyph unicode="&#x4d2;" horiz-adv-x="1230" d="M-51 0l416 1425h503l414 -1425h-446l-56 276h-338l-53 -276h-440zM166 1745q0 78 57.5 133t136.5 55q82 0 138.5 -55t56.5 -133q0 -80 -56.5 -135.5t-138.5 -55.5q-80 0 -137 55.5t-57 135.5zM502 571h219l-111 559zM668 1745q0 78 57 133t137 55q82 0 138.5 -55 t56.5 -133q0 -80 -56.5 -135.5t-138.5 -55.5q-80 0 -137 55.5t-57 135.5z" />
<glyph unicode="&#x4d3;" horiz-adv-x="1128" d="M31 307q0 182 135 278.5t393 96.5h78v27q0 82 -33 110.5t-125 28.5q-115 0 -282 -57l-88 258q213 86 432 86q258 0 374.5 -99.5t116.5 -304.5v-377q0 -57 14.5 -84.5t51.5 -42.5l-82 -260q-111 8 -180.5 42t-114.5 110q-106 -160 -330 -160q-162 0 -261 97.5t-99 250.5z M121 1487q0 78 57.5 133t136.5 55q82 0 138.5 -55t56.5 -133q0 -80 -56.5 -135.5t-138.5 -55.5q-80 0 -137 55.5t-57 135.5zM426 346q0 -47 24.5 -74.5t65.5 -27.5q74 0 121 65v162h-43q-168 0 -168 -125zM623 1487q0 78 57 133t137 55q82 0 138.5 -55t56.5 -133 q0 -80 -56.5 -135.5t-138.5 -55.5q-80 0 -137 55.5t-57 135.5z" />
<glyph unicode="&#x4d4;" horiz-adv-x="1767" d="M-61 0l555 1425h1161l-43 -292h-506l47 -271h483v-284h-436l49 -283h477v-295h-833l-37 276h-375l-84 -276h-458zM571 571h244l-74 553z" />
<glyph unicode="&#x4d5;" horiz-adv-x="1759" d="M31 307q0 182 138 278.5t406 96.5h78v23q0 82 -32.5 110.5t-124.5 28.5q-115 0 -283 -58l-88 263q213 86 432 86q225 0 338 -125q135 125 336 125q223 0 363.5 -153t140.5 -421q0 -51 -9 -129h-663q16 -111 68.5 -148.5t150.5 -37.5q109 0 248 96l164 -221 q-199 -162 -451 -162q-297 0 -457 180q-127 -180 -387 -180q-170 0 -269 97.5t-99 250.5zM453 338q0 -43 22.5 -68.5t63.5 -25.5q72 0 139 96q-14 61 -16 111v10h-48q-84 0 -122.5 -29t-38.5 -94zM1061 662h274v14q-2 96 -29.5 149.5t-99.5 53.5q-68 0 -101.5 -47.5 t-43.5 -169.5z" />
<glyph unicode="&#x4d6;" horiz-adv-x="1064" d="M88 0v1425h936l-43 -292h-471v-267h414v-284h-414v-287h504v-295h-926zM178 1888l211 35q31 -121 168 -121t168 121l211 -35q-12 -164 -107.5 -262t-271.5 -98t-271.5 98t-107.5 262z" />
<glyph unicode="&#x4d7;" horiz-adv-x="1140" d="M35 545q0 254 142 422t403 168q246 0 391 -152t145 -422q0 -51 -8 -129h-664q16 -111 68.5 -148.5t151.5 -37.5q109 0 247 96l164 -221q-199 -162 -450 -162q-291 0 -440.5 161t-149.5 425zM205 1642l211 35q31 -121 168 -121t168 121l211 -35q-12 -164 -107.5 -262 t-271.5 -98t-271.5 98.5t-107.5 261.5zM442 662h275v14q-2 96 -30 149.5t-99 53.5q-68 0 -101.5 -47.5t-44.5 -169.5z" />
<glyph unicode="&#x4d8;" horiz-adv-x="1298" d="M20 696q0 80 15 156h799q-12 315 -252 315q-150 0 -299 -106l-183 219q218 186 525 186q305 0 468.5 -191.5t163.5 -558t-163.5 -562t-460.5 -195.5q-313 0 -463 196.5t-150 540.5zM424 575q0 -317 209 -317q98 0 148 72.5t53 244.5h-410z" />
<glyph unicode="&#x4d9;" horiz-adv-x="1140" d="M25 532q0 51 8 130h692q-14 197 -190 196q-139 0 -275 -84l-164 215q187 146 455 146q276 0 415.5 -160t139.5 -426q0 -254 -142.5 -422t-402.5 -168q-246 0 -391 151.5t-145 421.5zM403 418q4 -84 43 -133t115 -49q74 0 114 46t50 150h-322v-14z" />
<glyph unicode="&#x4da;" horiz-adv-x="1298" d="M20 696q0 80 15 156h799q-12 315 -252 315q-150 0 -299 -106l-183 219q218 186 525 186q305 0 468.5 -191.5t163.5 -558t-163.5 -562t-460.5 -195.5q-313 0 -463 196.5t-150 540.5zM174 1745q0 78 57.5 133t137.5 55q82 0 138 -55t56 -133q0 -80 -56 -135.5t-138 -55.5 q-80 0 -137.5 55.5t-57.5 135.5zM424 575q0 -317 209 -317q98 0 148 72.5t53 244.5h-410zM676 1745q0 78 57.5 133t136.5 55q82 0 138.5 -55t56.5 -133q0 -80 -56.5 -135.5t-138.5 -55.5q-80 0 -137 55.5t-57 135.5z" />
<glyph unicode="&#x4db;" horiz-adv-x="1140" d="M25 532q0 51 8 130h692q-14 197 -190 196q-139 0 -275 -84l-164 215q187 146 455 146q276 0 415.5 -160t139.5 -426q0 -254 -142.5 -422t-402.5 -168q-246 0 -391 151.5t-145 421.5zM104 1487q0 78 57.5 133t137.5 55q82 0 138.5 -55t56.5 -133q0 -80 -56.5 -135.5 t-138.5 -55.5q-80 0 -137.5 55.5t-57.5 135.5zM403 418q4 -84 43 -133t115 -49q74 0 114 46t50 150h-322v-14zM606 1487q0 78 57.5 133t137.5 55q82 0 138 -55t56 -133q0 -80 -56 -135.5t-138 -55.5q-80 0 -137.5 55.5t-57.5 135.5z" />
<glyph unicode="&#x4dc;" horiz-adv-x="1957" d="M-31 0l379 793l-342 632h406l284 -544h92v544h381v-544h93l288 544h402l-342 -632l379 -793h-453l-266 596h-101v-596h-381v596h-104l-270 -596h-445zM528 1745q0 78 57.5 133t137.5 55q82 0 138.5 -55t56.5 -133q0 -80 -56.5 -135.5t-138.5 -55.5q-80 0 -137.5 55.5 t-57.5 135.5zM1030 1745q0 78 57.5 133t137.5 55q82 0 138 -55t56 -133q0 -80 -56 -135.5t-138 -55.5q-80 0 -137.5 55.5t-57.5 135.5z" />
<glyph unicode="&#x4dd;" horiz-adv-x="1599" d="M-10 0l254 586l-238 508h373l172 -420h76v420h346v-420h76l174 420h370l-237 -508l254 -586h-404l-164 449h-69v-449h-346v449h-70l-166 -449h-401zM354 1487q0 78 57.5 133t137.5 55q82 0 138 -55t56 -133q0 -80 -56 -135.5t-138 -55.5q-80 0 -137.5 55.5t-57.5 135.5z M856 1487q0 78 57.5 133t137.5 55q82 0 138 -55t56 -133q0 -80 -56 -135.5t-138 -55.5q-80 0 -137.5 55.5t-57.5 135.5z" />
<glyph unicode="&#x4de;" horiz-adv-x="1132" d="M-20 164l219 213q133 -119 266 -119q92 0 145.5 43t53.5 127q0 176 -220 176h-157l47 289h119q178 0 178 143q0 135 -154 135q-127 0 -262 -106l-188 205q207 197 514 196q236 0 378 -106.5t142 -274.5q0 -123 -83 -211t-257 -122q381 -41 381 -351q0 -205 -166 -323.5 t-438 -118.5q-326 0 -518 205zM96 1745q0 78 57.5 133t137.5 55q82 0 138 -55t56 -133q0 -80 -56 -135.5t-138 -55.5q-80 0 -137.5 55.5t-57.5 135.5zM598 1745q0 78 57.5 133t137.5 55q82 0 138 -55t56 -133q0 -80 -56.5 -135.5t-137.5 -55.5q-80 0 -137.5 55.5 t-57.5 135.5z" />
<glyph unicode="&#x4df;" horiz-adv-x="1015" d="M-10 88l186 219q121 -70 260 -69q129 0 129 100q0 96 -129 96h-186l22 246h138q113 0 112 98q0 86 -102 86q-109 0 -215 -65l-185 207q191 129 461 129q197 0 323 -84t126 -224q0 -186 -252 -245q303 -41 303 -271q0 -172 -142.5 -262t-387.5 -90q-279 0 -461 129z M41 1487q0 78 57.5 133t137.5 55q82 0 138 -55t56 -133q0 -80 -56.5 -135.5t-137.5 -55.5q-80 0 -137.5 55.5t-57.5 135.5zM543 1487q0 78 57 133t137 55q82 0 138.5 -55t56.5 -133q0 -80 -56.5 -135.5t-138.5 -55.5q-80 0 -137 55.5t-57 135.5z" />
<glyph unicode="&#x4e0;" horiz-adv-x="1157" d="M0 184l209 203q76 -68 139.5 -96.5t147.5 -28.5q88 0 142 48t54 139q0 158 -215 157h-217v219l324 305h-492v295h948v-284l-319 -310q193 -14 299 -119.5t106 -281.5q0 -203 -161.5 -337t-444.5 -134q-330 0 -520 225z" />
<glyph unicode="&#x4e1;" horiz-adv-x="1079" d="M-41 -240l209 203q139 -125 276 -125q88 0 144.5 53.5t56.5 159.5q0 172 -219 172h-207v219l307 357h-475v295h932v-271l-340 -383q416 -43 416 -417q0 -211 -157 -349.5t-429 -138.5q-330 0 -514 225z" />
<glyph unicode="&#x4e2;" horiz-adv-x="1333" d="M88 0v1425h412v-452q0 -248 -62 -563l318 1015h489v-1425h-411v436q0 307 61 590l-307 -1026h-500zM334 1585v275h665v-275h-665z" />
<glyph unicode="&#x4e3;" horiz-adv-x="1198" d="M86 0v1094h383v-336q0 -197 -57 -393l305 729h395v-1094h-381v328q0 182 57 393l-309 -721h-393zM266 1327v275h666v-275h-666z" />
<glyph unicode="&#x4e4;" horiz-adv-x="1333" d="M88 0v1425h412v-452q0 -248 -62 -563l318 1015h489v-1425h-411v436q0 307 61 590l-307 -1026h-500zM217 1745q0 78 57.5 133t137.5 55q82 0 138 -55t56 -133q0 -80 -56 -135.5t-138 -55.5q-80 0 -137.5 55.5t-57.5 135.5zM719 1745q0 78 57 133t137 55q82 0 138.5 -55 t56.5 -133q0 -80 -56.5 -135.5t-138.5 -55.5q-80 0 -137 55.5t-57 135.5z" />
<glyph unicode="&#x4e5;" horiz-adv-x="1198" d="M86 0v1094h383v-336q0 -197 -57 -393l305 729h395v-1094h-381v328q0 182 57 393l-309 -721h-393zM154 1487q0 78 57 133t137 55q82 0 138.5 -55t56.5 -133q0 -80 -56.5 -135.5t-138.5 -55.5q-80 0 -137 55.5t-57 135.5zM655 1487q0 78 57.5 133t137.5 55q82 0 138 -55 t56 -133q0 -80 -56 -135.5t-138 -55.5q-80 0 -137.5 55.5t-57.5 135.5z" />
<glyph unicode="&#x4e6;" horiz-adv-x="1413" d="M41 715q0 350 174.5 550.5t491.5 200.5q319 0 492 -197.5t173 -553.5q0 -352 -174 -554t-491 -202q-319 0 -492.5 199.5t-173.5 556.5zM256 1745q0 78 57.5 133t137.5 55q82 0 138 -55t56 -133q0 -80 -56.5 -135.5t-137.5 -55.5q-80 0 -137.5 55.5t-57.5 135.5zM479 715 q0 -246 53.5 -351.5t174.5 -105.5q123 0 175 104.5t52 352.5q0 246 -53.5 349t-174 103t-174 -103t-53.5 -349zM758 1745q0 78 57 133t137 55q82 0 138.5 -55t56.5 -133q0 -80 -56.5 -135.5t-138.5 -55.5q-80 0 -137 55.5t-57 135.5z" />
<glyph unicode="&#x4e7;" d="M35 549q0 268 151.5 427t411.5 159q262 0 412.5 -154t150.5 -436q0 -268 -151.5 -427t-411.5 -159q-262 0 -412.5 153.5t-150.5 436.5zM152 1487q0 78 57 133t137 55q82 0 138.5 -55t56.5 -133q0 -80 -56.5 -135.5t-138.5 -55.5q-80 0 -137 55.5t-57 135.5zM451 549 q0 -162 34.5 -230.5t112.5 -68.5t112.5 69.5t34.5 225.5q0 162 -34.5 230.5t-112.5 68.5t-112.5 -69.5t-34.5 -225.5zM653 1487q0 78 57.5 133t137.5 55q82 0 138 -55t56 -133q0 -80 -56 -135.5t-138 -55.5q-80 0 -137.5 55.5t-57.5 135.5z" />
<glyph unicode="&#x4e8;" horiz-adv-x="1413" d="M41 715q0 350 174.5 550.5t491.5 200.5q319 0 492 -197.5t173 -553.5q0 -352 -174 -554t-491 -202q-319 0 -492.5 199.5t-173.5 556.5zM471 610q12 -186 69.5 -269t166.5 -83q111 0 167 83t68 269h-471zM473 827h467q-12 180 -69.5 260t-164 80t-164 -79.5t-69.5 -260.5z " />
<glyph unicode="&#x4e9;" d="M35 549q0 268 151.5 427t411.5 159q262 0 412.5 -154t150.5 -436q0 -268 -151.5 -427t-411.5 -159q-262 0 -412.5 153.5t-150.5 436.5zM442 453q8 -111 45 -160t111 -49q72 0 108.5 50t47.5 159h-312zM444 657h308q-10 102 -47 147.5t-107 45.5q-133 0 -154 -193z" />
<glyph unicode="&#x4ea;" horiz-adv-x="1413" d="M41 715q0 350 174.5 550.5t491.5 200.5q319 0 492 -197.5t173 -553.5q0 -352 -174 -554t-491 -202q-319 0 -492.5 199.5t-173.5 556.5zM256 1745q0 78 57.5 133t137.5 55q82 0 138 -55t56 -133q0 -80 -56 -135.5t-138 -55.5q-80 0 -137.5 55.5t-57.5 135.5zM471 610 q12 -186 69.5 -269t166.5 -83q111 0 167 83t68 269h-471zM473 827h467q-12 180 -69.5 260t-164 80t-164 -79.5t-69.5 -260.5zM758 1745q0 78 57 133t137 55q82 0 138.5 -55t56.5 -133q0 -80 -56.5 -135.5t-138.5 -55.5q-80 0 -137 55.5t-57 135.5z" />
<glyph unicode="&#x4eb;" d="M35 549q0 268 151.5 427t411.5 159q262 0 412.5 -154t150.5 -436q0 -268 -151.5 -427t-411.5 -159q-262 0 -412.5 153.5t-150.5 436.5zM152 1487q0 78 57 133t137 55q82 0 138.5 -55t56.5 -133q0 -80 -56.5 -135.5t-138.5 -55.5q-80 0 -137 55.5t-57 135.5zM442 453 q8 -111 45 -160t111 -49q72 0 108.5 50t47.5 159h-312zM444 657h308q-10 102 -47 147.5t-107 45.5q-133 0 -154 -193zM653 1487q0 78 57.5 133t137.5 55q82 0 138 -55t56 -133q0 -80 -56 -135.5t-138 -55.5q-80 0 -137.5 55.5t-57.5 135.5z" />
<glyph unicode="&#x4ec;" horiz-adv-x="1114" d="M0 131l182 225q115 -92 236 -92q217 0 231 322h-438v282h438q-23 301 -209 301q-117 0 -231 -102l-197 229q98 86 205.5 128t261.5 42q285 0 439.5 -187t154.5 -542q0 -379 -165 -578.5t-455 -199.5q-274 0 -453 172zM49 1745q0 78 57.5 133t137.5 55q82 0 138 -55 t56 -133q0 -80 -56 -135.5t-138 -55.5q-80 0 -137.5 55.5t-57.5 135.5zM551 1745q0 78 57.5 133t136.5 55q82 0 138.5 -55t56.5 -133q0 -80 -56.5 -135.5t-138.5 -55.5q-80 0 -137 55.5t-57 135.5z" />
<glyph unicode="&#x4ed;" horiz-adv-x="997" d="M0 84l168 225q104 -63 201 -63q170 0 188 203h-358v213h356q-14 186 -158 186q-104 0 -204 -66l-168 217q167 136 407 136q246 0 388.5 -147.5t142.5 -428.5q0 -276 -150.5 -438t-425.5 -162q-215 0 -387 125zM18 1487q0 78 57.5 133t137.5 55q82 0 138.5 -55t56.5 -133 q0 -80 -56.5 -135.5t-138.5 -55.5q-80 0 -137.5 55.5t-57.5 135.5zM520 1487q0 78 57.5 133t137.5 55q82 0 138 -55t56 -133q0 -80 -56 -135.5t-138 -55.5q-80 0 -137.5 55.5t-57.5 135.5z" />
<glyph unicode="&#x4ee;" horiz-adv-x="1226" d="M-41 1425h432l246 -825l213 825h428l-360 -976q-98 -266 -249 -369t-431 -121l-54 277q131 10 205 38.5t123 94.5h-127zM281 1585v275h665v-275h-665z" />
<glyph unicode="&#x4ef;" horiz-adv-x="1093" d="M-31 1094h430l138 -846l170 846h417l-336 -1092q-137 -455 -679 -469l-43 277q158 16 234.5 57t119.5 133h-139zM213 1327v275h666v-275h-666z" />
<glyph unicode="&#x4f0;" horiz-adv-x="1226" d="M-41 1425h432l246 -825l213 825h428l-360 -976q-98 -266 -249 -369t-431 -121l-54 277q131 10 205 38.5t123 94.5h-127zM164 1745q0 78 57 133t137 55q82 0 138.5 -55t56.5 -133q0 -80 -56.5 -135.5t-138.5 -55.5q-80 0 -137 55.5t-57 135.5zM666 1745q0 78 57 133 t137 55q82 0 138.5 -55t56.5 -133q0 -80 -56.5 -135.5t-138.5 -55.5q-80 0 -137 55.5t-57 135.5z" />
<glyph unicode="&#x4f1;" horiz-adv-x="1093" d="M-31 1094h430l138 -846l170 846h417l-336 -1092q-137 -455 -679 -469l-43 277q158 16 234.5 57t119.5 133h-139zM100 1487q0 78 57.5 133t137.5 55q82 0 138 -55t56 -133q0 -80 -56 -135.5t-138 -55.5q-80 0 -137.5 55.5t-57.5 135.5zM602 1487q0 78 57.5 133t137.5 55 q82 0 138 -55t56 -133q0 -80 -56 -135.5t-138 -55.5q-80 0 -137.5 55.5t-57.5 135.5z" />
<glyph unicode="&#x4f2;" horiz-adv-x="1226" d="M-41 1425h432l246 -825l213 825h428l-360 -976q-98 -266 -249 -369t-431 -121l-54 277q131 10 205 38.5t123 94.5h-127zM317 1616l197 438l256 -115l-252 -403zM690 1622l213 432l252 -125l-268 -401z" />
<glyph unicode="&#x4f3;" horiz-adv-x="1093" d="M-31 1094h430l138 -846l170 846h417l-336 -1092q-137 -455 -679 -469l-43 277q158 16 234.5 57t119.5 133h-139zM225 1358l197 438l256 -115l-252 -403zM598 1364l213 432l252 -125l-268 -401z" />
<glyph unicode="&#x4f4;" horiz-adv-x="1275" d="M20 924v501h414v-501q0 -119 38 -172.5t128 -53.5q100 0 166 56v671h422v-1425h-422v500q-119 -100 -291 -101q-217 0 -336 139.5t-119 385.5zM150 1745q0 78 57 133t137 55q82 0 138.5 -55t56.5 -133q0 -80 -56.5 -135.5t-138.5 -55.5q-80 0 -137 55.5t-57 135.5z M651 1745q0 78 57.5 133t137.5 55q82 0 138 -55t56 -133q0 -80 -56 -135.5t-138 -55.5q-80 0 -137.5 55.5t-57.5 135.5z" />
<glyph unicode="&#x4f5;" horiz-adv-x="1126" d="M31 635v459h405v-406q0 -106 74 -106q68 0 125 43v469h405v-1094h-405v379q-127 -92 -289 -92q-160 0 -237.5 92t-77.5 256zM90 1487q0 78 57.5 133t137.5 55q82 0 138 -55t56 -133q0 -80 -56 -135.5t-138 -55.5q-80 0 -137.5 55.5t-57.5 135.5zM592 1487q0 78 57.5 133 t136.5 55q82 0 138.5 -55t56.5 -133q0 -80 -56.5 -135.5t-138.5 -55.5q-80 0 -137 55.5t-57 135.5z" />
<glyph unicode="&#x4f6;" horiz-adv-x="1046" d="M88 0v1425h969l-41 -323h-506v-787h164v-673h-281l-41 358h-264z" />
<glyph unicode="&#x4f7;" horiz-adv-x="892" d="M86 0v1094h827l-47 -301h-374v-502h163v-649h-266l-41 358h-262z" />
<glyph unicode="&#x4f8;" horiz-adv-x="1779" d="M88 0v1425h422v-464h111q281 0 430 -117t149 -348q0 -242 -154.5 -369t-408.5 -127h-549zM440 1745q0 78 57.5 133t137.5 55q82 0 138 -55t56 -133q0 -80 -56 -135.5t-138 -55.5q-80 0 -137.5 55.5t-57.5 135.5zM510 297h72q180 0 180 195q0 186 -189 186h-63v-381z M942 1745q0 78 57.5 133t137.5 55q82 0 138 -55t56 -133q0 -80 -56 -135.5t-138 -55.5q-80 0 -137.5 55.5t-57.5 135.5zM1270 0v1425h422v-1425h-422z" />
<glyph unicode="&#x4f9;" horiz-adv-x="1593" d="M86 0v1094h406v-334h16q276 0 407.5 -94.5t131.5 -288.5q0 -180 -130.5 -278.5t-353.5 -98.5h-477zM350 1487q0 78 57.5 133t137.5 55q82 0 138 -55t56 -133q0 -80 -56 -135.5t-138 -55.5q-80 0 -137.5 55.5t-57.5 135.5zM492 252h26q121 0 121 133q0 129 -137 129h-10 v-262zM852 1487q0 78 57.5 133t137.5 55q82 0 138 -55t56 -133q0 -80 -56.5 -135.5t-137.5 -55.5q-80 0 -137.5 55.5t-57.5 135.5zM1102 0v1094h405v-1094h-405z" />
<glyph unicode="&#x4fa;" horiz-adv-x="1067" d="M-90 -373l131 246q82 -41 139 -41q102 0 103 109v59h-174v649h-136v238h136v538h968l-41 -323h-506v-215h273v-238h-273v-334h175v-348q0 -211 -127 -321.5t-347 -110.5q-195 0 -321 92z" />
<glyph unicode="&#x4fb;" horiz-adv-x="913" d="M-96 -373l131 232q80 -37 139 -37q106 0 107 108v70h-175v428h-106v205h106v461h828l-47 -301h-375v-160h215v-205h-215v-137h174v-324q0 -211 -124 -321.5t-335 -110.5q-197 0 -323 92z" />
<glyph unicode="&#x4fc;" horiz-adv-x="1302" d="M-20 0l380 756l-354 669h453l155 -409l174 409h445l-369 -657l234 -453h205v-348q0 -211 -127 -321.5t-347 -110.5q-195 0 -321 92l131 246q82 -41 139 -41q102 0 103 109v59h-74l-197 489l-184 -489h-446z" />
<glyph unicode="&#x4fd;" horiz-adv-x="1122" d="M-41 0l334 573l-305 521h448l107 -322l96 322h424l-279 -508l170 -295h189v-324q0 -211 -124 -321.5t-335 -110.5q-197 0 -324 92l132 232q80 -37 139 -37q106 0 106 108v70h-67l-144 377l-131 -377h-436z" />
<glyph unicode="&#x4fe;" horiz-adv-x="1241" d="M-20 0l315 627h-197v245h201l-293 553h453l155 -471l174 471h445l-309 -553h219v-245h-205l324 -627h-455l-197 510l-184 -510h-446z" />
<glyph unicode="&#x4ff;" horiz-adv-x="1081" d="M-41 0l270 465h-149v229h141l-233 400h428l127 -342l116 342h404l-219 -400h141v-229h-131l268 -465h-452l-144 408l-131 -408h-436z" />
<glyph unicode="&#x2000;" horiz-adv-x="1027" />
<glyph unicode="&#x2001;" horiz-adv-x="2054" />
<glyph unicode="&#x2002;" horiz-adv-x="1027" />
<glyph unicode="&#x2003;" horiz-adv-x="2054" />
<glyph unicode="&#x2004;" horiz-adv-x="684" />
<glyph unicode="&#x2005;" horiz-adv-x="513" />
<glyph unicode="&#x2006;" horiz-adv-x="342" />
<glyph unicode="&#x2007;" horiz-adv-x="342" />
<glyph unicode="&#x2008;" horiz-adv-x="256" />
<glyph unicode="&#x2009;" horiz-adv-x="410" />
<glyph unicode="&#x200a;" horiz-adv-x="114" />
<glyph unicode="&#x2010;" horiz-adv-x="839" d="M72 487v308h696v-308h-696z" />
<glyph unicode="&#x2011;" horiz-adv-x="839" d="M72 487v308h696v-308h-696z" />
<glyph unicode="&#x2012;" horiz-adv-x="839" d="M72 487v308h696v-308h-696z" />
<glyph unicode="&#x2013;" horiz-adv-x="1167" d="M72 487v308h1024v-308h-1024z" />
<glyph unicode="&#x2014;" horiz-adv-x="2191" d="M72 487v308h2048v-308h-2048z" />
<glyph unicode="&#x202f;" horiz-adv-x="410" />
<glyph unicode="&#x205f;" horiz-adv-x="513" />
<glyph unicode="&#x25fc;" horiz-adv-x="1095" d="M0 0v1096h1096v-1096h-1096z" />
<glyph unicode="&#xfb01;" horiz-adv-x="1255" d="M-4 819v275h164v63q0 182 122.5 295t376.5 113q215 0 400 -86l-107 -254q-127 49 -237 49q-86 0 -118 -28.5t-32 -108.5v-43h604v-1094h-405v819h-199v-819h-405v819h-164z" />
<glyph unicode="&#xfb02;" horiz-adv-x="1341" d="M-4 819v275h164v63q0 178 118.5 293t344.5 115q102 0 233 -35l352 35v-1207q0 -82 47 -82q20 1 45 9l72 -289q-102 -37 -237 -37q-158 0 -245 90t-87 260v959q-57 14 -115 14q-72 0 -97.5 -29.5t-25.5 -107.5v-51h172l-45 -275h-127v-819h-405v819h-164z" />
</font>
</defs>
</svg>
